<?xml version="1.0" encoding="UTF-8" standalone="no"?>
<!-- Created with Inkscape (http://www.inkscape.org/) -->

<svg
   width="64"
   height="64"
   viewBox="0 0 16.933333 16.933333"
   version="1.1"
   id="svg557"
   inkscape:version="1.2.1 (9c6d41e410, 2022-07-14)"
   sodipodi:docname="daudix-new-circle.svg"
   inkscape:export-filename="daudix8.png"
   inkscape:export-xdpi="6"
   inkscape:export-ydpi="6"
   xmlns:inkscape="http://www.inkscape.org/namespaces/inkscape"
   xmlns:sodipodi="http://sodipodi.sourceforge.net/DTD/sodipodi-0.dtd"
   xmlns:xlink="http://www.w3.org/1999/xlink"
   xmlns="http://www.w3.org/2000/svg"
   xmlns:svg="http://www.w3.org/2000/svg">
  <sodipodi:namedview
     id="namedview559"
     pagecolor="#ffffff"
     bordercolor="#000000"
     borderopacity="0.25"
     inkscape:showpageshadow="2"
     inkscape:pageopacity="0.0"
     inkscape:pagecheckerboard="0"
     inkscape:deskcolor="#d1d1d1"
     inkscape:document-units="mm"
     showgrid="false"
     inkscape:zoom="4.5579238"
     inkscape:cx="39.052868"
     inkscape:cy="35.3231"
     inkscape:window-width="1280"
     inkscape:window-height="731"
     inkscape:window-x="0"
     inkscape:window-y="0"
     inkscape:window-maximized="1"
     inkscape:current-layer="layer1">
    <inkscape:grid
       type="xygrid"
       id="grid678"
       originx="0"
       originy="0" />
  </sodipodi:namedview>
  <defs
     id="defs554">
    <clipPath
       clipPathUnits="userSpaceOnUse"
       id="clipPath296">
      <path
         d="m 156.25,359.37503 h 1250 V 1203.125 h -1250 z"
         clip-rule="evenodd"
         id="path294" />
    </clipPath>
    <linearGradient
       x1="-2.7284999e-12"
       y1="86.113998"
       x2="246.10001"
       y2="86.113998"
       gradientUnits="userSpaceOnUse"
       gradientTransform="matrix(0.24,0,0,-0.23999999,-24.14914,-12.594895)"
       spreadMethod="pad"
       id="UFO">
      <stop
         style="stop-color:#00e8fc;stop-opacity:1;"
         offset="0"
         id="stop300" />
      <stop
         style="stop-color:#007ce8;stop-opacity:1;"
         offset="1"
         id="stop302" />
    </linearGradient>
    <linearGradient
       xlink:href="#linearGradient60203"
       id="D"
       x1="2676.6848"
       y1="-1342.3362"
       x2="2930.6558"
       y2="-1106.906"
       gradientUnits="userSpaceOnUse"
       gradientTransform="matrix(0.05921206,0,0,0.05921206,-156.59683,79.48249)" />
    <linearGradient
       id="linearGradient60203">
      <stop
         style="stop-color:#c061cb;stop-opacity:1"
         offset="0"
         id="stop60199" />
      <stop
         style="stop-color:#62a0ea;stop-opacity:1"
         offset="1"
         id="stop60201" />
    </linearGradient>
    <radialGradient
       inkscape:collect="always"
       xlink:href="#linearGradient62889"
       id="radialGradient62883"
       cx="409.89893"
       cy="478.52652"
       fx="409.89893"
       fy="478.52652"
       r="297.41351"
       gradientTransform="matrix(0.0606526,0,0,0.04104738,-13.862626,-3.2109841)"
       gradientUnits="userSpaceOnUse" />
    <linearGradient
       id="linearGradient62889">
      <stop
         style="stop-color:#ffffff;stop-opacity:0.49494579"
         offset="0"
         id="stop62885" />
      <stop
         style="stop-color:#62a0ea;stop-opacity:0"
         offset="1"
         id="stop62887" />
    </linearGradient>
  </defs>
  <g
     inkscape:label="Слой 1"
     inkscape:groupmode="layer"
     id="layer1">
    <rect
       style="fill:url(#D);fill-opacity:1;stroke:none;stroke-width:0.0392952;stroke-linecap:round;stop-color:#000000"
       width="16.933332"
       height="16.933332"
       x="0"
       y="0"
       rx="0"
       ry="0"
       id="rect362" />
    <rect
       style="fill:url(#radialGradient62883);fill-opacity:1;stroke:none;stroke-width:0.190258;stroke-linecap:round;stroke-opacity:1;stop-color:#000000"
       width="16.933332"
       height="16.933332"
       x="0"
       y="0"
       rx="0"
       ry="0"
       id="rect62859" />
    <g
       id="g1499"
       transform="matrix(0.37758016,0,0,0.37758016,2.0688535,2.1925691)"
       style="fill:#ffffff;fill-opacity:1">
      <ellipse
         style="fill:#ffffff;fill-opacity:1;stroke:none;stroke-width:10.4915;stroke-linecap:round;stroke-linejoin:round;paint-order:markers stroke fill"
         id="path372"
         cx="11.867259"
         cy="11.41861"
         ry="1.324247"
         rx="1.3242221" />
      <circle
         style="fill:#ffffff;fill-opacity:1;stroke:none;stroke-width:8.79201;stroke-linecap:round;stroke-linejoin:round;paint-order:markers stroke fill"
         id="path929"
         cx="20.188"
         cy="8.4735146"
         r="0.66211104" />
      <ellipse
         style="fill:#ffffff;fill-opacity:1;stroke:none;stroke-width:8.91778;stroke-linecap:round;stroke-linejoin:round;paint-order:markers stroke fill"
         id="path931"
         cx="27.128403"
         cy="17.717983"
         rx="1.0593777"
         ry="1.0593983" />
      <path
         d="M 27.524808,12.723293 C 27.378397,10.940469 25.905655,9.5193775 24.122866,9.4246383 22.744863,9.3471243 21.521888,10.044751 20.85011,11.121336 c -0.335887,0.533986 -0.999051,0.757914 -1.601927,0.559823 -0.465076,-0.155029 -0.973215,-0.241155 -1.489966,-0.241155 -1.515802,0 -2.867966,0.706239 -3.746442,1.817275 -0.508139,0.645951 -1.33494,0.938782 -2.144516,0.809591 -0.353113,-0.06029 -0.723452,-0.07751 -1.09379,-0.05167 -2.4028908,0.163642 -4.3148687,2.135945 -4.418219,4.53888 -0.1205751,2.730217 2.0583907,4.978126 4.762719,4.978126 1.119627,0 2.144517,-0.38757 2.954093,-1.024909 0.818189,-0.64595 1.972265,-0.611499 2.747391,0.08612 0.904314,0.809591 2.118678,1.283288 3.445005,1.214388 2.437342,-0.12919 4.409606,-2.12733 4.504345,-4.564717 0.0086,-0.284219 0,-0.551212 -0.03445,-0.826817 -0.120574,-0.921556 0.292825,-1.817274 1.085177,-2.308196 1.111014,-0.680401 1.825854,-1.955077 1.705278,-3.384782 z"
         style="fill:#ffffff;fill-opacity:1;fill-rule:nonzero;stroke:none;stroke-width:0.0861262"
         id="path1161"
         sodipodi:nodetypes="scccsccccsccccccss" />
    </g>
    <path
       id="path40239"
       style="opacity:1;fill:#ffffff;fill-opacity:1;stroke:none;stroke-width:0.920001;stroke-linecap:round;stroke-linejoin:round;stroke-dasharray:none;stroke-opacity:1"
       d="M 8.4666667,0 H 0 v 8.4666667 8.4666663 l 8.4666667,0 8.4666663,0 0,-8.4666663 0,-8.4666667 z m 0,2.0003947 c 3.5711713,1.256e-4 6.4661463,2.8951006 6.4662723,6.466272 -1.26e-4,3.5711713 -2.895101,6.4661463 -6.4662723,6.4662723 -3.5711714,-1.26e-4 -6.4661464,-2.895101 -6.466272,-6.4662723 1.258e-4,-3.5711713 2.8951007,-6.4661462 6.466272,-6.466272 z"
       sodipodi:nodetypes="cccccccccccccc" />
  </g>
</svg>
