<?xml version="1.0" encoding="UTF-8" standalone="no"?>
<svg
   width="146.76056"
   height="144.00862"
   viewBox="0 0 38.830397 38.102282"
   version="1.1"
   id="svg10"
   sodipodi:docname="fedora-no-text.svg"
   inkscape:version="1.2 (dc2aedaf03, 2022-05-15)"
   xmlns:inkscape="http://www.inkscape.org/namespaces/inkscape"
   xmlns:sodipodi="http://sodipodi.sourceforge.net/DTD/sodipodi-0.dtd"
   xmlns="http://www.w3.org/2000/svg"
   xmlns:svg="http://www.w3.org/2000/svg">
  <defs
     id="defs14" />
  <sodipodi:namedview
     id="namedview12"
     pagecolor="#ffffff"
     bordercolor="#666666"
     borderopacity="1.0"
     inkscape:showpageshadow="2"
     inkscape:pageopacity="0.0"
     inkscape:pagecheckerboard="0"
     inkscape:deskcolor="#d1d1d1"
     showgrid="false"
     inkscape:zoom="0.8770068"
     inkscape:cx="338.65188"
     inkscape:cy="70.695005"
     inkscape:window-width="1280"
     inkscape:window-height="731"
     inkscape:window-x="0"
     inkscape:window-y="0"
     inkscape:window-maximized="1"
     inkscape:current-layer="svg10" />
  <g
     id="g4">
    <path
       fill="#51a2da"
       d="M 19.425524,0 C 8.7036299,0 0.02255219,8.5217564 0.00358427,19.042607 H 0 v 14.740952 h 0.00358427 c 0.00501796,2.386017 1.97822803,4.318724 4.41166503,4.318724 H 19.427422 C 30.151216,38.09549 38.830397,29.574834 38.830397,19.059678 38.830412,8.5388268 30.139837,0.01706971 19.408455,0.01706971 Z"
       id="path2"
       sodipodi:nodetypes="cccccscccc" />
  </g>
  <g
     id="g8">
    <path
       fill="#ffffff"
       d="m 23.372364,7.835345 c -3.028987,0 -5.704663,2.236586 -6.075082,5.170741 -0.0249,0.245618 -0.03219,0.422251 -0.03359,0.644922 l 0.0036,11.996684 c 0,2.301235 -1.756209,3.867465 -3.950663,3.867465 -2.197484,0 -3.967716,-1.722149 -3.967716,-3.871082 0.03604,-2.359086 1.961319,-3.855522 4.206978,-3.920691 h 0.01188 l 2.279965,-0.02066 v -3.16725 l -2.279965,0.01654 c -4.087331,-0.03604 -7.331689,3.103025 -7.45019,7.093624 0,3.880591 3.251028,7.044531 7.198008,7.044531 3.723171,0 6.821405,-2.852806 7.15977,-6.422347 0.04877,-1.215007 0.02532,-2.818432 0.02532,-2.818432 0.0068,-0.66023 -0.0105,-0.42328 -0.0036,-1.734261 l 2.827734,-0.02016 c 2.188181,0.01519 2.163443,-3.217921 -0.02532,-3.17345 l -2.80293,0.02066 c 0,-1.627346 0.02609,-3.244826 0,-4.874638 0.0019,-1.409608 1.362887,-2.655134 2.873208,-2.655134 1.510702,0 3.108854,0.739495 3.108854,2.655134 0,0.27369 -0.0057,0.43294 -0.02119,0.534336 -0.168616,0.888402 0.450459,1.737858 1.362189,1.866035 0.911733,0.126699 1.748824,-0.519356 1.839166,-1.418 0.05223,-0.355248 0.05013,-0.66852 0.05013,-0.981853 0,-3.377975 -3.07825,-5.826519 -6.338631,-5.826519 z"
       id="path6" />
  </g>
</svg>
