<?xml version="1.0" encoding="UTF-8" standalone="no"?>
<svg height="16px" viewBox="0 0 16 16" width="16px" xmlns="http://www.w3.org/2000/svg" sodipodi:docname="io.github.diegoivanme.flowtime-symbolic.svg" inkscape:version="1.2.1 (9c6d41e410, 2022-07-14)" xmlns:inkscape="http://www.inkscape.org/namespaces/inkscape" xmlns:sodipodi="http://sodipodi.sourceforge.net/DTD/sodipodi-0.dtd" xmlns:svg="http://www.w3.org/2000/svg">
    <sodipodi:namedview pagecolor="#ffffff" bordercolor="#000000" borderopacity="0.25" inkscape:showpageshadow="2" inkscape:pageopacity="0.0" inkscape:pagecheckerboard="0" inkscape:deskcolor="#d1d1d1" showgrid="false" inkscape:zoom="17.488919" inkscape:cx="16.410391" inkscape:cy="7.6048152" inkscape:window-width="1280" inkscape:window-height="731" inkscape:window-x="0" inkscape:window-y="0" inkscape:window-maximized="1" inkscape:current-layer="svg7054">
        <inkscape:grid/>
    </sodipodi:namedview>
    <path d="m 3.0429688 1.0195312 c -1.1289089 0 -2.0429688 0.9140599 -2.0429688 2.0429688 v 9.875 c 0 1.132809 0.9140599 2.042969 2.0429688 2.042969 h 2.9570312 a 1 1 0 0 0 1 -1 a 1 1 0 0 0 -1 -1 h -3 v -7.0000002 h 10 h 0.001953 a 1 1 0 0 0 -0.001953 0.0195312 a 1 1 0 0 0 1 1 a 1 1 0 0 0 1 -1 v -2.9375 c 0 -1.1289089 -0.91406 -2.0429688 -2.042969 -2.0429688 z m 0.9570312 6 v 2 h 2 v -2 z m 8 0.9804688 a 4 4 0 0 0 -4 4 a 4 4 0 0 0 4 4 a 4 4 0 0 0 4 -4 a 4 4 0 0 0 -4 -4 z m 0 1 a 3 3 0 0 1 3 3 a 3 3 0 0 1 -3 3 a 3 3 0 0 1 -3 -3 a 3 3 0 0 1 3 -3 z m 0 0.5 c -0.277 0 -0.5 0.2230003 -0.5 0.5 v 2 c 0 0.277 0.223 0.5 0.5 0.5 h 1.5 c 0.277 0 0.5 -0.223 0.5 -0.5 s -0.223 -0.5 -0.5 -0.5 h -1 v -1.5 c 0 -0.2769997 -0.223 -0.5 -0.5 -0.5 z m -8 0.519531 v 2 h 2 v -2 z"/>
</svg>
