<?xml version="1.0" encoding="UTF-8"?>
<svg height="128px" viewBox="0 0 128 128" width="128px" xmlns="http://www.w3.org/2000/svg" xmlns:xlink="http://www.w3.org/1999/xlink">
    <linearGradient id="a" gradientTransform="matrix(-1 0 -0 -1 123.99987 -175.999504)" gradientUnits="userSpaceOnUse" x1="8" x2="112" y1="-244" y2="-244">
        <stop offset="0" stop-color="#d5d3cf"/>
        <stop offset="0.038" stop-color="#f6f5f4"/>
        <stop offset="0.077" stop-color="#d5d3cf"/>
        <stop offset="0.923" stop-color="#d5d3cf"/>
        <stop offset="0.962" stop-color="#eeeeec"/>
        <stop offset="1" stop-color="#d5d3cf"/>
    </linearGradient>
    <clipPath id="b">
        <path d="m 90 14 h 26 v 26 h -26 z m 0 0"/>
    </clipPath>
    <clipPath id="c">
        <path d="m 20 12 h 88 c 4.417969 0 8 3.582031 8 8 v 84 c 0 4.417969 -3.582031 8 -8 8 h -88 c -4.417969 0 -8 -3.582031 -8 -8 v -84 c 0 -4.417969 3.582031 -8 8 -8 z m 0 0"/>
    </clipPath>
    <clipPath id="d">
        <path d="m 90 12 h 26 v 26 h -26 z m 0 0"/>
    </clipPath>
    <clipPath id="e">
        <path d="m 20 12 h 88 c 4.417969 0 8 3.582031 8 8 v 84 c 0 4.417969 -3.582031 8 -8 8 h -88 c -4.417969 0 -8 -3.582031 -8 -8 v -84 c 0 -4.417969 3.582031 -8 8 -8 z m 0 0"/>
    </clipPath>
    <clipPath id="f">
        <path d="m 64 14 h 26 v 26 h -26 z m 0 0"/>
    </clipPath>
    <clipPath id="g">
        <path d="m 20 12 h 88 c 4.417969 0 8 3.582031 8 8 v 84 c 0 4.417969 -3.582031 8 -8 8 h -88 c -4.417969 0 -8 -3.582031 -8 -8 v -84 c 0 -4.417969 3.582031 -8 8 -8 z m 0 0"/>
    </clipPath>
    <clipPath id="h">
        <path d="m 64 12 h 26 v 26 h -26 z m 0 0"/>
    </clipPath>
    <clipPath id="i">
        <path d="m 20 12 h 88 c 4.417969 0 8 3.582031 8 8 v 84 c 0 4.417969 -3.582031 8 -8 8 h -88 c -4.417969 0 -8 -3.582031 -8 -8 v -84 c 0 -4.417969 3.582031 -8 8 -8 z m 0 0"/>
    </clipPath>
    <clipPath id="j">
        <path d="m 38 14 h 26 v 26 h -26 z m 0 0"/>
    </clipPath>
    <clipPath id="k">
        <path d="m 20 12 h 88 c 4.417969 0 8 3.582031 8 8 v 84 c 0 4.417969 -3.582031 8 -8 8 h -88 c -4.417969 0 -8 -3.582031 -8 -8 v -84 c 0 -4.417969 3.582031 -8 8 -8 z m 0 0"/>
    </clipPath>
    <clipPath id="l">
        <path d="m 38 12 h 26 v 26 h -26 z m 0 0"/>
    </clipPath>
    <clipPath id="m">
        <path d="m 20 12 h 88 c 4.417969 0 8 3.582031 8 8 v 84 c 0 4.417969 -3.582031 8 -8 8 h -88 c -4.417969 0 -8 -3.582031 -8 -8 v -84 c 0 -4.417969 3.582031 -8 8 -8 z m 0 0"/>
    </clipPath>
    <clipPath id="n">
        <path d="m 12 14 h 26 v 26 h -26 z m 0 0"/>
    </clipPath>
    <clipPath id="o">
        <path d="m 20 12 h 88 c 4.417969 0 8 3.582031 8 8 v 84 c 0 4.417969 -3.582031 8 -8 8 h -88 c -4.417969 0 -8 -3.582031 -8 -8 v -84 c 0 -4.417969 3.582031 -8 8 -8 z m 0 0"/>
    </clipPath>
    <clipPath id="p">
        <path d="m 12 12 h 26 v 26 h -26 z m 0 0"/>
    </clipPath>
    <clipPath id="q">
        <path d="m 20 12 h 88 c 4.417969 0 8 3.582031 8 8 v 84 c 0 4.417969 -3.582031 8 -8 8 h -88 c -4.417969 0 -8 -3.582031 -8 -8 v -84 c 0 -4.417969 3.582031 -8 8 -8 z m 0 0"/>
    </clipPath>
    <clipPath id="r">
        <path d="m 12 12 h 26 v 13 h -26 z m 0 0"/>
    </clipPath>
    <clipPath id="s">
        <path d="m 20 12 h 88 c 4.417969 0 8 3.582031 8 8 v 84 c 0 4.417969 -3.582031 8 -8 8 h -88 c -4.417969 0 -8 -3.582031 -8 -8 v -84 c 0 -4.417969 3.582031 -8 8 -8 z m 0 0"/>
    </clipPath>
    <clipPath id="t">
        <path d="m 38 12 h 26 v 13 h -26 z m 0 0"/>
    </clipPath>
    <clipPath id="u">
        <path d="m 20 12 h 88 c 4.417969 0 8 3.582031 8 8 v 84 c 0 4.417969 -3.582031 8 -8 8 h -88 c -4.417969 0 -8 -3.582031 -8 -8 v -84 c 0 -4.417969 3.582031 -8 8 -8 z m 0 0"/>
    </clipPath>
    <clipPath id="v">
        <path d="m 64 12 h 26 v 13 h -26 z m 0 0"/>
    </clipPath>
    <clipPath id="w">
        <path d="m 20 12 h 88 c 4.417969 0 8 3.582031 8 8 v 84 c 0 4.417969 -3.582031 8 -8 8 h -88 c -4.417969 0 -8 -3.582031 -8 -8 v -84 c 0 -4.417969 3.582031 -8 8 -8 z m 0 0"/>
    </clipPath>
    <clipPath id="x">
        <path d="m 90 12 h 26 v 13 h -26 z m 0 0"/>
    </clipPath>
    <clipPath id="y">
        <path d="m 20 12 h 88 c 4.417969 0 8 3.582031 8 8 v 84 c 0 4.417969 -3.582031 8 -8 8 h -88 c -4.417969 0 -8 -3.582031 -8 -8 v -84 c 0 -4.417969 3.582031 -8 8 -8 z m 0 0"/>
    </clipPath>
    <path d="m 108 116 h -88 c -4.417969 0 -8 -3.582031 -8 -8 v -24 c 0 -4.417969 3.582031 -8 8 -8 h 88 c 4.417969 0 8 3.582031 8 8 v 24 c 0 4.417969 -3.582031 8 -8 8 z m 0 0" fill="url(#a)"/>
    <path d="m 20 12 h 88 c 4.417969 0 8 3.582031 8 8 v 84 c 0 4.417969 -3.582031 8 -8 8 h -88 c -4.417969 0 -8 -3.582031 -8 -8 v -84 c 0 -4.417969 3.582031 -8 8 -8 z m 0 0" fill="#f6f5f4"/>
    <g clip-path="url(#b)">
        <g clip-path="url(#c)">
            <path d="m 103 14 c -7.179688 0 -13 5.820312 -13 13 s 5.820312 13 13 13 s 13 -5.820312 13 -13 s -5.820312 -13 -13 -13 z m 0 0" fill="#9a9996"/>
        </g>
    </g>
    <g clip-path="url(#d)">
        <g clip-path="url(#e)">
            <path d="m 103 12 c -7.179688 0 -13 5.820312 -13 13 s 5.820312 13 13 13 s 13 -5.820312 13 -13 s -5.820312 -13 -13 -13 z m 0 0" fill="#f6f5f4"/>
        </g>
    </g>
    <g clip-path="url(#f)">
        <g clip-path="url(#g)">
            <path d="m 77 14 c -7.179688 0 -13 5.820312 -13 13 s 5.820312 13 13 13 s 13 -5.820312 13 -13 s -5.820312 -13 -13 -13 z m 0 0" fill="#c64600"/>
        </g>
    </g>
    <g clip-path="url(#h)">
        <g clip-path="url(#i)">
            <path d="m 77 12 c -7.179688 0 -13 5.820312 -13 13 s 5.820312 13 13 13 s 13 -5.820312 13 -13 s -5.820312 -13 -13 -13 z m 0 0" fill="#ff7800"/>
        </g>
    </g>
    <g clip-path="url(#j)">
        <g clip-path="url(#k)">
            <path d="m 51 14 c -7.179688 0 -13 5.820312 -13 13 s 5.820312 13 13 13 s 13 -5.820312 13 -13 s -5.820312 -13 -13 -13 z m 0 0" fill="#9a9996"/>
        </g>
    </g>
    <g clip-path="url(#l)">
        <g clip-path="url(#m)">
            <path d="m 51 12 c -7.179688 0 -13 5.820312 -13 13 s 5.820312 13 13 13 s 13 -5.820312 13 -13 s -5.820312 -13 -13 -13 z m 0 0" fill="#f6f5f4"/>
        </g>
    </g>
    <g clip-path="url(#n)">
        <g clip-path="url(#o)">
            <path d="m 25 14 c -7.179688 0 -13 5.820312 -13 13 s 5.820312 13 13 13 s 13 -5.820312 13 -13 s -5.820312 -13 -13 -13 z m 0 0" fill="#c64600"/>
        </g>
    </g>
    <g clip-path="url(#p)">
        <g clip-path="url(#q)">
            <path d="m 25 12 c -7.179688 0 -13 5.820312 -13 13 s 5.820312 13 13 13 s 13 -5.820312 13 -13 s -5.820312 -13 -13 -13 z m 0 0" fill="#ff7800"/>
        </g>
    </g>
    <g clip-path="url(#r)">
        <g clip-path="url(#s)">
            <path d="m 12 12 h 26 v 13 h -26 z m 0 0" fill="#ff7800"/>
        </g>
    </g>
    <g clip-path="url(#t)">
        <g clip-path="url(#u)">
            <path d="m 38 12 h 26 v 13 h -26 z m 0 0" fill="#f6f5f4"/>
        </g>
    </g>
    <g clip-path="url(#v)">
        <g clip-path="url(#w)">
            <path d="m 64 12 h 26 v 13 h -26 z m 0 0" fill="#ff7800"/>
        </g>
    </g>
    <g clip-path="url(#x)">
        <g clip-path="url(#y)">
            <path d="m 90 12 h 26 v 13 h -26 z m 0 0" fill="#f6f5f4"/>
        </g>
    </g>
    <path d="m 74.394531 47.273438 h 29.414063 c 2.320312 0 4.199218 1.882812 4.199218 4.203124 v 48.320313 c 0 2.320313 -1.878906 4.203125 -4.199218 4.203125 h -29.414063 c -2.320312 0 -4.203125 -1.882812 -4.203125 -4.203125 v -48.320313 c 0 -2.320312 1.882813 -4.203124 4.203125 -4.203124 z m 0 0" fill="#62a0ea"/>
    <path d="m 74.394531 51.273438 h 29.414063 c 2.320312 0 4.199218 1.882812 4.199218 4.203124 v 48.320313 c 0 2.320313 -1.878906 4.203125 -4.199218 4.203125 h -29.414063 c -2.320312 0 -4.203125 -1.882812 -4.203125 -4.203125 v -48.320313 c 0 -2.320312 1.882813 -4.203124 4.203125 -4.203124 z m 0 0" fill="#99c1f1"/>
    <path d="m 24.203125 47.273438 h 29.410156 c 2.324219 0 4.203125 1.882812 4.203125 4.203124 v 29.414063 c 0 2.320313 -1.878906 4.199219 -4.203125 4.199219 h -29.410156 c -2.324219 0 -4.203125 -1.878906 -4.203125 -4.199219 v -29.414063 c 0 -2.320312 1.878906 -4.203124 4.203125 -4.203124 z m 0 0" fill="#62a0ea"/>
    <path d="m 24.203125 51.273438 h 29.410156 c 2.324219 0 4.203125 1.882812 4.203125 4.203124 v 29.414063 c 0 2.320313 -1.878906 4.199219 -4.203125 4.199219 h -29.410156 c -2.324219 0 -4.203125 -1.878906 -4.203125 -4.199219 v -29.414063 c 0 -2.320312 1.878906 -4.203124 4.203125 -4.203124 z m 0 0" fill="#99c1f1"/>
    <path d="m 103.28125 78.457031 c 0 1.957031 -1.585938 3.542969 -3.542969 3.542969 s -3.546875 -1.585938 -3.546875 -3.542969 c 0 -1.960937 1.589844 -3.546875 3.546875 -3.546875 s 3.542969 1.585938 3.542969 3.546875 z m 0 0" fill="#1a5fb4"/>
    <path d="m 103.28125 77.273438 c 0 1.957031 -1.585938 3.546874 -3.542969 3.546874 s -3.546875 -1.589843 -3.546875 -3.546874 c 0 -1.957032 1.589844 -3.546876 3.546875 -3.546876 s 3.542969 1.589844 3.542969 3.546876 z m 0 0" fill="#3584e4"/>
    <path d="m 24.101562 82.890625 h 29.613282 c 2.265625 0 4.101562 1.835937 4.101562 4.101563 c 0 2.265624 -1.835937 4.101562 -4.101562 4.101562 h -29.613282 c -2.265624 0 -4.101562 -1.835938 -4.101562 -4.101562 c 0 -2.265626 1.835938 -4.101563 4.101562 -4.101563 z m 0 0" fill="#63452c"/>
    <path d="m 24.101562 80.890625 h 29.613282 c 2.265625 0 4.101562 1.835937 4.101562 4.101563 c 0 2.261718 -1.835937 4.097656 -4.101562 4.097656 h -29.613282 c -2.265624 0 -4.101562 -1.835938 -4.101562 -4.097656 c 0 -2.265626 1.835938 -4.101563 4.101562 -4.101563 z m 0 0" fill="#986a44"/>
    <path d="m 82.464844 59 h 13.273437 c 2.207031 0 4 1.789062 4 4 s -1.792969 4 -4 4 h -13.273437 c -2.210938 0 -4 -1.789062 -4 -4 s 1.789062 -4 4 -4 z m 0 0" fill="#26a269"/>
    <path d="m 82.464844 58 h 13.273437 c 2.207031 0 4 1.789062 4 4 s -1.792969 4 -4 4 h -13.273437 c -2.210938 0 -4 -1.789062 -4 -4 s 1.789062 -4 4 -4 z m 0 0" fill="#57e389"/>
</svg>
