<svg xmlns="http://www.w3.org/2000/svg" width="16" height="16"><path fill="#2e3436" d="M3 0C1.34 0 0 1.34 0 3v7c0 1.66 1.34 3 3 3h10c1.66 0 3-1.34 3-3V3c0-1.66-1.34-3-3-3zm0 2h10c.555 0 1 .445 1 1v7c0 .555-.445 1-1 1H3c-.555 0-1-.445-1-1V3c0-.555.445-1 1-1zm3 2c-.55 0-1 .45-1 1s.45 1 1 1 1-.45 1-1-.45-1-1-1zm4 0c-.55 0-1 .45-1 1s.45 1 1 1 1-.45 1-1-.45-1-1-1zM8 7a4 4 0 0 0-3.465 2 .503.503 0 0 0 .184.684.503.503 0 0 0 .683-.184C5.938 8.57 6.926 8 8 8s2.063.57 2.598 1.5c.136.238.445.32.683.184A.503.503 0 0 0 11.465 9 4 4 0 0 0 8 7zm-3 7a2 2 0 0 0-2 2h10a2 2 0 0 0-2-2z"/></svg>