<svg xmlns="http://www.w3.org/2000/svg" width="16" height="16"><path d="M5 0C3.356 0 2 1.356 2 3v10c0 1.644 1.356 3 3 3h6c1.644 0 3-1.356 3-3V3c0-1.644-1.356-3-3-3H5zm0 2h1c0 .555.445 1 1 1h2c.555 0 1-.445 1-1h1c.57 0 1 .43 1 1v9c0 .555-.445 1-1 1H5c-.555 0-1-.445-1-1V3c0-.57.43-1 1-1zm1 3c-.55 0-1 .45-1 1s.45 1 1 1 1-.45 1-1-.45-1-1-1zm4 0c-.55 0-1 .45-1 1s.45 1 1 1 1-.45 1-1-.45-1-1-1zM8 8a4 4 0 0 0-3.465 2 .503.503 0 0 0 .184.684.503.503 0 0 0 .683-.184A2.992 2.992 0 0 1 8 9c1.074 0 2.062.57 2.598 1.5.136.238.445.32.683.184a.503.503 0 0 0 .184-.684A4 4 0 0 0 8 8z" style="fill:#2e3436;fill-opacity:1"/></svg>