<?xml version="1.0" encoding="UTF-8" standalone="no"?>
<!-- Created with Inkscape (http://www.inkscape.org/) -->

<svg
   inkscape:export-ydpi="96"
   inkscape:export-xdpi="96"
   inkscape:export-filename="Template.png"
   width="128"
   height="128"
   id="svg11300"
   sodipodi:version="0.32"
   inkscape:version="1.2 (dc2aedaf03, 2022-05-15)"
   sodipodi:docname="StarWIP2.svg"
   inkscape:output_extension="org.inkscape.output.svg.inkscape"
   version="1.0"
   style="display:inline;enable-background:new"
   viewBox="0 0 128 128"
   xmlns:inkscape="http://www.inkscape.org/namespaces/inkscape"
   xmlns:sodipodi="http://sodipodi.sourceforge.net/DTD/sodipodi-0.dtd"
   xmlns:xlink="http://www.w3.org/1999/xlink"
   xmlns="http://www.w3.org/2000/svg"
   xmlns:svg="http://www.w3.org/2000/svg"
   xmlns:rdf="http://www.w3.org/1999/02/22-rdf-syntax-ns#"
   xmlns:cc="http://creativecommons.org/ns#"
   xmlns:dc="http://purl.org/dc/elements/1.1/">
  <title
     id="title4162">Adwaita Icon Template</title>
  <defs
     id="defs3">
    <linearGradient
       inkscape:collect="always"
       id="linearGradient2640">
      <stop
         style="stop-color:#f6d32d;stop-opacity:1;"
         offset="0"
         id="stop2636" />
      <stop
         style="stop-color:#ffa348;stop-opacity:1;"
         offset="0.51999998"
         id="stop2648" />
      <stop
         style="stop-color:#ff7800;stop-opacity:1;"
         offset="0.77999997"
         id="stop2644" />
      <stop
         style="stop-color:#e66100;stop-opacity:1;"
         offset="0.86000001"
         id="stop2646" />
      <stop
         style="stop-color:#e01b24;stop-opacity:1;"
         offset="1"
         id="stop2638" />
    </linearGradient>
    <linearGradient
       y2="236"
       x2="96"
       y1="236"
       x1="32"
       gradientTransform="translate(604.81684,170.58641)"
       gradientUnits="userSpaceOnUse"
       id="linearGradient1099"
       xlink:href="#linearGradient1036" />
    <linearGradient
       id="linearGradient1036">
      <stop
         id="stop1032"
         offset="0"
         style="stop-color:#d5d3cf;stop-opacity:1;" />
      <stop
         id="stop1034"
         offset="1"
         style="stop-color:#f6f5f4;stop-opacity:1" />
    </linearGradient>
    <radialGradient
       r="32"
       fy="-76"
       fx="-244"
       cy="-76"
       cx="-244"
       gradientTransform="matrix(0.88333331,0,0,0.88333331,-460.35018,463.11973)"
       gradientUnits="userSpaceOnUse"
       id="radialGradient1103"
       xlink:href="#linearGradient1069" />
    <linearGradient
       id="linearGradient1069">
      <stop
         id="stop1065"
         offset="0"
         style="stop-color:#d5d3cf;stop-opacity:1" />
      <stop
         id="stop1067-1"
         offset="1"
         style="stop-color:#949390;stop-opacity:1" />
    </linearGradient>
    <linearGradient
       gradientUnits="userSpaceOnUse"
       y2="232"
       x2="64"
       y1="262.5"
       x1="64"
       id="linearGradient1027"
       xlink:href="#linearGradient1025"
       gradientTransform="translate(-470.5864,432.81685)" />
    <linearGradient
       id="linearGradient1025">
      <stop
         id="stop1021"
         offset="0"
         style="stop-color:#9a9996;stop-opacity:1" />
      <stop
         id="stop1023"
         offset="1"
         style="stop-color:#77767b;stop-opacity:1" />
    </linearGradient>
    <inkscape:path-effect
       effect="spiro"
       id="path-effect35304-9"
       is_visible="true" />
    <clipPath
       clipPathUnits="userSpaceOnUse"
       id="clipPath1609-7">
      <path
         sodipodi:nodetypes="cccccc"
         inkscape:connector-curvature="0"
         id="path1611-5"
         d="m 252,116 28,-28 v -8 h -36 v 36 z"
         style="fill:#e74747;stroke:none;stroke-width:0.25px;stroke-linecap:butt;stroke-linejoin:miter;stroke-opacity:1" />
    </clipPath>
    <linearGradient
       inkscape:collect="always"
       xlink:href="#linearGradient2640"
       id="linearGradient2642"
       x1="88.054253"
       y1="178.77371"
       x2="88.338631"
       y2="226.94218"
       gradientUnits="userSpaceOnUse"
       gradientTransform="matrix(1.354569,0.78206075,-0.78206075,1.354569,115.11174,-126.07299)" />
  </defs>
  <sodipodi:namedview
     stroke="#ef2929"
     fill="#f57900"
     id="base"
     pagecolor="#ffffff"
     bordercolor="#666666"
     borderopacity="0.25490196"
     inkscape:pageopacity="0.0"
     inkscape:pageshadow="2"
     inkscape:zoom="3.9398307"
     inkscape:cx="67.134864"
     inkscape:cy="64.469775"
     inkscape:current-layer="layer9"
     showgrid="false"
     inkscape:grid-bbox="true"
     inkscape:document-units="px"
     inkscape:showpageshadow="false"
     inkscape:window-width="1280"
     inkscape:window-height="731"
     inkscape:window-x="0"
     inkscape:window-y="0"
     width="400px"
     height="300px"
     inkscape:snap-nodes="true"
     inkscape:snap-bbox="true"
     objecttolerance="7"
     gridtolerance="12"
     guidetolerance="13"
     inkscape:window-maximized="1"
     inkscape:pagecheckerboard="false"
     showguides="false"
     inkscape:guide-bbox="true"
     inkscape:locked="false"
     inkscape:measure-start="0,0"
     inkscape:measure-end="0,0"
     inkscape:object-nodes="true"
     inkscape:bbox-nodes="true"
     inkscape:snap-global="true"
     inkscape:object-paths="true"
     inkscape:snap-intersection-paths="true"
     inkscape:snap-bbox-edge-midpoints="true"
     inkscape:snap-bbox-midpoints="true"
     showborder="false"
     inkscape:snap-center="true"
     inkscape:snap-object-midpoints="true"
     inkscape:snap-midpoints="true"
     inkscape:snap-smooth-nodes="true"
     inkscape:snap-text-baseline="true"
     inkscape:deskcolor="#d1d1d1">
    <inkscape:grid
       type="xygrid"
       id="grid5883"
       spacingx="2"
       spacingy="2"
       enabled="true"
       visible="true"
       empspacing="4"
       originx="0"
       originy="0" />
    <sodipodi:guide
       position="64,8"
       orientation="0,1"
       id="guide1073"
       inkscape:locked="false"
       inkscape:label=""
       inkscape:color="rgb(0,0,255)" />
    <sodipodi:guide
       position="12,64"
       orientation="1,0"
       id="guide1075"
       inkscape:locked="false"
       inkscape:label=""
       inkscape:color="rgb(0,0,255)" />
    <sodipodi:guide
       position="64,104"
       orientation="0,1"
       id="guide1099"
       inkscape:locked="false"
       inkscape:label=""
       inkscape:color="rgb(0,0,255)" />
    <sodipodi:guide
       position="64,128"
       orientation="0,1"
       id="guide993"
       inkscape:locked="false"
       inkscape:label=""
       inkscape:color="rgb(0,0,255)" />
    <sodipodi:guide
       position="104,64"
       orientation="1,0"
       id="guide995"
       inkscape:locked="false"
       inkscape:label=""
       inkscape:color="rgb(0,0,255)" />
    <sodipodi:guide
       position="9.2651362e-08,64"
       orientation="1,0"
       id="guide867"
       inkscape:locked="false"
       inkscape:label=""
       inkscape:color="rgb(0,0,255)" />
    <sodipodi:guide
       position="120,64"
       orientation="1,0"
       id="guide869"
       inkscape:locked="false"
       inkscape:label=""
       inkscape:color="rgb(0,0,255)" />
    <sodipodi:guide
       position="64,116"
       orientation="0,1"
       id="guide871"
       inkscape:locked="false"
       inkscape:label=""
       inkscape:color="rgb(0,0,255)" />
    <inkscape:grid
       type="xygrid"
       id="grid873"
       spacingx="1"
       spacingy="1"
       empspacing="8"
       color="#000000"
       opacity="0.49019608"
       empcolor="#000000"
       empopacity="0.08627451"
       dotted="true" />
    <sodipodi:guide
       position="24,64"
       orientation="1,0"
       id="guide877"
       inkscape:locked="false"
       inkscape:label=""
       inkscape:color="rgb(0,0,255)" />
    <sodipodi:guide
       position="116,64"
       orientation="1,0"
       id="guide879"
       inkscape:locked="false"
       inkscape:label=""
       inkscape:color="rgb(0,0,255)" />
    <sodipodi:guide
       position="64,120"
       orientation="0,1"
       id="guide881"
       inkscape:locked="false"
       inkscape:label=""
       inkscape:color="rgb(0,0,255)" />
    <sodipodi:guide
       position="64,12"
       orientation="0,1"
       id="guide883"
       inkscape:locked="false"
       inkscape:label=""
       inkscape:color="rgb(0,0,255)" />
    <sodipodi:guide
       position="8,64"
       orientation="1,0"
       id="guide885"
       inkscape:locked="false"
       inkscape:label=""
       inkscape:color="rgb(0,0,255)" />
    <sodipodi:guide
       position="128,64"
       orientation="1,0"
       id="guide887"
       inkscape:locked="false"
       inkscape:label=""
       inkscape:color="rgb(0,0,255)" />
    <sodipodi:guide
       position="64,0"
       orientation="0,1"
       id="guide897"
       inkscape:locked="false"
       inkscape:label=""
       inkscape:color="rgb(0,0,255)" />
    <sodipodi:guide
       position="64,24"
       orientation="0,1"
       id="guide899"
       inkscape:locked="false"
       inkscape:label=""
       inkscape:color="rgb(0,0,255)" />
    <sodipodi:guide
       position="256,256"
       orientation="-0.70710678,0.70710678"
       id="guide950"
       inkscape:locked="false"
       inkscape:label=""
       inkscape:color="rgb(0,0,255)" />
    <sodipodi:guide
       position="64,64"
       orientation="0.70710678,0.70710678"
       id="guide952"
       inkscape:locked="false"
       inkscape:label=""
       inkscape:color="rgb(0,0,255)" />
  </sodipodi:namedview>
  <metadata
     id="metadata4">
    <rdf:RDF>
      <cc:Work
         rdf:about="">
        <dc:format>image/svg+xml</dc:format>
        <dc:type
           rdf:resource="http://purl.org/dc/dcmitype/StillImage" />
        <dc:creator>
          <cc:Agent>
            <dc:title>GNOME Design Team</dc:title>
          </cc:Agent>
        </dc:creator>
        <dc:source />
        <cc:license
           rdf:resource="http://creativecommons.org/licenses/by-sa/4.0/" />
        <dc:title>Adwaita Icon Template</dc:title>
        <dc:subject>
          <rdf:Bag />
        </dc:subject>
        <dc:date />
        <dc:rights>
          <cc:Agent>
            <dc:title />
          </cc:Agent>
        </dc:rights>
        <dc:publisher>
          <cc:Agent>
            <dc:title />
          </cc:Agent>
        </dc:publisher>
        <dc:identifier />
        <dc:relation />
        <dc:language />
        <dc:coverage />
        <dc:description />
        <dc:contributor>
          <cc:Agent>
            <dc:title />
          </cc:Agent>
        </dc:contributor>
      </cc:Work>
      <cc:License
         rdf:about="http://creativecommons.org/licenses/by-sa/4.0/">
        <cc:permits
           rdf:resource="http://creativecommons.org/ns#Reproduction" />
        <cc:permits
           rdf:resource="http://creativecommons.org/ns#Distribution" />
        <cc:requires
           rdf:resource="http://creativecommons.org/ns#Notice" />
        <cc:requires
           rdf:resource="http://creativecommons.org/ns#Attribution" />
        <cc:permits
           rdf:resource="http://creativecommons.org/ns#DerivativeWorks" />
        <cc:requires
           rdf:resource="http://creativecommons.org/ns#ShareAlike" />
      </cc:License>
    </rdf:RDF>
  </metadata>
  <g
     id="layer1"
     inkscape:label="App Icon"
     inkscape:groupmode="layer"
     style="display:inline"
     transform="translate(0,-172)">
    <g
       inkscape:groupmode="layer"
       id="layer2"
       inkscape:label="baseplate"
       style="display:inline"
       sodipodi:insensitive="true">
      <g
         style="display:inline;fill:#000000;enable-background:new"
         transform="matrix(7.9911709,0,0,8.0036407,-167.7909,-4846.0776)"
         id="g12027"
         inkscape:export-xdpi="12"
         inkscape:export-ydpi="12" />
      <rect
         style="display:inline;overflow:visible;visibility:visible;fill:#f0f0f0;fill-opacity:1;fill-rule:nonzero;stroke:none;stroke-width:0.5;marker:none;enable-background:accumulate"
         id="rect13805"
         width="128"
         height="128"
         x="9.2651362e-08"
         y="172"
         inkscape:label="512x512" />
      <g
         id="g883"
         style="fill:none;fill-opacity:0.25098039;stroke:#a579b3;stroke-opacity:1"
         transform="translate(-24,24)" />
      <g
         id="g900"
         style="fill:none;fill-opacity:0.25098039;stroke:#a579b3;stroke-opacity:1"
         transform="translate(-24,24)" />
      <rect
         inkscape:label="512x512"
         y="172"
         x="160"
         height="16"
         width="16"
         id="rect859"
         style="display:inline;overflow:visible;visibility:visible;fill:#f0f0f0;fill-opacity:1;fill-rule:nonzero;stroke:none;stroke-width:0.5;marker:none;enable-background:accumulate" />
      <text
         xml:space="preserve"
         style="font-style:normal;font-variant:normal;font-weight:bold;font-stretch:normal;font-size:4px;line-height:125%;font-family:Cantarell;-inkscape-font-specification:'Cantarell, Bold';text-align:start;writing-mode:lr-tb;text-anchor:start;display:inline;fill:#000000;fill-opacity:1;stroke:none;stroke-width:0.332649;enable-background:new"
         x="0"
         y="164"
         id="text863"
         inkscape:label="icon-name"><tspan
           style="font-size:4px;stroke-width:0.332649"
           sodipodi:role="line"
           id="tspan861"
           x="0"
           y="164">Hicolor</tspan></text>
      <text
         inkscape:label="icon-name"
         id="text867"
         y="164"
         x="160"
         style="font-style:normal;font-variant:normal;font-weight:bold;font-stretch:normal;font-size:4px;line-height:125%;font-family:Cantarell;-inkscape-font-specification:'Cantarell, Bold';text-align:start;writing-mode:lr-tb;text-anchor:start;display:inline;fill:#000000;fill-opacity:1;stroke:none;stroke-width:0.332649;enable-background:new"
         xml:space="preserve"><tspan
           y="164"
           x="160"
           id="tspan865"
           sodipodi:role="line"
           style="font-size:4px;stroke-width:0.332649">Symbolic</tspan></text>
    </g>
    <g
       inkscape:groupmode="layer"
       id="layer9"
       inkscape:label="icons"
       style="display:inline">
      <path
         d="m -31.762768,214.2764 c -0.429688,0 -0.8125,0.27344 -0.949219,0.68359 l -1.449219,4.33985 -4.589843,-0.0156 c -0.980469,-0.004 -1.382813,1.25781 -0.582031,1.82031 l 3.625,2.55469 -1.5,4.28516 c -0.316407,0.90234 0.6875,1.6914 1.492187,1.17187 l 4.003906,-2.59375 3.894531,2.58594 c 0.800782,0.53125 1.816407,-0.25781 1.5,-1.16016 l -1.503906,-4.28906 3.644532,-2.57812 c 0.789062,-0.5625 0.394531,-1.8086 -0.574219,-1.8125 l -4.660157,-0.0156 -1.402343,-4.28515 c -0.132813,-0.41022 -0.515625,-0.68756 -0.949219,-0.69147 z m 0,0"
         fill="#2e3436"
         id="path1464"
         style="display:inline;enable-background:new" />
      <path
         d="m -31.841097,236.94349 c -0.429687,0.0117 -0.777344,0.21484 -1.003906,0.41406 -0.222656,0.19922 -0.367188,0.40625 -0.496094,0.6211 -0.257812,0.42968 -0.441406,0.90234 -0.621094,1.37109 -0.179687,0.46484 -0.34375,0.92969 -0.496093,1.26953 -0.08203,0.1875 -0.0625,0.16016 -0.113281,0.23438 l -3.394532,-0.008 c -0.453125,-0.004 -0.847656,0.28143 -0.980468,0.6955 -0.230469,0.74609 0.101562,1.22656 0.371093,1.64843 0.269531,0.41797 0.609375,0.8125 0.953125,1.19922 0.34375,0.38281 0.6875,0.75 0.949219,1.05469 0.257813,0.30469 0.417969,0.60547 0.390625,0.51953 -0.08203,-0.24609 -0.01563,0.043 -0.117188,0.39063 -0.101562,0.34765 -0.269531,0.80859 -0.433593,1.27343 -0.160157,0.46875 -0.320313,0.94141 -0.398438,1.42969 -0.03906,0.24219 -0.0625,0.49219 -0.0078,0.78516 0.05078,0.29687 0.226562,0.6914 0.589843,0.9375 0.359376,0.24218 0.773438,0.26953 1.074219,0.23437 0.304688,-0.0352 0.546875,-0.125 0.785157,-0.22656 0.480468,-0.20313 0.929687,-0.48438 1.375,-0.76563 0.441406,-0.28125 0.875,-0.5625 1.214843,-0.75781 0.34375,-0.19531 0.667969,-0.23437 0.445313,-0.23437 -0.25,0 0.07031,0.0352 0.402344,0.23047 0.332031,0.19531 0.75,0.48437 1.183593,0.76953 0.433594,0.28125 0.867188,0.5664 1.335938,0.77343 0.230469,0.10157 0.472656,0.19532 0.777343,0.23047 0.304688,0.0352 0.734376,0 1.09375,-0.26172 0.03906,-0.0312 0.07813,-0.0664 0.113282,-0.10156 0.515625,-0.51172 0.558594,-1.21484 0.476562,-1.73047 -0.08203,-0.51172 -0.265625,-0.97265 -0.441406,-1.41406 -0.175781,-0.44141 -0.351562,-0.85937 -0.445312,-1.18359 -0.09375,-0.32422 -0.07031,-0.53125 -0.07422,-0.52344 -0.05469,0.16016 0.08594,-0.10938 0.359375,-0.37109 0.273437,-0.26563 0.648437,-0.59375 1.023437,-0.95313 0.375,-0.35547 0.75,-0.73437 1.046875,-1.19141 0.296875,-0.46093 0.5625,-1.10156 0.3125,-1.79296 -0.144531,-0.39454 -0.527344,-0.65625 -0.960937,-0.66016 h -3.597657 c -0.01953,-0.0312 -0.01953,-0.0234 -0.03906,-0.0664 -0.144531,-0.27734 -0.320312,-0.74609 -0.5,-1.23437 -0.175781,-0.49219 -0.359375,-1.00391 -0.597656,-1.46485 -0.121094,-0.23046 -0.25,-0.45312 -0.464844,-0.67187 -0.214844,-0.22266 -0.59375,-0.48047 -1.089844,-0.47266 z m 0,0"
         fill="#222222"
         id="path1632" />
      <g
         fill="#474747"
         id="g1701"
         transform="translate(-47.10183,288.40685)">
        <path
           d="m 12.109,5 c 0.62,0.75 0.995,1.71 0.995,2.76 0,2.399125 -1.944875,4.344 -4.344,4.344 C 7.71,12.104 6.75,11.728 6,11.109 6.5407058,13.394101 8.5838065,15.005963 10.932,15 13.730979,15 16,12.730979 16,9.932 16.005963,7.5838065 14.394101,5.5407058 12.109,5 Z M 6.511,1.79 c 0.4,0 0.721,0.322 0.721,0.721 C 7.2325528,2.9090355 6.9100359,3.2320004 6.512,3.232 6.1135742,3.2331067 5.7899985,2.9104274 5.79,2.512 5.79,2.112 6.112,1.79 6.511,1.79 Z m 4,1.023 c 0.932,0 0.932,1.398 0,1.398 -0.386899,0.00111 -0.7006669,-0.3131034 -0.699,-0.7 0,-0.387 0.312,-0.698 0.7,-0.698 z m -3,1.977 c 0.4,0 0.721,0.322 0.721,0.721 C 8.2325528,5.9090355 7.9100359,6.2320004 7.512,6.232 7.1135742,6.2331067 6.7899985,5.9104274 6.79,5.512 6.79,5.112 7.112,4.79 7.511,4.79 Z"
           style="marker:none"
           color="#bebebe"
           overflow="visible"
           id="path1697"
           sodipodi:nodetypes="cssccccsccsscccccsccss" />
        <path
           d="M 3.505,7.505 2.76,5.25 0.505,4.505 2.76,3.76 3.505,1.505 4.25,3.76 6.505,4.505 4.25,5.25 Z"
           style="marker:none"
           color="#000000"
           overflow="visible"
           id="path1699" />
      </g>
      <path
         d="m 94.575404,184.9521 c -2.019469,-1.09371 -4.170744,-1.08258 -5.751269,-0.766 -1.562448,0.327 -2.784278,0.89884 -3.95469,1.54859 -2.340775,1.29943 -4.452954,2.99598 -6.53662,4.68491 -2.073215,1.67082 -4.074157,3.38341 -5.686921,4.5489 -0.880461,0.64845 -0.717056,0.57413 -1.1503,0.78189 l -15.685366,-9.10525 c -2.085925,-1.22906 -4.673971,-0.9623 -6.39467,0.59885 -3.05953,2.83654 -2.806741,5.9467 -2.686607,8.61873 0.130557,2.65404 0.649073,5.38742 1.206527,8.09511 0.567909,2.68956 1.177529,5.30691 1.574556,7.41589 0.378969,2.09852 0.316497,3.91813 0.419557,3.44744 0.277858,-1.35782 -0.187189,0.15719 -1.585778,1.49441 -1.398655,1.33727 -3.40723,3.02135 -5.408149,4.73392 -1.993295,1.74109 -3.997032,3.50027 -5.662927,5.55086 -0.827724,1.01628 -1.604044,2.11043 -2.133589,3.61216 -0.558108,1.50928 -0.798715,3.80439 0.224772,5.91359 1.015885,2.08063 2.858709,3.31333 4.34437,3.95417 1.503845,0.65108 2.864358,0.88255 4.238214,1.04918 2.765812,0.34362 5.595713,0.24234 8.407544,0.1306 2.793764,-0.12216 5.551366,-0.26521 7.645604,-0.26107 2.112309,0.0141 3.716835,0.70001 2.68659,0.10527 -1.156761,-0.66788 0.231296,0.35069 1.245987,2.14122 1.014571,1.79072 2.176339,4.24479 3.420819,6.72255 1.254922,2.45969 2.499427,4.93743 4.115292,7.14761 0.795062,1.08564 1.665231,2.1664 2.981135,3.14301 1.315773,0.97684 3.398007,1.96183 5.760018,1.71088 0.264083,-0.04 0.538899,-0.0985 0.795476,-0.1673 3.75286,-0.9903 5.830016,-4.12889 6.827927,-6.73388 0.987463,-2.5869 1.36931,-5.21012 1.735158,-7.72215 0.365845,-2.51201 0.669049,-4.91553 1.101397,-6.66616 0.432342,-1.75064 1.093871,-2.64596 1.054909,-2.62026 -0.680909,0.59497 0.689856,-0.27653 2.654205,-0.75702 1.974829,-0.49861 4.58652,-1.01507 7.281725,-1.67613 2.68478,-0.64301 5.43214,-1.39442 8.02675,-2.71608 2.605,-1.33967 5.54547,-3.59431 6.23573,-7.46132 0.38523,-2.21168 -0.68693,-4.44528 -2.68273,-5.62168 l -16.646601,-9.61092 c -0.0063,-0.19655 -0.02784,-0.1604 -0.0031,-0.41158 0.07211,-1.66938 0.51103,-4.30792 0.984004,-7.04725 0.501505,-2.74697 1.019026,-5.60518 1.147862,-8.37454 0.05537,-1.38985 0.05365,-2.76447 -0.355994,-4.35059 -0.399289,-1.60421 -1.463783,-3.80934 -3.780106,-5.09847 z m 0,0"
         fill="#222222"
         id="path1908"
         style="fill:url(#linearGradient2642);fill-opacity:1;stroke-width:5.34287"
         class="UnoptimicedTransforms" />
      <path
         d="m 44.217529,257.37861 -1.274271,-3.85702 -3.85702,-1.27427 3.85702,-1.27427 1.274271,-3.85702 1.274271,3.85702 3.85702,1.27427 -3.85702,1.27427 z"
         style="display:inline;fill:#f8e45c;stroke-width:1.71043;marker:none;enable-background:new"
         color="#000000"
         overflow="visible"
         id="path1699-3"
         class="UnoptimicedTransforms"
         transform="matrix(0.84386697,0.48720682,-0.48720682,0.84386697,132.07146,17.112517)" />
      <path
         d="m 44.217529,257.37861 -1.274271,-3.85702 -3.85702,-1.27427 3.85702,-1.27427 1.274271,-3.85702 1.274271,3.85702 3.85702,1.27427 -3.85702,1.27427 z"
         style="display:inline;fill:#f8e45c;stroke-width:1.71043;marker:none;enable-background:new"
         color="#000000"
         overflow="visible"
         id="path12971"
         class="UnoptimicedTransforms"
         transform="matrix(1.2658005,0.73081025,-0.73081025,1.2658005,179.43823,-83.015303)" />
      <path
         d="m 44.217529,257.37861 -1.274271,-3.85702 -3.85702,-1.27427 3.85702,-1.27427 1.274271,-3.85702 1.274271,3.85702 3.85702,1.27427 -3.85702,1.27427 z"
         style="display:inline;fill:#f8e45c;stroke-width:1.71043;marker:none;enable-background:new"
         color="#000000"
         overflow="visible"
         id="path12973"
         class="UnoptimicedTransforms"
         transform="matrix(1.6877339,0.97441365,-0.97441365,1.6877339,205.82424,-206.80337)" />
      <path
         d="m 35.974619,270.6694 c 0.730202,0 1.316189,0.58781 1.316189,1.31619 9.77e-4,0.72663 -0.587747,1.31619 -1.314363,1.31619 -0.727328,0.002 -1.318017,-0.58703 -1.318014,-1.31437 0,-0.7302 0.587812,-1.31801 1.316188,-1.31801 z m 7.302016,1.86749 c 1.70137,0 1.70137,2.55206 0,2.55206 -0.706285,0.002 -1.27907,-0.57157 -1.276027,-1.27786 0,-0.70647 0.569558,-1.2742 1.277853,-1.2742 z m -5.476512,3.60902 c 0.730202,0 1.316189,0.58781 1.316189,1.31619 9.78e-4,0.72662 -0.587747,1.31619 -1.314363,1.31619 -0.727328,0.002 -1.318017,-0.58702 -1.318014,-1.31436 0,-0.73021 0.587812,-1.31802 1.316188,-1.31802 z"
         style="color:#bebebe;overflow:visible;fill:#f5c211;stroke-width:1.82551;marker:none"
         id="path12983" />
      <path
         d="m 38.289358,245.24 c -0.730202,0 -1.316189,0.58781 -1.316189,1.31619 -9.77e-4,0.72663 0.587747,1.31619 1.314363,1.31619 0.727328,0.002 1.318017,-0.58703 1.318014,-1.31437 0,-0.7302 -0.587812,-1.31801 -1.316188,-1.31801 z m -7.302016,1.86749 c -1.70137,0 -1.70137,2.55206 0,2.55206 0.706285,0.002 1.27907,-0.57157 1.276027,-1.27786 0,-0.70647 -0.569558,-1.2742 -1.277853,-1.2742 z m 5.476512,3.60902 c -0.730202,0 -1.316189,0.58781 -1.316189,1.31619 -9.78e-4,0.72662 0.587747,1.31619 1.314363,1.31619 0.727328,0.002 1.318017,-0.58702 1.318014,-1.31436 0,-0.73021 -0.587812,-1.31802 -1.316188,-1.31802 z"
         style="color:#bebebe;overflow:visible;fill:#f5c211;stroke-width:1.82551;marker:none"
         id="path13005" />
    </g>
    <g
       inkscape:groupmode="layer"
       id="layer3"
       inkscape:label="hairlines"
       style="display:inline"
       sodipodi:insensitive="true">
      <circle
         cx="64.000031"
         cy="236"
         r="59.504131"
         id="circle2892"
         style="display:inline;opacity:0.1;vector-effect:none;fill:none;fill-opacity:1;stroke:#000000;stroke-width:0.99000001;stroke-linecap:butt;stroke-linejoin:miter;stroke-miterlimit:4;stroke-dasharray:0.99000001, 0.99000001;stroke-dashoffset:0;stroke-opacity:1;marker:none;marker-start:none;marker-mid:none;marker-end:none;paint-order:normal;enable-background:new" />
      <rect
         ry="7.9292889"
         rx="8.701004"
         y="180.49496"
         x="20.495007"
         height="111.01005"
         width="87.009987"
         id="rect2894"
         style="display:inline;opacity:0.1;vector-effect:none;fill:none;fill-opacity:1;stroke:#000000;stroke-width:0.99000001;stroke-linecap:butt;stroke-linejoin:miter;stroke-miterlimit:4;stroke-dasharray:0.99000001, 0.99000001;stroke-dashoffset:0;stroke-opacity:1;marker:none;marker-start:none;marker-mid:none;marker-end:none;paint-order:normal;enable-background:new" />
      <rect
         ry="7.9238095"
         rx="7.9238095"
         y="184.49524"
         x="12.495266"
         height="103.00952"
         width="103.00952"
         id="rect2896"
         style="display:inline;opacity:0.1;vector-effect:none;fill:none;fill-opacity:1;stroke:#000000;stroke-width:0.99000001;stroke-linecap:butt;stroke-linejoin:miter;stroke-miterlimit:4;stroke-dasharray:0.99000001, 0.99000001;stroke-dashoffset:0;stroke-opacity:1;marker:none;marker-start:none;marker-mid:none;marker-end:none;paint-order:normal;enable-background:new" />
      <rect
         ry="8.701005"
         rx="7.9292889"
         y="200.49496"
         x="8.4950066"
         height="87.010048"
         width="111.01004"
         id="rect2898"
         style="display:inline;opacity:0.1;vector-effect:none;fill:none;fill-opacity:1;stroke:#000000;stroke-width:0.99000001;stroke-linecap:butt;stroke-linejoin:miter;stroke-miterlimit:4;stroke-dasharray:0.99000001, 0.99000001;stroke-dashoffset:0;stroke-opacity:1;marker:none;marker-start:none;marker-mid:none;marker-end:none;paint-order:normal;enable-background:new" />
      <path
         inkscape:connector-curvature="0"
         id="path2900"
         d="M 2.6203015e-5,288.99999 H 128.00003"
         style="display:inline;fill:none;stroke:#62a0ea;stroke-width:2;stroke-linecap:butt;stroke-linejoin:miter;stroke-miterlimit:4;stroke-dasharray:none;stroke-opacity:1;enable-background:new" />
    </g>
  </g>
</svg>
