<?xml version="1.0" encoding="UTF-8" standalone="no"?>
<svg
   height="16px"
   viewBox="0 0 16 16"
   width="16px"
   version="1.1"
   id="svg1407"
   sodipodi:docname="palette.svg"
   inkscape:version="1.2.1 (9c6d41e410, 2022-07-14)"
   xmlns:inkscape="http://www.inkscape.org/namespaces/inkscape"
   xmlns:sodipodi="http://sodipodi.sourceforge.net/DTD/sodipodi-0.dtd"
   xmlns="http://www.w3.org/2000/svg"
   xmlns:svg="http://www.w3.org/2000/svg">
  <defs
     id="defs1411" />
  <sodipodi:namedview
     id="namedview1409"
     pagecolor="#ffffff"
     bordercolor="#000000"
     borderopacity="0.25"
     inkscape:showpageshadow="2"
     inkscape:pageopacity="0.0"
     inkscape:pagecheckerboard="0"
     inkscape:deskcolor="#d1d1d1"
     showgrid="false"
     inkscape:zoom="14.75"
     inkscape:cx="6.2711864"
     inkscape:cy="8"
     inkscape:window-width="1280"
     inkscape:window-height="731"
     inkscape:window-x="0"
     inkscape:window-y="0"
     inkscape:window-maximized="1"
     inkscape:current-layer="svg1407" />
  <g
     transform="translate(-160.49985,-171.50031)"
     style="display:inline;fill:#2e3436;fill-opacity:1;enable-background:new"
     id="g1921">
    <path
       id="path1915"
       style="opacity:1;vector-effect:none;fill:#2e3436;fill-opacity:1;stroke:none;stroke-width:2;stroke-linecap:round;stroke-linejoin:round;stroke-miterlimit:4;stroke-dasharray:none;stroke-dashoffset:0;stroke-opacity:1"
       d="M 160.99997,2.71875e-4 V 11.957303 v 0.04297 h 0.002 a 3,3 0 0 0 0.87696,2.121094 3,3 0 0 0 4.24218,0 3,3 0 0 0 0.87696,-2.121094 h 0.002 V 2.71875e-4 Z M 170.3652,1.39285 167.99997,3.7580844 v 8.2421876 c -9.1e-4,0.09738 -0.0161,0.194103 -0.0449,0.287109 l 6.65234,-6.6523435 z m 2.29102,7.6074219 -5.81836,5.8164061 -0.01,0.0098 v 0.002 c -0.008,0.0077 -0.0176,0.0119 -0.0254,0.01953 -0.036,0.03406 -0.0745,0.0654 -0.11523,0.09375 -0.005,0.0039 -0.009,0.0079 -0.0137,0.01172 -0.0184,0.01661 -0.038,0.03067 -0.0566,0.04687 h 9.38281 V 9.0002719 Z m -8.64258,2.0000001 a 1,1 0 0 1 0.69336,0.292969 1,1 0 0 1 0,1.414062 1,1 0 0 1 -1.41406,0 1,1 0 0 1 0,-1.414062 1,1 0 0 1 0.7207,-0.292969 z"
       transform="translate(0,172)" />
  </g>
</svg>
