<?xml version="1.0" encoding="UTF-8"?>
<svg height="128px" viewBox="0 0 128 128" width="128px" xmlns="http://www.w3.org/2000/svg" xmlns:xlink="http://www.w3.org/1999/xlink">
    <linearGradient id="a" gradientUnits="userSpaceOnUse" x1="32" x2="104" y1="16" y2="104">
        <stop offset="0" stop-color="#ed333b"/>
        <stop offset="1" stop-color="#c061cb"/>
    </linearGradient>
    <linearGradient id="b" gradientUnits="userSpaceOnUse" x1="100" x2="108" y1="83" y2="83">
        <stop offset="0" stop-color="#deddda"/>
        <stop offset="0.511049" stop-color="#ffffff"/>
        <stop offset="1" stop-color="#c0bfbc"/>
    </linearGradient>
    <filter id="c" height="100%" width="100%" x="0%" y="0%">
        <feColorMatrix in="SourceGraphic" type="matrix" values="0 0 0 0 1 0 0 0 0 1 0 0 0 0 1 0 0 0 1 0"/>
    </filter>
    <mask id="d">
        <g filter="url(#c)">
            <rect fill-opacity="0.2" height="128" width="128"/>
        </g>
    </mask>
    <clipPath id="e">
        <rect height="152" width="192"/>
    </clipPath>
    <linearGradient id="f" gradientUnits="userSpaceOnUse">
        <stop offset="0" stop-color="#9a9996"/>
        <stop offset="1" stop-color="#f6f5f4"/>
    </linearGradient>
    <linearGradient id="g" gradientTransform="matrix(-0.866026 -0.5 -0.5 0.866026 -49.403815 -142.930287)" x1="-231.10257" x2="-227.10257" xlink:href="#f" y1="131.796356" y2="131.796356"/>
    <linearGradient id="h" gradientTransform="matrix(-0.866026 -0.5 -0.5 0.866026 -49.403815 -142.930287)" gradientUnits="userSpaceOnUse" x1="-221.10257" x2="-237.102264" y1="92.796349" y2="92.796349">
        <stop offset="0" stop-color="#02ab90"/>
        <stop offset="1" stop-color="#09635f"/>
    </linearGradient>
    <linearGradient id="i" gradientUnits="userSpaceOnUse">
        <stop offset="0" stop-color="#f6f5f4"/>
        <stop offset="1" stop-color="#9a9996"/>
    </linearGradient>
    <linearGradient id="j" gradientTransform="matrix(-0.866026 -0.5 -0.250039 0.433081 -72.599251 -102.754598)" x1="-221.10257" x2="-237.10257" xlink:href="#i" y1="92.796349" y2="92.796349"/>
    <linearGradient id="k" gradientTransform="matrix(-0.866026 -0.5 -0.5 0.866026 -49.40415 -142.930392)" x1="-231.10257" x2="-227.10257" xlink:href="#f" y1="131.796356" y2="131.796356"/>
    <linearGradient id="l" gradientTransform="matrix(0.965926 0.258819 -0.258819 0.965926 21.86134 -16.684397)" gradientUnits="userSpaceOnUse" x1="88.039268" x2="103.494011" y1="43.360554" y2="47.501637">
        <stop offset="0" stop-color="#62a0ea"/>
        <stop offset="0.25" stop-color="#99c1f1"/>
        <stop offset="0.5" stop-color="#3584e4"/>
        <stop offset="0.75" stop-color="#1c71d8"/>
        <stop offset="1" stop-color="#1a5fb4"/>
    </linearGradient>
    <linearGradient id="m" gradientTransform="matrix(-0.866026 -0.5 -0.250039 0.433081 -72.599586 -102.754704)" x1="-221.10257" x2="-237.10257" xlink:href="#i" y1="92.796349" y2="92.796349"/>
    <path d="m 20 28 v 92 h 80 c 4.433594 0 8 -3.566406 8 -8 v -76 c 0 -4.433594 -3.566406 -8 -8 -8 z m 0 0" fill="url(#a)"/>
    <path d="m 20 28 v 92 h 80 c 4.433594 0 8 -3.566406 8 -8 v -76 c 0 -4.433594 -3.566406 -8 -8 -8 z m 0 0" fill-opacity="0.4"/>
    <path d="m 22 48 v 70 h 78 c 4.433594 0 8 -3.566406 8 -8 v -54 c 0 -4.433594 -3.566406 -8 -8 -8 z m 0 0" fill="url(#b)"/>
    <path d="m 20 28 v 84 h 80 c 4.433594 0 8 -3.566406 8 -8 v -68 c 0 -4.433594 -3.566406 -8 -8 -8 z m 0 0" fill="url(#a)"/>
    <path d="m 20 28 v 84 h 80 c 4.433594 0 8 -3.566406 8 -8 v -68 c 0 -4.433594 -3.566406 -8 -8 -8 z m 0 0" fill-opacity="0.4"/>
    <path d="m 20 8 v 102 h 80 c 4.433594 0 8 -3.566406 8 -8 v -86 c 0 -4.433594 -3.566406 -8 -8 -8 z m 0 0" fill="url(#a)"/>
    <g clip-path="url(#e)" mask="url(#d)" transform="matrix(1 0 0 1 -8 -16)">
        <path d="m 30 24 h 2 v 102 h -2 z m 0 0" fill="#ffffff"/>
    </g>
    <path d="m 72.640625 52.535156 c 1.976563 0.128906 2.863281 2.519532 1.464844 3.917969 l -9.96875 10.300781 c -0.898438 0.898438 -2.355469 0.898438 -3.253907 0 l -5.953124 -5.753906 c -2.171876 -2.164062 1.082031 -5.417969 3.25 -3.25 l 4.328124 4.132812 l 8.347657 -8.683593 c 0.46875 -0.480469 1.121093 -0.714844 1.785156 -0.664063 z m 0 0" fill="#f6d32d"/>
    <path d="m 64 39 c -11.007812 0 -19.992188 8.984375 -19.992188 20 s 8.984376 20 19.992188 20 c 11.015625 0 19.992188 -8.984375 19.992188 -20 s -8.976563 -20 -19.992188 -20 z m 0 5 c 8.308594 0 14.992188 6.6875 14.992188 15 s -6.683594 15 -14.992188 15 c -8.3125 0 -14.992188 -6.6875 -14.992188 -15 s 6.679688 -15 14.992188 -15 z m 0 0" fill="#f6d32d"/>
    <path d="m 72.394531 52.53125 c -0.578125 0.015625 -1.128906 0.25 -1.539062 0.667969 l -8.351563 8.683593 l -4.324218 -4.132812 c -1.96875 -1.96875 -4.835938 0.535156 -3.714844 2.636719 c 0.640625 -1.253907 2.382812 -1.96875 3.714844 -0.636719 l 4.324218 4.132812 l 8.351563 -8.683593 c 0.46875 -0.480469 1.125 -0.710938 1.785156 -0.664063 c 0.90625 0.058594 1.578125 0.59375 1.910156 1.289063 c 0.683594 -1.386719 -0.207031 -3.179688 -1.910156 -3.289063 c -0.082031 -0.007812 -0.164063 -0.007812 -0.246094 -0.003906 z m 0 0" fill="#e5a50a"/>
    <path d="m 64 39 c -11.003906 0 -19.988281 8.984375 -19.988281 20 c 0 0.335938 0.007812 0.667969 0.023437 1 c 0.523438 -10.554688 9.292969 -19 19.964844 -19 c 10.679688 0 19.441406 8.445312 19.964844 19 c 0.015625 -0.332031 0.023437 -0.664062 0.023437 -1 c 0 -11.015625 -8.972656 -20 -19.988281 -20 z m -14.953125 21 c -0.023437 0.332031 -0.035156 0.664062 -0.035156 1 c 0 8.308594 6.679687 15 14.988281 15 s 14.988281 -6.691406 14.988281 -15 c 0 -0.335938 -0.011719 -0.667969 -0.035156 -1 c -0.511719 7.839844 -6.980469 14 -14.953125 14 s -14.441406 -6.160156 -14.953125 -14 z m 0 0" fill="#e5a50a"/>
    <path d="m 127 33.734375 l -5.199219 -3 c -0.179687 -0.105469 -0.367187 -0.175781 -0.558593 -0.21875 c -0.832032 -0.191406 -1.722657 0.175781 -2.171876 0.953125 c -0.550781 0.957031 -0.226562 2.175781 0.730469 2.730469 l 6.929688 4 l 1 -1.730469 c 0.550781 -0.960938 0.230469 -2.179688 -0.730469 -2.734375 z m 0 0" fill="#c0bfbc"/>
    <path d="m 84.605469 83.160156 c -0.953125 -0.550781 -2.179688 -0.222656 -2.730469 0.730469 l -1 1.734375 c -0.554688 0.957031 -0.226562 2.179688 0.734375 2.734375 c 0.957031 0.550781 2.175781 0.222656 2.730469 -0.734375 l 1 -1.730469 c 0.550781 -0.957031 0.222656 -2.179687 -0.730469 -2.734375 z m 0 0" fill="url(#g)"/>
    <path d="m 115.019531 20.097656 c -1.664062 -0.375 -3.441406 0.347656 -4.339843 1.90625 l -8.003907 13.855469 l -1.460937 2.539063 l -0.539063 0.921874 c 0 0.003907 0.003907 0.007813 0 0.003907 l -8 13.855469 c -4 6.929687 -14 24.25 -10.800781 30.714843 l 3.460938 2 c 7.199218 -0.464843 17.199218 -17.785156 21.199218 -24.714843 l 8 -13.851563 l 0.535156 -0.933594 l 1.464844 -2.53125 l 8.003906 -13.859375 c 1.101563 -1.917968 0.449219 -4.355468 -1.46875 -5.464844 l -6.929687 -4 c -0.359375 -0.207031 -0.738281 -0.351562 -1.121094 -0.441406 z m 0 0" fill="url(#h)"/>
    <path d="m 109.535156 55.984375 l -13.855468 -8 l -1 1.734375 l 13.855468 8 z m 0 0" fill="url(#j)"/>
    <path d="m 123.265625 36.199219 l -1 1.734375 l -1 1.730468 l -8 13.855469 c -0.550781 0.960938 -0.226563 2.179688 0.734375 2.734375 c 0.957031 0.550782 2.175781 0.226563 2.730469 -0.734375 l 8 -13.851562 l 2 -3.46875 l -1.730469 -1 z m 0 0" fill="#c0bfbc"/>
    <path d="m 127 33.734375 l -5.199219 -3 c -0.179687 -0.105469 -0.367187 -0.175781 -0.558593 -0.21875 c -0.832032 -0.191406 -1.722657 0.175781 -2.171876 0.953125 c -0.550781 0.957031 -0.226562 2.175781 0.730469 2.730469 l 6.929688 4 l 1 -1.730469 c 0.550781 -0.960938 0.230469 -2.179688 -0.730469 -2.734375 z m 0 0" fill="#c0bfbc"/>
    <path d="m 74.605469 100.480469 c -0.953125 -0.550781 -2.179688 -0.222657 -2.730469 0.734375 l -1 1.730468 c -0.554688 0.957032 -0.226562 2.179688 0.730469 2.734376 c 0.960937 0.550781 2.179687 0.222656 2.730469 -0.734376 l 1.003906 -1.734374 c 0.550781 -0.953126 0.222656 -2.175782 -0.734375 -2.730469 z m 0 0" fill="url(#k)"/>
    <path d="m 123.265625 36.199219 l -1 1.734375 l -1 1.730468 l -8 13.855469 c -0.550781 0.960938 -0.226563 2.179688 0.734375 2.734375 c 0.957031 0.550782 2.175781 0.226563 2.730469 -0.734375 l 8 -13.851562 l 2 -3.46875 l -1.730469 -1 z m 0 0" fill="#c0bfbc"/>
    <path d="m 115.019531 20.097656 c -1.664062 -0.375 -3.441406 0.347656 -4.339843 1.90625 l -8.003907 13.855469 l -1.464843 2.539063 l -0.535157 0.921874 v 0.003907 l -18 31.175781 c -4 6.929688 -14 24.25 -10.800781 30.714844 l 3.464844 2 c 7.195312 -0.464844 17.195312 -17.785156 21.195312 -24.714844 l 18 -31.179688 l 0.535156 -0.925781 l 1.464844 -2.535156 l 8 -13.855469 c 1.105469 -1.917968 0.453125 -4.355468 -1.464844 -5.464844 l -6.929687 -4 c -0.359375 -0.207031 -0.738281 -0.351562 -1.121094 -0.441406 z m 0 0" fill="url(#l)"/>
    <path d="m 109.535156 55.984375 l -13.855468 -8 l -1.003907 1.734375 l 13.859375 8 z m 0 0" fill="url(#m)"/>
</svg>
