<?xml version="1.0" encoding="UTF-8" standalone="no"?>
<svg height="16px" viewBox="0 0 16 16" width="16px" xmlns="http://www.w3.org/2000/svg" sodipodi:docname="io.halfmexican.Hacer-symbolic.svg" inkscape:version="1.2.1 (9c6d41e410, 2022-07-14)" xmlns:inkscape="http://www.inkscape.org/namespaces/inkscape" xmlns:sodipodi="http://sodipodi.sourceforge.net/DTD/sodipodi-0.dtd" xmlns:svg="http://www.w3.org/2000/svg">
    <sodipodi:namedview pagecolor="#ffffff" bordercolor="#000000" borderopacity="0.25" inkscape:showpageshadow="2" inkscape:pageopacity="0.0" inkscape:pagecheckerboard="0" inkscape:deskcolor="#d1d1d1" showgrid="true" inkscape:zoom="22.163486" inkscape:cx="7.2190808" inkscape:cy="9.7457591" inkscape:window-width="1280" inkscape:window-height="731" inkscape:window-x="0" inkscape:window-y="0" inkscape:window-maximized="1" inkscape:current-layer="svg292">
        <inkscape:grid/>
    </sodipodi:namedview>
    <path d="m 4 0.99999953 c -1.999998 0 -2 1.99999997 -2 1.99999997 h 11 v 11.0000005 h -11 s 0.000002 2 2 2 h 9 s 0.457029 0.015601 0.949219 -0.230469 c 0.488279 -0.24609 1.050781 -0.937502 1.050781 -1.769531 v -11.0000005 c 0 -0.8320291 -0.562502 -1.5234415 -1.050781 -1.7695312 c -0.49219 -0.24609981 -0.949219 -0.23046877 -0.949219 -0.23046877 z m -2.5 2.99999997 c -0.2773397 0 -0.5 0.2226603 -0.5 0.5 c 0 0.2773398 0.2226603 0.5 0.5 0.5 h 2 c 0.2773397 0 0.5 -0.2226602 0.5 -0.5 c 0 -0.2773397 -0.2226603 -0.5 -0.5 -0.5 z m 0 2 c -0.2773397 0 -0.5 0.2226603 -0.5 0.5 c 0 0.2773398 0.2226603 0.5 0.5 0.5 h 2 c 0.2773397 0 0.5 -0.2226602 0.5 -0.5 c 0 -0.2773397 -0.2226603 -0.5 -0.5 -0.5 z m 8.619141 0.5 c -0.1547808 0.0050185 -0.3019929 0.067276 -0.4121098 0.1796875 l -2.2421874 2.3300782 l -1.1621094 -1.1074219 c -0.582047 -0.582047 -1.4550939 0.2910005 -0.8730469 0.8730469 l 1.5996094 1.5429688 c 0.2412085 0.24121 0.6318383 0.24121 0.8730469 0 l 2.6777342 -2.7656251 c 0.374922 -0.3749221 0.135079 -1.0166973 -0.394531 -1.0507812 c -0.022286 -0.0016387 -0.044295 -0.0026701 -0.066406 -0.0019532 z m -8.619141 1.5 c -0.2773397 0 -0.5 0.2226603 -0.5 0.5 c 0 0.2773398 0.2226603 0.5 0.5 0.5 h 2 c 0.2773397 0 0.5 -0.2226602 0.5 -0.5 c 0 -0.2773397 -0.2226603 -0.5 -0.5 -0.5 z m 0 2 c -0.2773397 0 -0.5 0.2226605 -0.5 0.5000005 c 0 0.277339 0.2226603 0.5 0.5 0.5 h 2 c 0.2773397 0 0.5 -0.222661 0.5 -0.5 c 0 -0.27734 -0.2226603 -0.5000005 -0.5 -0.5000005 z m 0 2.0000005 c -0.2773397 0 -0.5 0.22266 -0.5 0.5 c 0 0.277339 0.2226603 0.5 0.5 0.5 h 2 c 0.2773397 0 0.5 -0.222661 0.5 -0.5 c 0 -0.27734 -0.2226603 -0.5 -0.5 -0.5 z"/>
</svg>
