<?xml version="1.0" encoding="UTF-8"?>
<svg height="128px" viewBox="0 0 128 128" width="128px" xmlns="http://www.w3.org/2000/svg" xmlns:xlink="http://www.w3.org/1999/xlink">
    <filter id="a" height="100%" width="100%" x="0%" y="0%">
        <feColorMatrix in="SourceGraphic" type="matrix" values="0 0 0 0 1 0 0 0 0 1 0 0 0 0 1 0 0 0 1 0"/>
    </filter>
    <mask id="b">
        <g filter="url(#a)">
            <rect fill-opacity="0.2" height="128" width="128"/>
        </g>
    </mask>
    <clipPath id="c">
        <rect height="152" width="192"/>
    </clipPath>
    <path d="m 124 66 c 0 33.136719 -26.863281 60 -60 60 s -60 -26.863281 -60 -60 s 26.863281 -60 60 -60 s 60 26.863281 60 60 z m 0 0" fill="#d5d3cf"/>
    <path d="m 64 8 c 30.929688 0 56 25.070312 56 56 v 2 c 0 30.929688 -25.070312 56 -56 56 s -56 -25.070312 -56 -56 v -2 c 0 -30.929688 25.070312 -56 56 -56 z m 0 0" fill="#d5d3cf"/>
    <path d="m 124 64 c 0 33.136719 -26.863281 60 -60 60 s -60 -26.863281 -60 -60 s 26.863281 -60 60 -60 s 60 26.863281 60 60 z m 0 0" fill="#f6f5f4"/>
    <path d="m 118 66 c 0 29.824219 -24.175781 54 -54 54 s -54 -24.175781 -54 -54 s 24.175781 -54 54 -54 s 54 24.175781 54 54 z m 0 0" fill="#62a0ea"/>
    <path d="m 118 64 c 0 29.824219 -24.175781 54 -54 54 s -54 -24.175781 -54 -54 s 24.175781 -54 54 -54 s 54 24.175781 54 54 z m 0 0" fill="#99c1f1"/>
    <path d="m 102 66 c 0 20.988281 -17.011719 38 -38 38 s -38 -17.011719 -38 -38 s 17.011719 -38 38 -38 s 38 17.011719 38 38 z m 0 0" fill="#3584e4"/>
    <path d="m 102 64 c 0 20.988281 -17.011719 38 -38 38 s -38 -17.011719 -38 -38 s 17.011719 -38 38 -38 s 38 17.011719 38 38 z m 0 0" fill="#62a0ea"/>
    <path d="m 86 66 c 0 12.148438 -9.851562 22 -22 22 s -22 -9.851562 -22 -22 s 9.851562 -22 22 -22 s 22 9.851562 22 22 z m 0 0" fill="#1c71d8"/>
    <path d="m 86 64 c 0 12.148438 -9.851562 22 -22 22 s -22 -9.851562 -22 -22 s 9.851562 -22 22 -22 s 22 9.851562 22 22 z m 0 0" fill="#3584e4"/>
    <g clip-path="url(#c)" mask="url(#b)" transform="matrix(1 0 0 1 -8 -16)">
        <path d="m 78.738281 85.472656 c -0.234375 -0.128906 -0.304687 -0.445312 -0.128906 -0.601562 c 0.050781 -0.046875 0.480469 -0.179688 0.945313 -0.296875 c 2.59375 -0.652344 4.230468 -1.386719 5.117187 -2.289063 c 0.445313 -0.457031 0.609375 -0.804687 0.609375 -1.285156 c 0 -0.484375 -0.164062 -0.832031 -0.609375 -1.285156 c -0.886719 -0.90625 -2.503906 -1.628906 -5.117187 -2.289063 c -0.46875 -0.121093 -0.894532 -0.25 -0.945313 -0.300781 c -0.097656 -0.089844 -0.125 -0.3125 -0.042969 -0.457031 c 0.101563 -0.191407 0.28125 -0.214844 1.140625 -0.128907 c 5.253907 0.53125 8.96875 1.632813 10.492188 3.109376 c 0.515625 0.5 0.699219 0.902343 0.667969 1.441406 c -0.023438 0.433594 -0.167969 0.722656 -0.578126 1.15625 c -1.421874 1.507812 -5.042968 2.625 -10.335937 3.183594 c -1.089844 0.113281 -1.082031 0.113281 -1.214844 0.042968 z m 0 0"/>
        <path d="m 64.703125 85.496094 c -0.082031 -0.007813 -0.46875 -0.050782 -0.863281 -0.089844 c -4.800782 -0.503906 -8.429688 -1.59375 -9.980469 -2.996094 c -0.5 -0.457031 -0.800781 -1.085937 -0.734375 -1.554687 c 0.230469 -1.695313 3.367188 -3.171875 8.425781 -3.964844 c 0.761719 -0.117187 2.546875 -0.335937 3.25 -0.394531 c 0.386719 -0.035156 0.542969 0.019531 0.65625 0.222656 c 0.089844 0.15625 0.042969 0.367188 -0.097656 0.441406 c -0.058594 0.03125 -0.53125 0.167969 -1.046875 0.296875 c -2.441406 0.628907 -4.160156 1.410157 -4.984375 2.269531 c -0.167969 0.175782 -0.363281 0.4375 -0.445313 0.582032 c -0.121093 0.234375 -0.136718 0.328125 -0.136718 0.691406 c 0 0.367188 0.015625 0.453125 0.136718 0.6875 c 0.195313 0.363281 0.664063 0.84375 1.148438 1.164062 c 0.921875 0.613282 2.535156 1.246094 4.300781 1.691407 c 0.449219 0.109375 0.875 0.226562 0.949219 0.253906 c 0.40625 0.160156 0.25 0.675781 -0.210938 0.707031 c -0.121093 0.007813 -0.285156 0.007813 -0.367187 -0.007812 z m 0 0"/>
        <path d="m 80.574219 93.492188 c -0.144531 -0.179688 -0.179688 -0.503907 -0.085938 -0.777344 c 0.074219 -0.214844 0.277344 -0.28125 1.601563 -0.546875 c 8.960937 -1.769531 15.160156 -5.566407 16.191406 -9.914063 c 0.148438 -0.625 0.148438 -1.886718 0 -2.507812 c -1.03125 -4.351563 -7.226562 -8.144532 -16.191406 -9.917969 c -1.324219 -0.261719 -1.527344 -0.328125 -1.601563 -0.539063 c -0.09375 -0.273437 -0.058593 -0.605468 0.078125 -0.777343 c 0.160156 -0.199219 0.363282 -0.199219 1.546875 -0.042969 c 6.066407 0.824219 11.179688 2.289062 15.023438 4.308594 c 1.890625 0.984375 3.484375 2.121094 4.554687 3.246094 c 1.585938 1.65625 2.308594 3.21875 2.308594 4.976562 c 0 1.003906 -0.210938 1.832031 -0.71875 2.847656 c -0.730469 1.445313 -2.460938 3.160156 -4.492188 4.441406 c -2.328124 1.472657 -5.707031 2.859376 -9.265624 3.796876 c -2.492188 0.660156 -6.394532 1.386718 -8.226563 1.53125 c -0.554687 0.046874 -0.597656 0.039062 -0.722656 -0.125 z m 0 0"/>
        <path d="m 72.007812 87.058594 l -4.507812 7.816406 c -0.003906 0.011719 -0.015625 0.019531 -0.019531 0.035156 l -0.003907 0.003906 c -0.40625 0.75 -0.621093 1.59375 -0.621093 2.453126 c 0 2.847656 2.304687 5.15625 5.152343 5.15625 c 2.84375 0 5.152344 -2.308594 5.152344 -5.15625 c 0 -0.859376 -0.214844 -1.703126 -0.632812 -2.457032 h 0.007812 z m 0 0"/>
        <path d="m 72.007812 74.9375 l -4.507812 -7.816406 c -0.003906 -0.007813 -0.015625 -0.019532 -0.019531 -0.03125 l -0.003907 -0.003906 c -0.40625 -0.753907 -0.621093 -1.597657 -0.621093 -2.457032 c 0 -2.84375 2.304687 -5.152344 5.152343 -5.152344 c 2.84375 0 5.152344 2.308594 5.152344 5.152344 c 0 0.859375 -0.214844 1.703125 -0.632812 2.457032 h 0.007812 z m 0 0"/>
        <path d="m 63.429688 93.507812 c 0.144531 -0.183593 0.179687 -0.503906 0.082031 -0.78125 c -0.070313 -0.210937 -0.273438 -0.28125 -1.597657 -0.542968 c -8.964843 -1.769532 -15.164062 -5.566406 -16.195312 -9.917969 c -0.148438 -0.621094 -0.148438 -1.882813 0 -2.507813 c 1.035156 -4.351562 7.230469 -8.140624 16.195312 -9.914062 c 1.324219 -0.261719 1.527344 -0.332031 1.597657 -0.542969 c 0.09375 -0.273437 0.0625 -0.601562 -0.078125 -0.773437 c -0.160156 -0.199219 -0.363282 -0.203125 -1.542969 -0.042969 c -6.070313 0.824219 -11.183594 2.289063 -15.027344 4.304687 c -1.890625 0.988282 -3.484375 2.128907 -4.554687 3.25 c -1.585938 1.65625 -2.308594 3.21875 -2.308594 4.972657 c 0 1.007812 0.210938 1.832031 0.722656 2.851562 c 0.730469 1.445313 2.457032 3.160157 4.492188 4.441407 c 2.324218 1.472656 5.707031 2.855468 9.265625 3.796874 c 2.488281 0.660157 6.390625 1.382813 8.222656 1.53125 c 0.554687 0.042969 0.597656 0.035157 0.726563 -0.125 z m 0 0"/>
        <path d="m 75.554688 81 c 0 1.964844 -1.589844 3.554688 -3.554688 3.554688 s -3.554688 -1.589844 -3.554688 -3.554688 s 1.589844 -3.554688 3.554688 -3.554688 s 3.554688 1.589844 3.554688 3.554688 z m 0 0"/>
    </g>
    <g fill="#f6f5f4">
        <path d="m 70.738281 68.472656 c -0.234375 -0.128906 -0.304687 -0.445312 -0.128906 -0.601562 c 0.050781 -0.050782 0.480469 -0.179688 0.945313 -0.296875 c 2.59375 -0.652344 4.230468 -1.386719 5.117187 -2.289063 c 0.445313 -0.457031 0.609375 -0.804687 0.609375 -1.285156 c 0 -0.484375 -0.164062 -0.832031 -0.609375 -1.285156 c -0.886719 -0.90625 -2.503906 -1.628906 -5.117187 -2.289063 c -0.46875 -0.121093 -0.894532 -0.25 -0.945313 -0.300781 c -0.097656 -0.089844 -0.125 -0.3125 -0.042969 -0.457031 c 0.101563 -0.191407 0.28125 -0.214844 1.140625 -0.128907 c 5.253907 0.53125 8.96875 1.632813 10.492188 3.109376 c 0.515625 0.5 0.699219 0.902343 0.667969 1.441406 c -0.023438 0.429687 -0.167969 0.722656 -0.578126 1.15625 c -1.421874 1.507812 -5.042968 2.625 -10.335937 3.183594 c -1.089844 0.113281 -1.082031 0.113281 -1.214844 0.042968 z m 0 0"/>
        <path d="m 56.703125 68.496094 c -0.082031 -0.007813 -0.46875 -0.050782 -0.863281 -0.09375 c -4.800782 -0.5 -8.429688 -1.589844 -9.980469 -2.996094 c -0.5 -0.453125 -0.800781 -1.082031 -0.734375 -1.550781 c 0.230469 -1.695313 3.367188 -3.171875 8.425781 -3.964844 c 0.761719 -0.117187 2.546875 -0.335937 3.25 -0.394531 c 0.386719 -0.035156 0.542969 0.019531 0.65625 0.222656 c 0.089844 0.15625 0.042969 0.367188 -0.097656 0.441406 c -0.058594 0.03125 -0.53125 0.167969 -1.046875 0.296875 c -2.441406 0.628907 -4.160156 1.410157 -4.984375 2.269531 c -0.167969 0.171876 -0.363281 0.4375 -0.445313 0.582032 c -0.121093 0.234375 -0.136718 0.324218 -0.136718 0.691406 s 0.015625 0.453125 0.136718 0.6875 c 0.195313 0.363281 0.664063 0.839844 1.148438 1.164062 c 0.921875 0.613282 2.535156 1.246094 4.300781 1.691407 c 0.449219 0.109375 0.875 0.226562 0.949219 0.253906 c 0.40625 0.160156 0.25 0.675781 -0.210938 0.707031 c -0.121093 0.007813 -0.285156 0.007813 -0.367187 -0.007812 z m 0 0"/>
        <path d="m 72.574219 76.492188 c -0.144531 -0.179688 -0.179688 -0.503907 -0.085938 -0.78125 c 0.074219 -0.210938 0.277344 -0.277344 1.601563 -0.542969 c 8.960937 -1.769531 15.160156 -5.566407 16.191406 -9.914063 c 0.148438 -0.625 0.148438 -1.886718 0 -2.507812 c -1.03125 -4.351563 -7.226562 -8.144532 -16.191406 -9.917969 c -1.324219 -0.261719 -1.527344 -0.328125 -1.601563 -0.539063 c -0.09375 -0.273437 -0.058593 -0.605468 0.078125 -0.777343 c 0.160156 -0.199219 0.363282 -0.203125 1.546875 -0.042969 c 6.066407 0.824219 11.179688 2.289062 15.023438 4.304688 c 1.890625 0.988281 3.484375 2.125 4.554687 3.25 c 1.585938 1.65625 2.308594 3.21875 2.308594 4.976562 c 0 1.003906 -0.210938 1.832031 -0.71875 2.847656 c -0.730469 1.445313 -2.460938 3.160156 -4.492188 4.441406 c -2.328124 1.472657 -5.707031 2.859376 -9.265624 3.796876 c -2.492188 0.660156 -6.394532 1.386718 -8.226563 1.53125 c -0.554687 0.042968 -0.597656 0.039062 -0.722656 -0.125 z m 0 0"/>
        <path d="m 64.007812 70.058594 l -4.507812 7.816406 c -0.003906 0.007812 -0.015625 0.019531 -0.019531 0.035156 l -0.003907 0.003906 c -0.40625 0.75 -0.621093 1.59375 -0.621093 2.453126 c 0 2.847656 2.304687 5.15625 5.152343 5.15625 c 2.84375 0 5.152344 -2.308594 5.152344 -5.15625 c 0 -0.859376 -0.214844 -1.703126 -0.632812 -2.457032 h 0.007812 z m 0 0"/>
        <path d="m 64.007812 57.9375 l -4.507812 -7.816406 c -0.003906 -0.007813 -0.015625 -0.019532 -0.019531 -0.03125 l -0.003907 -0.003906 c -0.40625 -0.753907 -0.621093 -1.597657 -0.621093 -2.457032 c 0 -2.84375 2.304687 -5.152344 5.152343 -5.152344 c 2.84375 0 5.152344 2.308594 5.152344 5.152344 c 0 0.859375 -0.214844 1.703125 -0.632812 2.457032 h 0.007812 z m 0 0"/>
        <path d="m 55.429688 76.507812 c 0.144531 -0.183593 0.179687 -0.503906 0.082031 -0.78125 c -0.070313 -0.210937 -0.273438 -0.28125 -1.597657 -0.542968 c -8.964843 -1.769532 -15.164062 -5.566406 -16.195312 -9.917969 c -0.148438 -0.625 -0.148438 -1.882813 0 -2.507813 c 1.035156 -4.351562 7.230469 -8.144531 16.195312 -9.917968 c 1.324219 -0.257813 1.527344 -0.328125 1.597657 -0.539063 c 0.09375 -0.273437 0.0625 -0.601562 -0.078125 -0.773437 c -0.160156 -0.199219 -0.363282 -0.203125 -1.542969 -0.042969 c -6.070313 0.824219 -11.183594 2.289063 -15.027344 4.304687 c -1.890625 0.988282 -3.484375 2.125 -4.554687 3.25 c -1.585938 1.65625 -2.308594 3.21875 -2.308594 4.972657 c 0 1.007812 0.210938 1.832031 0.722656 2.851562 c 0.730469 1.445313 2.457032 3.160157 4.492188 4.441407 c 2.324218 1.472656 5.707031 2.855468 9.265625 3.796874 c 2.488281 0.660157 6.390625 1.382813 8.222656 1.527344 c 0.554687 0.046875 0.597656 0.039063 0.726563 -0.121094 z m 0 0"/>
        <path d="m 67.554688 64 c 0 1.964844 -1.589844 3.554688 -3.554688 3.554688 s -3.554688 -1.589844 -3.554688 -3.554688 s 1.589844 -3.554688 3.554688 -3.554688 s 3.554688 1.589844 3.554688 3.554688 z m 0 0"/>
    </g>
</svg>
