<?xml version="1.0" encoding="UTF-8"?>
<svg height="128px" viewBox="0 0 128 128" width="128px" xmlns="http://www.w3.org/2000/svg" xmlns:xlink="http://www.w3.org/1999/xlink">
    <linearGradient id="a" gradientUnits="userSpaceOnUse" x1="8.000003" x2="120.000003" y1="116.000001" y2="116.000001">
        <stop offset="0" stop-color="#77767b"/>
        <stop offset="0.036" stop-color="#c0bfbc"/>
        <stop offset="0.071" stop-color="#9a9996"/>
        <stop offset="0.929" stop-color="#9a9996"/>
        <stop offset="0.964" stop-color="#c0bfbc"/>
        <stop offset="1" stop-color="#77767b"/>
    </linearGradient>
    <linearGradient id="b" gradientTransform="matrix(-1 0 0 1 6.143999 -113.311999)" gradientUnits="userSpaceOnUse" x1="-105.856003" x2="-9.856001" y1="149.311996" y2="217.311996">
        <stop offset="0" stop-color="#62a0ea"/>
        <stop offset="1" stop-color="#1c71d8"/>
    </linearGradient>
    <path d="m 16 40 h 96 c 4.417969 0 8 3.582031 8 8 v 60 c 0 4.417969 -3.582031 8 -8 8 h -96 c -4.417969 0 -8 -3.582031 -8 -8 v -60 c 0 -4.417969 3.582031 -8 8 -8 z m 0 0" fill="url(#a)"/>
    <path d="m 16 28 h 96 c 4.417969 0 8 3.582031 8 8 v 68 c 0 4.417969 -3.582031 8 -8 8 h -96 c -4.417969 0 -8 -3.582031 -8 -8 v -68 c 0 -4.417969 3.582031 -8 8 -8 z m 0 0" fill="#deddda"/>
    <path d="m 16 32 h 96 c 2.210938 0 4 1.789062 4 4 v 68 c 0 2.210938 -1.789062 4 -4 4 h -96 c -2.210938 0 -4 -1.789062 -4 -4 v -68 c 0 -2.210938 1.789062 -4 4 -4 z m 0 0" fill="#241f31"/>
    <path d="m 112 36 h -96 v 68 h 96 z m 0 0" fill="url(#b)"/>
    <path d="m 80 62 c 0 8.835938 -7.164062 16 -16 16 s -16 -7.164062 -16 -16 s 7.164062 -16 16 -16 s 16 7.164062 16 16 z m 0 0" fill="#1a5fb4"/>
    <path d="m 80 60 c 0 8.835938 -7.164062 16 -16 16 s -16 -7.164062 -16 -16 s 7.164062 -16 16 -16 s 16 7.164062 16 16 z m 0 0" fill="#99c1f1"/>
    <path d="m 64 50.667969 c -2.207031 0 -4 1.792969 -4 4 s 1.792969 4 4 4 s 4 -1.792969 4 -4 s -1.792969 -4 -4 -4 z m -2 9.332031 c -3.324219 0 -6 2.679688 -6 6 v 2 c 0 1.335938 1.332031 1.335938 1.332031 1.335938 h 13.335938 s 1.332031 0 1.332031 -1.335938 v -2 c 0 -3.320312 -2.675781 -6 -6 -6 z m 0 0" fill="#1a5fb4"/>
    <path d="m 42 88 h 44 c 1.105469 0 2 0.894531 2 2 v 4 c 0 1.105469 -0.894531 2 -2 2 h -44 c -1.105469 0 -2 -0.894531 -2 -2 v -4 c 0 -1.105469 0.894531 -2 2 -2 z m 0 0" fill="#99c1f1"/>
</svg>
