<?xml version="1.0" encoding="UTF-8"?>
<svg height="128px" viewBox="0 0 128 128" width="128px" xmlns="http://www.w3.org/2000/svg" xmlns:xlink="http://www.w3.org/1999/xlink">
    <filter id="a" height="100%" width="100%" x="0%" y="0%">
        <feColorMatrix in="SourceGraphic" type="matrix" values="0 0 0 0 1 0 0 0 0 1 0 0 0 0 1 0 0 0 1 0"/>
    </filter>
    <mask id="b">
        <g filter="url(#a)">
            <rect fill-opacity="0.2" height="128" width="128"/>
        </g>
    </mask>
    <clipPath id="c">
        <rect height="152" width="192"/>
    </clipPath>
    <path d="m 124 66 c 0 33.136719 -26.863281 60 -60 60 s -60 -26.863281 -60 -60 s 26.863281 -60 60 -60 s 60 26.863281 60 60 z m 0 0" fill="#d5d3cf"/>
    <path d="m 64 8 c 30.929688 0 56 25.070312 56 56 v 2 c 0 30.929688 -25.070312 56 -56 56 s -56 -25.070312 -56 -56 v -2 c 0 -30.929688 25.070312 -56 56 -56 z m 0 0" fill="#d5d3cf"/>
    <path d="m 124 64 c 0 33.136719 -26.863281 60 -60 60 s -60 -26.863281 -60 -60 s 26.863281 -60 60 -60 s 60 26.863281 60 60 z m 0 0" fill="#f6f5f4"/>
    <path d="m 118 66 c 0 29.824219 -24.175781 54 -54 54 s -54 -24.175781 -54 -54 s 24.175781 -54 54 -54 s 54 24.175781 54 54 z m 0 0" fill="#62a0ea"/>
    <path d="m 118 64 c 0 29.824219 -24.175781 54 -54 54 s -54 -24.175781 -54 -54 s 24.175781 -54 54 -54 s 54 24.175781 54 54 z m 0 0" fill="#99c1f1"/>
    <path d="m 102 66 c 0 20.988281 -17.011719 38 -38 38 s -38 -17.011719 -38 -38 s 17.011719 -38 38 -38 s 38 17.011719 38 38 z m 0 0" fill="#3584e4"/>
    <path d="m 102 64 c 0 20.988281 -17.011719 38 -38 38 s -38 -17.011719 -38 -38 s 17.011719 -38 38 -38 s 38 17.011719 38 38 z m 0 0" fill="#62a0ea"/>
    <path d="m 86 66 c 0 12.148438 -9.851562 22 -22 22 s -22 -9.851562 -22 -22 s 9.851562 -22 22 -22 s 22 9.851562 22 22 z m 0 0" fill="#1c71d8"/>
    <path d="m 86 64 c 0 12.148438 -9.851562 22 -22 22 s -22 -9.851562 -22 -22 s 9.851562 -22 22 -22 s 22 9.851562 22 22 z m 0 0" fill="#3584e4"/>
    <g clip-path="url(#c)" mask="url(#b)" transform="matrix(1 0 0 1 -8 -16)">
        <path d="m 64.976562 73.761719 c -0.3125 0.03125 -0.601562 0.171875 -0.828124 0.386719 l -2.675782 2.695312 l -0.074218 0.054688 l 0.011718 0.011718 c -0.257812 0.257813 -0.410156 0.597656 -0.410156 0.964844 c 0 0.761719 0.613281 1.375 1.375 1.375 c 0.367188 0 0.710938 -0.140625 0.976562 -0.398438 l 0.054688 -0.074218 l 1.71875 -1.707032 l 1.71875 1.707032 l 0.054688 0.074218 c 0.269531 0.257813 0.613281 0.398438 0.976562 0.398438 c 0.761719 0 1.375 -0.613281 1.375 -1.375 c 0 -0.367188 -0.140625 -0.710938 -0.398438 -0.976562 c -0.019531 -0.011719 -0.03125 -0.035157 -0.050781 -0.042969 l -2.699219 -2.707031 c -0.300781 -0.289063 -0.71875 -0.429688 -1.125 -0.386719 z m 13.75 0 c -0.3125 0.03125 -0.601562 0.171875 -0.828124 0.386719 l -2.675782 2.695312 l -0.074218 0.054688 l 0.011718 0.011718 c -0.257812 0.257813 -0.410156 0.597656 -0.410156 0.964844 c 0 0.761719 0.613281 1.375 1.375 1.375 c 0.367188 0 0.710938 -0.140625 0.976562 -0.398438 l 0.054688 -0.074218 l 1.71875 -1.707032 l 1.71875 1.707032 l 0.054688 0.074218 c 0.269531 0.257813 0.613281 0.398438 0.976562 0.398438 c 0.761719 0 1.375 -0.613281 1.375 -1.375 c 0 -0.367188 -0.140625 -0.710938 -0.398438 -0.976562 c -0.019531 -0.011719 -0.03125 -0.035157 -0.050781 -0.042969 l -2.699219 -2.707031 c -0.300781 -0.292969 -0.71875 -0.429688 -1.125 -0.386719 z m -17.726562 10.988281 c 1.644531 4.929688 6.058594 8.238281 11 8.25 c 4.941406 -0.011719 9.355469 -3.320312 11 -8.25 z m 0 0"/>
    </g>
    <path d="m 56.976562 55.761719 c -0.3125 0.03125 -0.601562 0.171875 -0.828124 0.386719 l -2.675782 2.695312 l -0.074218 0.054688 l 0.011718 0.011718 c -0.257812 0.257813 -0.410156 0.597656 -0.410156 0.964844 c 0 0.761719 0.613281 1.375 1.375 1.375 c 0.367188 0 0.710938 -0.140625 0.976562 -0.398438 l 0.054688 -0.074218 l 1.71875 -1.707032 l 1.71875 1.707032 l 0.054688 0.074218 c 0.269531 0.257813 0.613281 0.398438 0.976562 0.398438 c 0.761719 0 1.375 -0.613281 1.375 -1.375 c 0 -0.367188 -0.140625 -0.710938 -0.398438 -0.976562 c -0.019531 -0.011719 -0.03125 -0.035157 -0.050781 -0.042969 l -2.699219 -2.707031 c -0.300781 -0.289063 -0.71875 -0.429688 -1.125 -0.386719 z m 13.75 0 c -0.3125 0.03125 -0.601562 0.171875 -0.828124 0.386719 l -2.675782 2.695312 l -0.074218 0.054688 l 0.011718 0.011718 c -0.257812 0.257813 -0.410156 0.597656 -0.410156 0.964844 c 0 0.761719 0.613281 1.375 1.375 1.375 c 0.367188 0 0.710938 -0.140625 0.976562 -0.398438 l 0.054688 -0.074218 l 1.71875 -1.707032 l 1.71875 1.707032 l 0.054688 0.074218 c 0.269531 0.257813 0.613281 0.398438 0.976562 0.398438 c 0.761719 0 1.375 -0.613281 1.375 -1.375 c 0 -0.367188 -0.140625 -0.710938 -0.398438 -0.976562 c -0.019531 -0.011719 -0.03125 -0.035157 -0.050781 -0.042969 l -2.699219 -2.707031 c -0.300781 -0.292969 -0.71875 -0.429688 -1.125 -0.386719 z m -17.726562 10.988281 c 1.644531 4.929688 6.058594 8.238281 11 8.25 c 4.941406 -0.011719 9.355469 -3.320312 11 -8.25 z m 0 0" fill="#f6f5f4"/>
</svg>
