<?xml version="1.0" encoding="UTF-8"?>
<svg height="128px" viewBox="0 0 128 128" width="128px" xmlns="http://www.w3.org/2000/svg" xmlns:xlink="http://www.w3.org/1999/xlink">
    <linearGradient id="a" gradientTransform="matrix(0.5 0 0 1 32.000355 -176.000258)" gradientUnits="userSpaceOnUse" x1="42" x2="42" y1="290" y2="274">
        <stop offset="0" stop-color="#c0bfbc"/>
        <stop offset="1" stop-color="#77767b"/>
    </linearGradient>
    <linearGradient id="b" gradientUnits="userSpaceOnUse" x1="76.000351" x2="76.000351" y1="111.999742" y2="115.999742">
        <stop offset="0" stop-color="#f6f5f4"/>
        <stop offset="1" stop-color="#deddda"/>
    </linearGradient>
    <linearGradient id="c" gradientUnits="userSpaceOnUse" x1="8.0003525" x2="120.0003525" y1="95.999733" y2="95.999733">
        <stop offset="0" stop-color="#77767b"/>
        <stop offset="0.0357143" stop-color="#c0bfbc"/>
        <stop offset="0.0713653" stop-color="#9a9996"/>
        <stop offset="0.928571" stop-color="#9a9996"/>
        <stop offset="0.964286" stop-color="#c0bfbc"/>
        <stop offset="1" stop-color="#77767b"/>
    </linearGradient>
    <linearGradient id="d" gradientUnits="userSpaceOnUse" x1="64.000351" x2="110.745415" y1="84.159607" y2="15.83992">
        <stop offset="0" stop-color="#c061cb"/>
        <stop offset="1" stop-color="#1a5fb4"/>
    </linearGradient>
    <linearGradient id="e" gradientUnits="userSpaceOnUse" x1="17.255297" x2="64.000351" y1="84.159607" y2="15.83992">
        <stop offset="0" stop-color="#f6d32d"/>
        <stop offset="1" stop-color="#ff7800"/>
    </linearGradient>
    <linearGradient id="f" gradientUnits="userSpaceOnUse">
        <stop offset="0" stop-color="#9a9996"/>
        <stop offset="0.5" stop-color="#f6f5f4"/>
        <stop offset="1" stop-color="#c0bfbc"/>
    </linearGradient>
    <linearGradient id="g" gradientTransform="matrix(0.610239 1.056965 -1.056965 0.610239 459.944061 167.177643)" x1="-214.840408" x2="-214.840408" xlink:href="#f" y1="218.670227" y2="220.820175"/>
    <linearGradient id="h" gradientTransform="matrix(1.056965 -0.610239 0.610239 1.056965 459.944061 167.177643)" x1="-221.315063" x2="-221.315063" xlink:href="#f" y1="-220.555252" y2="-218.405304"/>
    <linearGradient id="i" gradientTransform="matrix(-1.056965 0.610239 -0.610239 -1.056965 418.198374 244.195266)" gradientUnits="userSpaceOnUse" x1="161.361969" x2="196.694656" y1="257.028168" y2="257.028168">
        <stop offset="0" stop-color="#f5c211"/>
        <stop offset="0.43" stop-color="#ff7800"/>
        <stop offset="0.57" stop-color="#c061cb"/>
        <stop offset="1" stop-color="#1a5fb4"/>
    </linearGradient>
    <linearGradient id="j" gradientTransform="matrix(0.610239 1.056965 -1.056965 0.610239 459.944061 167.177643)" x1="-206.835159" x2="-206.835159" xlink:href="#f" y1="239.127426" y2="241.277374"/>
    <linearGradient id="k" gradientTransform="matrix(1.056965 -0.610239 0.610239 1.056965 459.944061 167.177643)" x1="-229.973801" x2="-229.973801" xlink:href="#f" y1="-209.125549" y2="-211.275497"/>
    <linearGradient id="l" gradientTransform="matrix(1.056965 -0.610239 0.610239 1.056965 -275.467274 -80.644316)" gradientUnits="userSpaceOnUse" x1="177.470078" x2="182.736496" y1="282.933533" y2="282.933533">
        <stop offset="0" stop-color="#ff7800"/>
        <stop offset="0.5" stop-color="#ffa348"/>
        <stop offset="1" stop-color="#e66100"/>
    </linearGradient>
    <path d="m 49 88 h 30 v 28 h -30 z m 0 0" fill="url(#a)"/>
    <path d="m 42 112 h 44.0625 c 1.9375 0 3.9375 2 3.9375 4 h -52 c 0 -2 2 -4 4 -4 z m 0 0" fill="url(#b)"/>
    <path d="m 16 20 h 96 c 4.417969 0 8 3.582031 8 8 v 60 c 0 4.417969 -3.582031 8 -8 8 h -96 c -4.417969 0 -8 -3.582031 -8 -8 v -60 c 0 -4.417969 3.582031 -8 8 -8 z m 0 0" fill="url(#c)"/>
    <path d="m 16 8 h 96 c 4.417969 0 8 3.582031 8 8 v 68 c 0 4.417969 -3.582031 8 -8 8 h -96 c -4.417969 0 -8 -3.582031 -8 -8 v -68 c 0 -4.417969 3.582031 -8 8 -8 z m 0 0" fill="#deddda"/>
    <path d="m 16 12 h 96 c 2.210938 0 4 1.789062 4 4 v 68 c 0 2.207031 -1.789062 4 -4 4 h -96 c -2.207031 0 -4 -1.792969 -4 -4 v -68 c 0 -2.210938 1.792969 -4 4 -4 z m 0 0" fill="#241f31"/>
    <path d="m 64 15.839844 h 46.746094 v 68.320312 h -46.746094 z m 0 0" fill="url(#d)"/>
    <path d="m 17.253906 15.839844 h 46.746094 v 68.320312 h -46.746094 z m 0 0" fill="url(#e)"/>
    <path d="m 87.402344 37.394531 c -6.09375 1.050781 -10.542969 6.335938 -10.542969 12.511719 c 0 7.015625 5.683594 12.699219 12.695313 12.699219 c 3.066406 -0.007813 6.023437 -1.121094 8.332031 -3.140625 c -7.035157 -1.8125 -11.953125 -8.15625 -11.960938 -15.421875 c 0.007813 -2.296875 0.511719 -4.5625 1.476563 -6.648438 z m 0 0" fill="#ffffff"/>
    <path d="m 39.722656 35.488281 c -0.503906 0 -0.910156 0.40625 -0.910156 0.910157 v 3.625 c 0 0.503906 0.40625 0.90625 0.910156 0.90625 h 1.8125 c 0.503906 0 0.90625 -0.402344 0.90625 -0.90625 v -3.625 c 0 -0.503907 -0.402344 -0.910157 -0.90625 -0.910157 z m -8.070312 3.347657 c -0.234375 0 -0.460938 0.082031 -0.636719 0.261718 l -1.292969 1.289063 c -0.351562 0.351562 -0.351562 0.921875 0 1.28125 l 2.574219 2.566406 c 0.351563 0.351563 0.921875 0.351563 1.273437 0 l 1.285157 -1.285156 c 0.359375 -0.359375 0.359375 -0.925781 0 -1.28125 l -2.558594 -2.570313 c -0.183594 -0.179687 -0.410156 -0.261718 -0.644531 -0.261718 z m 17.953125 0 c -0.234375 0 -0.460938 0.082031 -0.644531 0.261718 l -2.558594 2.570313 c -0.363282 0.355469 -0.363282 0.921875 0 1.28125 l 1.28125 1.285156 c 0.355468 0.351563 0.921875 0.351563 1.277344 0 l 2.570312 -2.566406 c 0.355469 -0.359375 0.355469 -0.929688 0 -1.28125 l -1.289062 -1.289063 c -0.175782 -0.179687 -0.402344 -0.261718 -0.636719 -0.261718 z m -8.976563 3.921874 c -3.984375 0 -7.257812 3.273438 -7.257812 7.257813 c 0 3.972656 3.273437 7.253906 7.257812 7.253906 c 3.980469 0 7.253906 -3.28125 7.253906 -7.253906 c 0 -3.984375 -3.273437 -7.257813 -7.253906 -7.257813 z m -13.605468 5.429688 c -0.5 0 -0.90625 0.402344 -0.90625 0.90625 v 1.8125 c 0 0.503906 0.40625 0.90625 0.90625 0.90625 h 3.628906 c 0.503906 0 0.90625 -0.402344 0.90625 -0.90625 v -1.8125 c 0 -0.503906 -0.402344 -0.90625 -0.90625 -0.90625 z m 23.578124 0 c -0.5 0 -0.90625 0.402344 -0.90625 0.90625 v 1.8125 c 0 0.503906 0.40625 0.90625 0.90625 0.90625 h 3.628907 c 0.503906 0 0.90625 -0.402344 0.90625 -0.90625 v -1.8125 c 0 -0.503906 -0.402344 -0.90625 -0.90625 -0.90625 z m -17.667968 7.316406 c -0.234375 0 -0.460938 0.085938 -0.636719 0.261719 l -2.574219 2.566406 c -0.351562 0.359375 -0.351562 0.925781 0 1.28125 l 1.292969 1.289063 c 0.351563 0.355468 0.917969 0.355468 1.28125 0 l 2.558594 -2.570313 c 0.359375 -0.355469 0.359375 -0.921875 0 -1.28125 l -1.285157 -1.285156 c -0.175781 -0.175781 -0.402343 -0.261719 -0.636718 -0.261719 z m 15.386718 0 c -0.230468 0 -0.457031 0.085938 -0.636718 0.261719 l -1.28125 1.285156 c -0.363282 0.359375 -0.363282 0.925781 0 1.28125 l 2.558594 2.570313 c 0.359374 0.355468 0.925781 0.355468 1.28125 0 l 1.289062 -1.289063 c 0.355469 -0.355469 0.355469 -0.921875 0 -1.28125 l -2.570312 -2.566406 c -0.179688 -0.175781 -0.40625 -0.261719 -0.640626 -0.261719 z m -8.597656 3.5625 c -0.503906 0 -0.910156 0.40625 -0.910156 0.910156 v 3.625 c 0 0.503907 0.40625 0.90625 0.910156 0.90625 h 1.8125 c 0.503906 0 0.90625 -0.402343 0.90625 -0.90625 v -3.625 c 0 -0.503906 -0.402344 -0.910156 -0.90625 -0.910156 z m 0 0" fill="#ffffff"/>
    <path d="m 94.882812 68.636719 l 5.660157 9.808593 c 0.363281 0.625 0.148437 1.429688 -0.476563 1.792969 c -0.628906 0.359375 -1.433594 0.144531 -1.792968 -0.480469 l -5.664063 -9.808593 c -0.363281 -0.628907 -0.148437 -1.429688 0.480469 -1.792969 s 1.429687 -0.148438 1.792968 0.480469 z m 0 0" fill="url(#g)"/>
    <path d="m 89.769531 70.070312 l 3.320313 -1.914062 c 0.628906 -0.363281 1.429687 -0.148438 1.792968 0.480469 c 0.359376 0.625 0.144532 1.429687 -0.480468 1.792969 l -3.320313 1.914062 c -0.625 0.363281 -1.429687 0.148438 -1.792969 -0.480469 c -0.359374 -0.628906 -0.144531 -1.429687 0.480469 -1.792969 z m 0 0" fill="url(#h)"/>
    <path d="m 52.285156 91.714844 l 0.589844 -0.34375 c 0.28125 -0.160156 0.640625 -0.0625 0.804688 0.21875 l 0.722656 1.25 c 0.164062 0.28125 0.066406 0.644531 -0.214844 0.804687 l -0.589844 0.34375 c -0.28125 0.160157 -0.644531 0.066407 -0.804687 -0.21875 l -0.722657 -1.25 c -0.164062 -0.28125 -0.066406 -0.644531 0.214844 -0.804687 z m 0 0" fill="#9a9996"/>
    <path d="m 91.75 78.742188 l -32.066406 18.515624 c -1.457032 0.839844 -3.320313 0.339844 -4.164063 -1.117187 l -4.140625 -7.167969 c -0.839844 -1.460937 -0.339844 -3.324218 1.117188 -4.164062 l 32.066406 -18.515625 c 1.457031 -0.839844 3.320312 -0.339844 4.164062 1.117187 l 4.140626 7.171875 c 0.839843 1.457031 0.339843 3.320313 -1.117188 4.160157 z m 0 0" fill="url(#i)"/>
    <path d="m 78.921875 90.929688 l 4.109375 7.113281 c 0.359375 0.625 0.144531 1.429687 -0.480469 1.792969 c -0.628906 0.359374 -1.429687 0.144531 -1.792969 -0.480469 l -4.109374 -7.117188 c -0.359376 -0.625 -0.144532 -1.429687 0.480468 -1.789062 c 0.628906 -0.363281 1.429688 -0.148438 1.792969 0.480469 z m 0 0" fill="url(#j)"/>
    <path d="m 77.128906 90.449219 l 21.625 -12.484375 c 0.625 -0.363282 1.429688 -0.148438 1.789063 0.480468 c 0.363281 0.625 0.148437 1.429688 -0.476563 1.792969 l -21.625 12.480469 c -0.628906 0.363281 -1.429687 0.148438 -1.792968 -0.480469 c -0.359376 -0.625 -0.144532 -1.429687 0.480468 -1.789062 z m 0 0" fill="url(#k)"/>
    <path d="m 80.117188 98.816406 l 2.765624 -1.597656 c 0.773438 -0.445312 1.761719 -0.179688 2.210938 0.59375 l 10.484375 18.164062 c 0.449219 0.773438 0.183594 1.761719 -0.589844 2.210938 l -2.765625 1.59375 c -0.773437 0.449219 -1.761718 0.183594 -2.210937 -0.589844 l -10.484375 -18.167968 c -0.449219 -0.773438 -0.183594 -1.761719 0.589844 -2.207032 z m 0 0" fill="url(#l)"/>
</svg>
