<?xml version="1.0" encoding="UTF-8" standalone="no"?>
<!-- Created with Inkscape (http://www.inkscape.org/) -->

<svg
   inkscape:export-ydpi="96"
   inkscape:export-xdpi="96"
   inkscape:export-filename="Template.png"
   width="128"
   height="128"
   id="svg11300"
   sodipodi:version="0.32"
   inkscape:version="1.2 (dc2aedaf03, 2022-05-15)"
   sodipodi:docname="Wallpaper4.svg"
   inkscape:output_extension="org.inkscape.output.svg.inkscape"
   version="1.0"
   style="display:inline;enable-background:new"
   viewBox="0 0 128 128"
   xml:space="preserve"
   xmlns:inkscape="http://www.inkscape.org/namespaces/inkscape"
   xmlns:sodipodi="http://sodipodi.sourceforge.net/DTD/sodipodi-0.dtd"
   xmlns:xlink="http://www.w3.org/1999/xlink"
   xmlns="http://www.w3.org/2000/svg"
   xmlns:svg="http://www.w3.org/2000/svg"
   xmlns:rdf="http://www.w3.org/1999/02/22-rdf-syntax-ns#"
   xmlns:cc="http://creativecommons.org/ns#"
   xmlns:dc="http://purl.org/dc/elements/1.1/"><title
     id="title4162">Adwaita Icon Template</title><defs
     id="defs3"><rect
   x="71.695913"
   y="-136.77818"
   width="86.062515"
   height="99.513574"
   id="rect24572" /><linearGradient
   y2="236"
   x2="96"
   y1="236"
   x1="32"
   gradientTransform="translate(604.81684,170.58641)"
   gradientUnits="userSpaceOnUse"
   id="linearGradient1099"
   xlink:href="#linearGradient1036" /><linearGradient
   id="linearGradient1036"><stop
     id="stop1032"
     offset="0"
     style="stop-color:#d5d3cf;stop-opacity:1;" /><stop
     id="stop1034"
     offset="1"
     style="stop-color:#f6f5f4;stop-opacity:1" /></linearGradient><radialGradient
   r="32"
   fy="-76"
   fx="-244"
   cy="-76"
   cx="-244"
   gradientTransform="matrix(0.88333331,0,0,0.88333331,-460.35018,463.11973)"
   gradientUnits="userSpaceOnUse"
   id="radialGradient1103"
   xlink:href="#linearGradient1069" /><linearGradient
   id="linearGradient1069"><stop
     id="stop1065"
     offset="0"
     style="stop-color:#d5d3cf;stop-opacity:1" /><stop
     id="stop1067-1"
     offset="1"
     style="stop-color:#949390;stop-opacity:1" /></linearGradient><linearGradient
   gradientUnits="userSpaceOnUse"
   y2="232"
   x2="64"
   y1="262.5"
   x1="64"
   id="linearGradient1027"
   xlink:href="#linearGradient1025"
   gradientTransform="translate(-470.5864,432.81685)" /><linearGradient
   id="linearGradient1025"><stop
     id="stop1021"
     offset="0"
     style="stop-color:#9a9996;stop-opacity:1" /><stop
     id="stop1023"
     offset="1"
     style="stop-color:#77767b;stop-opacity:1" /></linearGradient><inkscape:path-effect
   effect="spiro"
   id="path-effect35304-9"
   is_visible="true" /><clipPath
   clipPathUnits="userSpaceOnUse"
   id="clipPath1609-7"><path
     sodipodi:nodetypes="cccccc"
     inkscape:connector-curvature="0"
     id="path1611-5"
     d="m 252,116 28,-28 v -8 h -36 v 36 z"
     style="fill:#e74747;stroke:none;stroke-width:0.25px;stroke-linecap:butt;stroke-linejoin:miter;stroke-opacity:1" /></clipPath><linearGradient
   id="_Linear1"
   x1="0"
   y1="0"
   x2="1"
   y2="0"
   gradientUnits="userSpaceOnUse"
   gradientTransform="matrix(104,0,0,104,11.99973,235.99989)"><stop
     offset="0"
     style="stop-color:#c0bfbc;stop-opacity:1;"
     id="stop254" /><stop
     offset="0.05"
     style="stop-color:#f6f5f4;stop-opacity:1;"
     id="stop256" /><stop
     offset="0.1"
     style="stop-color:#deddda;stop-opacity:1;"
     id="stop258" /><stop
     offset="0.89999998"
     style="stop-color:#deddda;stop-opacity:1;"
     id="stop260" /><stop
     offset="0.94999999"
     style="stop-color:#f6f5f4;stop-opacity:1;"
     id="stop262" /><stop
     offset="1"
     style="stop-color:#c0bfbc;stop-opacity:1;"
     id="stop264" /></linearGradient><radialGradient
   id="_Radial2"
   cx="0"
   cy="0"
   r="1"
   gradientUnits="userSpaceOnUse"
   gradientTransform="matrix(0,-92,92,0,64,106)"><stop
     offset="0"
     style="stop-color:rgb(61,56,70);stop-opacity:1"
     id="stop267" /><stop
     offset="1"
     style="stop-color:rgb(36,31,49);stop-opacity:1"
     id="stop269" /></radialGradient><linearGradient
   id="SVGID_1_"
   x1="-895.96997"
   x2="-894.96997"
   y1="-475.62"
   y2="-475.62"
   gradientTransform="matrix(-47.291147,55.311171,55.311171,47.291147,-15953.05,72270.823)"
   gradientUnits="userSpaceOnUse">
		<stop
   stop-color="#251480"
   offset="0"
   id="stop77278" />
		<stop
   stop-color="#251480"
   offset=".00048203"
   id="stop77280" />
		<stop
   stop-color="#E96BC3"
   offset="1"
   id="stop77282" />
	</linearGradient><linearGradient
   id="SVGID_00000172402698039694198610000003353832082824108457_"
   x1="-895.96997"
   x2="-894.96997"
   y1="-475.62"
   y2="-475.62"
   gradientTransform="matrix(50.748157,-55.449172,-55.449172,-50.748157,19112.059,-73546.629)"
   gradientUnits="userSpaceOnUse">
		<stop
   stop-color="#FFBE00"
   offset="0"
   id="stop77287" />
		<stop
   stop-color="#FFBE00"
   offset=".00048203"
   id="stop77289" />
		<stop
   stop-color="#F39060"
   offset="1"
   id="stop77291" />
	</linearGradient><linearGradient
   id="_Linear1-2"
   x1="0"
   y1="0"
   x2="1"
   y2="0"
   gradientUnits="userSpaceOnUse"
   gradientTransform="matrix(104,0,0,104,12,64)"><stop
     offset="0"
     style="stop-color:rgb(94,92,100);stop-opacity:1"
     id="stop82914" /><stop
     offset="0.05"
     style="stop-color:rgb(192,191,188);stop-opacity:1"
     id="stop82916" /><stop
     offset="0.1"
     style="stop-color:rgb(154,153,150);stop-opacity:1"
     id="stop82918" /><stop
     offset="0.9"
     style="stop-color:rgb(154,153,150);stop-opacity:1"
     id="stop82920" /><stop
     offset="0.95"
     style="stop-color:rgb(192,191,188);stop-opacity:1"
     id="stop82922" /><stop
     offset="1"
     style="stop-color:rgb(94,92,100);stop-opacity:1"
     id="stop82924" /></linearGradient><radialGradient
   id="_Radial2-5"
   cx="0"
   cy="0"
   r="1"
   gradientUnits="userSpaceOnUse"
   gradientTransform="matrix(0,-92,92,0,64,106)"><stop
     offset="0"
     style="stop-color:rgb(61,56,70);stop-opacity:1"
     id="stop82927" /><stop
     offset="1"
     style="stop-color:rgb(36,31,49);stop-opacity:1"
     id="stop82929" /></radialGradient>
	
	
	
	
	
		<linearGradient
   id="linearGradient82683"
   x1="-895.96997"
   x2="-894.96997"
   y1="-475.62"
   y2="-475.62"
   gradientTransform="matrix(-47.291,55.311,55.311,47.291,-15953,72087)"
   gradientUnits="userSpaceOnUse">
		<stop
   stop-color="#251480"
   offset="0"
   id="stop82677" />
		<stop
   stop-color="#251480"
   offset=".00048203"
   id="stop82679" />
		<stop
   stop-color="#E96BC3"
   offset="1"
   id="stop82681" />
	</linearGradient>
	
	
		<linearGradient
   id="linearGradient82692"
   x1="-895.96997"
   x2="-894.96997"
   y1="-475.62"
   y2="-475.62"
   gradientTransform="matrix(50.748,-55.449,-55.449,-50.748,19112,-73730)"
   gradientUnits="userSpaceOnUse">
		<stop
   stop-color="#FFBE00"
   offset="0"
   id="stop82686" />
		<stop
   stop-color="#FFBE00"
   offset=".00048203"
   id="stop82688" />
		<stop
   stop-color="#F39060"
   offset="1"
   id="stop82690" />
	</linearGradient>
	
	
	
	
	
	
	
	
	
	
	
	
	
	
	
</defs><sodipodi:namedview
     stroke="#ef2929"
     fill="#f57900"
     id="base"
     pagecolor="#ffffff"
     bordercolor="#666666"
     borderopacity="0.25490196"
     inkscape:pageopacity="0.0"
     inkscape:pageshadow="2"
     inkscape:zoom="2.9880107"
     inkscape:cx="53.547332"
     inkscape:cy="56.55937"
     inkscape:current-layer="layer9"
     showgrid="false"
     inkscape:grid-bbox="true"
     inkscape:document-units="px"
     inkscape:showpageshadow="false"
     inkscape:window-width="1280"
     inkscape:window-height="731"
     inkscape:window-x="0"
     inkscape:window-y="0"
     width="400px"
     height="300px"
     inkscape:snap-nodes="true"
     inkscape:snap-bbox="true"
     objecttolerance="7"
     gridtolerance="12"
     guidetolerance="13"
     inkscape:window-maximized="1"
     inkscape:pagecheckerboard="false"
     showguides="false"
     inkscape:guide-bbox="true"
     inkscape:locked="false"
     inkscape:measure-start="0,0"
     inkscape:measure-end="0,0"
     inkscape:object-nodes="true"
     inkscape:bbox-nodes="true"
     inkscape:snap-global="true"
     inkscape:object-paths="true"
     inkscape:snap-intersection-paths="true"
     inkscape:snap-bbox-edge-midpoints="true"
     inkscape:snap-bbox-midpoints="true"
     showborder="false"
     inkscape:snap-center="true"
     inkscape:snap-object-midpoints="true"
     inkscape:snap-midpoints="true"
     inkscape:snap-smooth-nodes="true"
     inkscape:snap-text-baseline="true"
     inkscape:deskcolor="#d1d1d1"><inkscape:grid
       type="xygrid"
       id="grid5883"
       spacingx="2"
       spacingy="2"
       enabled="true"
       visible="true"
       empspacing="4"
       originx="0"
       originy="0" /><sodipodi:guide
       position="64,8"
       orientation="0,1"
       id="guide1073"
       inkscape:locked="false"
       inkscape:label=""
       inkscape:color="rgb(0,0,255)" /><sodipodi:guide
       position="12,64"
       orientation="1,0"
       id="guide1075"
       inkscape:locked="false"
       inkscape:label=""
       inkscape:color="rgb(0,0,255)" /><sodipodi:guide
       position="64,104"
       orientation="0,1"
       id="guide1099"
       inkscape:locked="false"
       inkscape:label=""
       inkscape:color="rgb(0,0,255)" /><sodipodi:guide
       position="64,128"
       orientation="0,1"
       id="guide993"
       inkscape:locked="false"
       inkscape:label=""
       inkscape:color="rgb(0,0,255)" /><sodipodi:guide
       position="104,64"
       orientation="1,0"
       id="guide995"
       inkscape:locked="false"
       inkscape:label=""
       inkscape:color="rgb(0,0,255)" /><sodipodi:guide
       position="9.2651362e-08,64"
       orientation="1,0"
       id="guide867"
       inkscape:locked="false"
       inkscape:label=""
       inkscape:color="rgb(0,0,255)" /><sodipodi:guide
       position="120,64"
       orientation="1,0"
       id="guide869"
       inkscape:locked="false"
       inkscape:label=""
       inkscape:color="rgb(0,0,255)" /><sodipodi:guide
       position="64,116"
       orientation="0,1"
       id="guide871"
       inkscape:locked="false"
       inkscape:label=""
       inkscape:color="rgb(0,0,255)" /><inkscape:grid
       type="xygrid"
       id="grid873"
       spacingx="1"
       spacingy="1"
       empspacing="8"
       color="#000000"
       opacity="0.49019608"
       empcolor="#000000"
       empopacity="0.08627451"
       dotted="true" /><sodipodi:guide
       position="24,64"
       orientation="1,0"
       id="guide877"
       inkscape:locked="false"
       inkscape:label=""
       inkscape:color="rgb(0,0,255)" /><sodipodi:guide
       position="116,64"
       orientation="1,0"
       id="guide879"
       inkscape:locked="false"
       inkscape:label=""
       inkscape:color="rgb(0,0,255)" /><sodipodi:guide
       position="64,120"
       orientation="0,1"
       id="guide881"
       inkscape:locked="false"
       inkscape:label=""
       inkscape:color="rgb(0,0,255)" /><sodipodi:guide
       position="64,12"
       orientation="0,1"
       id="guide883"
       inkscape:locked="false"
       inkscape:label=""
       inkscape:color="rgb(0,0,255)" /><sodipodi:guide
       position="8,64"
       orientation="1,0"
       id="guide885"
       inkscape:locked="false"
       inkscape:label=""
       inkscape:color="rgb(0,0,255)" /><sodipodi:guide
       position="128,64"
       orientation="1,0"
       id="guide887"
       inkscape:locked="false"
       inkscape:label=""
       inkscape:color="rgb(0,0,255)" /><sodipodi:guide
       position="64,0"
       orientation="0,1"
       id="guide897"
       inkscape:locked="false"
       inkscape:label=""
       inkscape:color="rgb(0,0,255)" /><sodipodi:guide
       position="64,24"
       orientation="0,1"
       id="guide899"
       inkscape:locked="false"
       inkscape:label=""
       inkscape:color="rgb(0,0,255)" /><sodipodi:guide
       position="256,256"
       orientation="-0.70710678,0.70710678"
       id="guide950"
       inkscape:locked="false"
       inkscape:label=""
       inkscape:color="rgb(0,0,255)" /><sodipodi:guide
       position="64,64"
       orientation="0.70710678,0.70710678"
       id="guide952"
       inkscape:locked="false"
       inkscape:label=""
       inkscape:color="rgb(0,0,255)" /></sodipodi:namedview><metadata
     id="metadata4"><rdf:RDF><cc:Work
         rdf:about=""><dc:format>image/svg+xml</dc:format><dc:type
           rdf:resource="http://purl.org/dc/dcmitype/StillImage" /><dc:creator><cc:Agent><dc:title>GNOME Design Team</dc:title></cc:Agent></dc:creator><dc:source /><cc:license
           rdf:resource="http://creativecommons.org/licenses/by-sa/4.0/" /><dc:title>Adwaita Icon Template</dc:title><dc:subject><rdf:Bag /></dc:subject><dc:date /><dc:rights><cc:Agent><dc:title /></cc:Agent></dc:rights><dc:publisher><cc:Agent><dc:title /></cc:Agent></dc:publisher><dc:identifier /><dc:relation /><dc:language /><dc:coverage /><dc:description /><dc:contributor><cc:Agent><dc:title /></cc:Agent></dc:contributor></cc:Work><cc:License
         rdf:about="http://creativecommons.org/licenses/by-sa/4.0/"><cc:permits
           rdf:resource="http://creativecommons.org/ns#Reproduction" /><cc:permits
           rdf:resource="http://creativecommons.org/ns#Distribution" /><cc:requires
           rdf:resource="http://creativecommons.org/ns#Notice" /><cc:requires
           rdf:resource="http://creativecommons.org/ns#Attribution" /><cc:permits
           rdf:resource="http://creativecommons.org/ns#DerivativeWorks" /><cc:requires
           rdf:resource="http://creativecommons.org/ns#ShareAlike" /></cc:License></rdf:RDF></metadata><g
     id="layer1"
     inkscape:label="App Icon"
     inkscape:groupmode="layer"
     style="display:inline"
     transform="translate(0,-172)"><g
       inkscape:groupmode="layer"
       id="layer2"
       inkscape:label="baseplate"
       style="display:inline"
       sodipodi:insensitive="true"><g
         style="display:inline;fill:#000000;enable-background:new"
         transform="matrix(7.9911709,0,0,8.0036407,-167.7909,-4846.0776)"
         id="g12027"
         inkscape:export-xdpi="12"
         inkscape:export-ydpi="12" /><rect
         style="display:inline;overflow:visible;visibility:visible;fill:#f0f0f0;fill-opacity:1;fill-rule:nonzero;stroke:none;stroke-width:0.5;marker:none;enable-background:accumulate"
         id="rect13805"
         width="128"
         height="128"
         x="9.2651362e-08"
         y="172"
         inkscape:label="512x512" /><g
         id="g883"
         style="fill:none;fill-opacity:0.25098039;stroke:#a579b3;stroke-opacity:1"
         transform="translate(-24,24)" /><g
         id="g900"
         style="fill:none;fill-opacity:0.25098039;stroke:#a579b3;stroke-opacity:1"
         transform="translate(-24,24)" /><rect
         inkscape:label="512x512"
         y="172"
         x="160"
         height="16"
         width="16"
         id="rect859"
         style="display:inline;overflow:visible;visibility:visible;fill:#f0f0f0;fill-opacity:1;fill-rule:nonzero;stroke:none;stroke-width:0.5;marker:none;enable-background:accumulate" /><text
         xml:space="preserve"
         style="font-style:normal;font-variant:normal;font-weight:bold;font-stretch:normal;font-size:4px;line-height:125%;font-family:Cantarell;-inkscape-font-specification:'Cantarell, Bold';text-align:start;writing-mode:lr-tb;text-anchor:start;display:inline;fill:#000000;fill-opacity:1;stroke:none;stroke-width:0.33264872;enable-background:new"
         x="0"
         y="164"
         id="text863"
         inkscape:label="icon-name"><tspan
           style="font-size:4px;stroke-width:0.33264872"
           sodipodi:role="line"
           id="tspan861"
           x="0"
           y="164">Hicolor</tspan></text><text
         inkscape:label="icon-name"
         id="text867"
         y="164"
         x="160"
         style="font-style:normal;font-variant:normal;font-weight:bold;font-stretch:normal;font-size:4px;line-height:125%;font-family:Cantarell;-inkscape-font-specification:'Cantarell, Bold';text-align:start;writing-mode:lr-tb;text-anchor:start;display:inline;fill:#000000;fill-opacity:1;stroke:none;stroke-width:0.33264872;enable-background:new"
         xml:space="preserve"><tspan
           y="164"
           x="160"
           id="tspan865"
           sodipodi:role="line"
           style="font-size:4px;stroke-width:0.33264872">Symbolic</tspan></text></g><g
       inkscape:groupmode="layer"
       id="layer9"
       inkscape:label="icons"
       style="display:inline"><path
         class="st0"
         d="m 18.199735,237.09961 h 91.600285 c 5.60002,0 10.20003,4.60001 10.20003,10.20003 v 30.50009 c 0,5.60002 -4.60001,10.20003 -10.20003,10.20003 H 18.199735 c -5.600017,0 -10.2000314,-4.60001 -10.2000314,-10.20003 v -30.50009 c 0,-5.60002 4.6000144,-10.20003 10.2000314,-10.20003 z"
         id="path77270"
         style="fill:#bcbab3;stroke-width:1" /><path
         class="st1"
         d="m 18.199735,207.19951 h 91.600285 c 5.60002,0 10.20003,4.60002 10.20003,10.20003 v 57.20018 c 0,5.60002 -4.60001,10.20003 -10.20003,10.20003 H 18.199735 c -5.600017,0 -10.2000314,-4.60001 -10.2000314,-10.20003 v -57.20018 c 0,-5.60001 4.6000144,-10.20003 10.2000314,-10.20003 z"
         id="path77272"
         style="fill:#9a9996;stroke-width:1" /><path
         class="st2"
         d="m 18.206601,199.99969 h 91.600289 c 5.60002,0 10.20062,4.60001 10.20003,10.20003 l -0.007,64.4 c -6e-4,5.60002 -4.60001,10.20003 -10.20003,10.20003 H 18.199735 c -5.600017,0 -10.2006285,-4.60001 -10.2000314,-10.20003 l 0.00687,-64.4 c 5.971e-4,-5.60002 4.6000144,-10.20003 10.2000314,-10.20003 z"
         id="path77274"
         style="fill:#deddda;stroke-width:1"
         sodipodi:nodetypes="sssssssss" /><path
         d="m 18.206601,208.29971 h 91.600289 c 1.4,0 2.50016,1.10001 2.50001,2.50001 l -0.007,63.2 c -1.5e-4,1.4 -1.10001,2.50001 -2.50001,2.50001 H 18.199735 c -1.400004,0 -2.50016,-1.10001 -2.500008,-2.50001 l 0.0069,-63.2 c 1.53e-4,-1.4 1.100004,-2.50001 2.500008,-2.50001 z"
         id="path77276"
         sodipodi:nodetypes="sssssssss"
         style="stroke-width:1" /><path
         id="polygon77285"
         style="fill:url(#SVGID_1_);stroke-width:1"
         class="st3"
         d="M 109.80002,273.99972 H 61.299869 l 8.300026,-63.20954 h 40.200125 z"
         sodipodi:nodetypes="ccccc" /><path
         id="polygon77294"
         style="fill:url(#SVGID_00000172402698039694198610000003353832082824108457_);stroke-width:1"
         d="M 61.299869,273.99972 H 18.199735 v -63.20954 h 51.40016 z"
         sodipodi:nodetypes="ccccc" /><path
         class="st5"
         d="m 99.299987,249.09497 -0.200001,-0.1 c -1.400004,0.2 -2.800009,0 -4.200013,-0.3 -5.900018,-1.6 -9.400029,-7.80002 -7.800024,-13.70004 0.400001,-1.4 1.000003,-2.60001 1.900006,-3.80001 v -0.2 l -0.200001,-0.1 c -4.700015,0.5 -8.600027,3.80001 -9.900031,8.40002 -0.800002,3.00001 -0.400001,6.10002 1.100004,8.80003 1.500004,2.70001 4.000012,4.60002 7.000021,5.40002 1.000004,0.3 2.100007,0.4 3.10001,0.4 3.600011,0 7.000022,-1.70001 9.200029,-4.60002 z"
         id="path77296"
         style="fill:#ffffff;stroke-width:1" /><path
         id="path77322"
         style="fill:#ffffff;stroke-width:1"
         class="st5"
         d="m 36.699793,250.29498 c -0.600002,-0.3 -1.300005,-0.1 -1.700006,0.4 l -1.500004,2.70001 c -0.300001,0.6 -0.100001,1.3 0.400001,1.7 0.2,0.1 0.400001,0.2 0.600002,0.2 0.400001,0 0.800002,-0.2 1.100003,-0.6 l 1.500005,-2.70001 c 0.400001,-0.6 0.2,-1.4 -0.400001,-1.7 z m -7.700024,-13.50004 2.700008,1.5 c 0.200001,0.1 0.400001,0.2 0.600002,0.2 0.400001,0 0.800002,-0.2 1.100003,-0.6 0.300001,-0.6 0.100001,-1.3 -0.400001,-1.70001 l -2.700008,-1.5 c -0.600002,-0.3 -1.300004,-0.1 -1.700006,0.4 -0.300001,0.6 -0.1,1.40001 0.400002,1.70001 z m 16.800052,-2.30001 c 0.2,0.1 0.400001,0.2 0.600002,0.2 0.400001,0 0.800002,-0.2 1.100003,-0.6 l 1.500005,-2.70001 c 0.300001,-0.6 0.1,-1.3 -0.400002,-1.70001 -0.600001,-0.3 -1.300004,-0.1 -1.700005,0.40001 l -1.500005,2.7 c -0.400001,0.70001 -0.2,1.40001 0.400002,1.70001 z m 7.600023,13.50004 -2.700008,-1.5 c -0.600002,-0.3 -1.300004,-0.1 -1.700005,0.4 -0.300001,0.6 -0.100001,1.3 0.400001,1.7 l 2.700008,1.50001 c 0.200001,0.1 0.400002,0.2 0.600002,0.2 0.400001,0 0.800003,-0.2 1.100004,-0.6 0.400001,-0.60001 0.2,-1.30001 -0.400002,-1.70001 z m -20.000062,-1 c -0.300001,-0.6 -1.100003,-0.8 -1.700005,-0.4 l -2.600008,1.4 c -0.600002,0.3 -0.800003,1.1 -0.400001,1.70001 0.2,0.4 0.600002,0.6 1.100003,0.6 0.200001,0 0.400001,-0.1 0.600002,-0.2 l 2.700008,-1.50001 c 0.400002,-0.3 0.600002,-1.1 0.300001,-1.6 z m 1.600005,-12.90004 c 0.200001,0.4 0.600002,0.6 1.100004,0.6 0.2,0 0.400001,-0.1 0.600002,-0.2 0.600001,-0.3 0.800002,-1.1 0.400001,-1.70001 l -1.500005,-2.7 c -0.300001,-0.60001 -1.100003,-0.80001 -1.700005,-0.40001 -0.600002,0.3 -0.800003,1.10001 -0.400001,1.70001 z m 14.100044,3.80001 c 0.200001,0.4 0.600002,0.6 1.100003,0.6 0.200001,0 0.400002,-0.1 0.600002,-0.2 l 2.700009,-1.5 c 0.600001,-0.3 0.800002,-1.10001 0.400001,-1.70001 -0.300001,-0.6 -1.100004,-0.8 -1.700005,-0.4 l -2.700009,1.5 c -0.500001,0.30001 -0.700002,1.10001 -0.400001,1.70001 z m -1.600005,12.80004 c -0.300001,-0.6 -1.100003,-0.8 -1.700005,-0.4 -0.600002,0.3 -0.800003,1.1 -0.400002,1.7 l 1.500005,2.70001 c 0.200001,0.4 0.600002,0.6 1.100004,0.6 0.2,0 0.400001,-0.1 0.600001,-0.2 0.600002,-0.3 0.800003,-1.1 0.400002,-1.7 z m -15.300047,-8.30003 c 0,-0.7 -0.500002,-1.2 -1.200004,-1.2 h -4.300013 c -0.700003,0 -1.200004,0.5 -1.200004,1.2 0,0.70001 0.500001,1.20001 1.200004,1.20001 h 4.300013 c 0.600002,0 1.200004,-0.5 1.200004,-1.20001 z m 9.000027,-9.10002 c 0.700003,0 1.200004,-0.50001 1.200004,-1.20001 v -4.30001 c 0,-0.7 -0.500001,-1.20001 -1.200004,-1.20001 -0.700002,0 -1.200003,0.50001 -1.200003,1.20001 v 4.30001 c 0,0.7 0.600002,1.20001 1.200003,1.20001 z m 14.600046,7.90002 h -4.300014 c -0.700002,0 -1.200003,0.5 -1.200003,1.2 0,0.70001 0.500001,1.20001 1.200003,1.20001 h 4.300014 c 0.700002,0 1.200003,-0.5 1.200003,-1.20001 0.100001,-0.7 -0.500001,-1.2 -1.200003,-1.2 z m -14.500045,10.30003 c -0.700002,0 -1.200004,0.5 -1.200004,1.20001 v 4.30001 c 0,0.7 0.500002,1.2 1.200004,1.2 0.700002,0 1.200004,-0.5 1.200004,-1.2 v -4.30001 c 0,-0.70001 -0.600002,-1.20001 -1.200004,-1.20001 z m 0,-15.70005 c -3.600011,0 -6.600021,3.00001 -6.600021,6.60002 0,3.60001 3.00001,6.60002 6.600021,6.60002 3.600011,0 6.60002,-3.00001 6.60002,-6.60002 0,-3.60001 -3.000009,-6.60002 -6.60002,-6.60002 z" /></g><g
       inkscape:groupmode="layer"
       id="layer3"
       inkscape:label="hairlines"
       style="display:inline"
       sodipodi:insensitive="true"><circle
         cx="64.000031"
         cy="236"
         r="59.504131"
         id="circle2892"
         style="display:inline;opacity:0.1;vector-effect:none;fill:none;fill-opacity:1;stroke:#000000;stroke-width:0.99000001;stroke-linecap:butt;stroke-linejoin:miter;stroke-miterlimit:4;stroke-dasharray:0.99000001, 0.99000001;stroke-dashoffset:0;stroke-opacity:1;marker:none;marker-start:none;marker-mid:none;marker-end:none;paint-order:normal;enable-background:new" /><rect
         ry="7.9292889"
         rx="8.701004"
         y="180.49496"
         x="20.495007"
         height="111.01005"
         width="87.009987"
         id="rect2894"
         style="display:inline;opacity:0.1;vector-effect:none;fill:none;fill-opacity:1;stroke:#000000;stroke-width:0.99000001;stroke-linecap:butt;stroke-linejoin:miter;stroke-miterlimit:4;stroke-dasharray:0.99000001, 0.99000001;stroke-dashoffset:0;stroke-opacity:1;marker:none;marker-start:none;marker-mid:none;marker-end:none;paint-order:normal;enable-background:new" /><rect
         ry="7.9238095"
         rx="7.9238095"
         y="184.49524"
         x="12.495266"
         height="103.00952"
         width="103.00952"
         id="rect2896"
         style="display:inline;opacity:0.1;vector-effect:none;fill:none;fill-opacity:1;stroke:#000000;stroke-width:0.99000001;stroke-linecap:butt;stroke-linejoin:miter;stroke-miterlimit:4;stroke-dasharray:0.99000001, 0.99000001;stroke-dashoffset:0;stroke-opacity:1;marker:none;marker-start:none;marker-mid:none;marker-end:none;paint-order:normal;enable-background:new" /><rect
         ry="8.701005"
         rx="7.9292889"
         y="200.49496"
         x="8.4950066"
         height="87.010048"
         width="111.01004"
         id="rect2898"
         style="display:inline;opacity:0.1;vector-effect:none;fill:none;fill-opacity:1;stroke:#000000;stroke-width:0.99000001;stroke-linecap:butt;stroke-linejoin:miter;stroke-miterlimit:4;stroke-dasharray:0.99000001, 0.99000001;stroke-dashoffset:0;stroke-opacity:1;marker:none;marker-start:none;marker-mid:none;marker-end:none;paint-order:normal;enable-background:new" /><path
         inkscape:connector-curvature="0"
         id="path2900"
         d="M 2.6203015e-5,288.99999 H 128.00003"
         style="display:inline;fill:none;stroke:#62a0ea;stroke-width:2;stroke-linecap:butt;stroke-linejoin:miter;stroke-miterlimit:4;stroke-dasharray:none;stroke-opacity:1;enable-background:new" /></g></g></svg>
