<?xml version="1.0" encoding="UTF-8" standalone="no"?>
<svg
   height="16px"
   viewBox="0 0 16 16"
   width="16px"
   version="1.1"
   id="svg475"
   sodipodi:docname="adw-gtk3-warning-source-wireframe-perspective-alt.svg"
   inkscape:version="1.2.1 (9c6d41e410, 2022-07-14)"
   xmlns:inkscape="http://www.inkscape.org/namespaces/inkscape"
   xmlns:sodipodi="http://sodipodi.sourceforge.net/DTD/sodipodi-0.dtd"
   xmlns="http://www.w3.org/2000/svg"
   xmlns:svg="http://www.w3.org/2000/svg">
  <defs
     id="defs479" />
  <sodipodi:namedview
     id="namedview477"
     pagecolor="#ffffff"
     bordercolor="#000000"
     borderopacity="0.25"
     inkscape:showpageshadow="2"
     inkscape:pageopacity="0.0"
     inkscape:pagecheckerboard="0"
     inkscape:deskcolor="#d1d1d1"
     showgrid="false"
     inkscape:zoom="33.092853"
     inkscape:cx="9.9870507"
     inkscape:cy="7.7055913"
     inkscape:window-width="1280"
     inkscape:window-height="731"
     inkscape:window-x="0"
     inkscape:window-y="0"
     inkscape:window-maximized="1"
     inkscape:current-layer="svg475" />
  <g
     id="g2004"
     transform="matrix(1.1781689,0,0,1.1781689,20.468667,-0.92095342)">
    <path
       style="color:#000000;fill:#000000;stroke-linecap:round;stroke-linejoin:round;-inkscape-stroke:none"
       d="M -10.792969,0.84375 -16.259766,4 a 0.45837784,0.45837784 0 0 0 0,0.7929687 l 5.466797,3.15625 a 0.45837784,0.45837784 0 0 0 0.457031,0 l 5.4648443,-3.15625 A 0.45837784,0.45837784 0 0 0 -4.8710937,4 L -10.335938,0.84375 a 0.45837784,0.45837784 0 0 0 -0.457031,0 z m 0.228516,0.9257812 4.548828,2.6269532 -4.548828,2.6269531 -4.548828,-2.6269531 z"
       id="path844" />
    <path
       style="color:#000000;fill:#000000;stroke-linecap:round;stroke-linejoin:round;-inkscape-stroke:none"
       d="m -16.294922,3.9785156 a 0.45837784,0.45837784 0 0 0 -0.228515,0.3984375 l 0.0078,6.3906249 a 0.45837784,0.45837784 0 0 0 0.230469,0.398438 l 5.49414,3.134765 a 0.45837784,0.45837784 0 0 0 0.685547,-0.398437 V 7.5507812 A 0.45837784,0.45837784 0 0 0 -10.33595,7.1542969 l -5.5,-3.1757813 a 0.45837784,0.45837784 0 0 0 -0.458984,0 z m 0.689453,1.1914063 4.582031,2.6464843 v 5.2968748 l -4.576171,-2.611328 z"
       id="path846" />
  </g>
  <path
     id="path1475"
     style="display:inline;fill:#000000;fill-opacity:1;stroke-width:0.600058"
     d="m -9.0810043,9.7725769 v 1.1993241 h 3.59966 c 0.257834,0 0.600508,0.368454 0.600508,0.600507 v 0.600508 h -4.200168 v 1.199322 h 4.200168 v 0.600508 c 0,0.232053 -0.342674,0.600507 -0.600508,0.600507 h -3.59966 v 1.199324 h 3.59966 c 1.007914,0 1.799835,-0.820052 1.799835,-1.799831 v -2.400338 c 0,-0.979779 -0.791921,-1.7998311 -1.799835,-1.7998311 z" />
  <path
     id="path560"
     style="display:inline;fill:#000000;fill-opacity:1;stroke-width:0.666793"
     d="M 8.9987364,9.3327097 V 10.665417 L 12.998733,8.3443031 c 0.286509,-0.1662549 0.667294,0.022214 0.667294,0.280075 v 0.667294 l -3.556075,2.0635159 v 1.332704 l 3.556075,-2.063515 v 0.66729 c 0,0.257861 -0.380785,0.888256 -0.667294,1.05451 L 8.9987364,14.667293 V 16 l 3.9999966,-2.321116 c 1.120009,-0.649917 2.000004,-2.071814 2.000004,-3.160559 V 7.8510345 c 0,-1.0887446 -0.879995,-1.4893557 -2.000004,-0.8394382 z"
     sodipodi:nodetypes="ccssccccsccccccsc" />
  <g
     id="g31546"
     transform="translate(-443.27706,36.299952)"
     style="display:inline" />
</svg>
