<?xml version="1.0" encoding="UTF-8" standalone="no"?>
<svg
   height="16px"
   viewBox="0 0 16 16"
   width="16px"
   version="1.1"
   id="svg475"
   sodipodi:docname="adw-gtk3-warning-source-perspective.svg"
   inkscape:version="1.2.1 (9c6d41e410, 2022-07-14)"
   xmlns:inkscape="http://www.inkscape.org/namespaces/inkscape"
   xmlns:sodipodi="http://sodipodi.sourceforge.net/DTD/sodipodi-0.dtd"
   xmlns="http://www.w3.org/2000/svg"
   xmlns:svg="http://www.w3.org/2000/svg">
  <sodipodi:namedview
     id="namedview9"
     pagecolor="#ffffff"
     bordercolor="#000000"
     borderopacity="0.25"
     inkscape:showpageshadow="2"
     inkscape:pageopacity="0.0"
     inkscape:pagecheckerboard="0"
     inkscape:deskcolor="#d1d1d1"
     showgrid="false"
     inkscape:zoom="14.75"
     inkscape:cx="7.9661017"
     inkscape:cy="8"
     inkscape:window-width="1280"
     inkscape:window-height="731"
     inkscape:window-x="0"
     inkscape:window-y="0"
     inkscape:window-maximized="1"
     inkscape:current-layer="svg475" />
  <defs
     id="defs479" />
  <g
     id="g31546"
     transform="translate(-443.27706,36.299952)"
     style="display:inline">
    <path
       style="display:inline;opacity:0.3;vector-effect:none;fill:#000000;fill-opacity:1;stroke:none;stroke-width:1;stroke-linecap:butt;stroke-linejoin:bevel;stroke-miterlimit:4;stroke-dasharray:none;stroke-dashoffset:0;stroke-opacity:1;marker:none;marker-start:none;marker-mid:none;marker-end:none;paint-order:normal;enable-background:new"
       d="m 457.2639,-32.539557 -5.96212,3.44224 -5.96215,-3.44224 v 0 l 5.96215,-3.44226 z"
       id="path870-6" />
    <path
       id="path886-9"
       d="m 450.27677,-20.618087 -5.99273,-3.42041 -0.007,-6.97219 v 0 l 6.00018,3.4642 z"
       style="display:inline;opacity:1;vector-effect:none;fill:#000000;fill-opacity:1;stroke:none;stroke-width:1;stroke-linecap:butt;stroke-linejoin:bevel;stroke-miterlimit:4;stroke-dasharray:none;stroke-dashoffset:0;stroke-opacity:1;marker:none;marker-start:none;marker-mid:none;marker-end:none;paint-order:normal;enable-background:new" />
  </g>
  <path
     id="path560"
     style="display:inline;fill:#000000;fill-opacity:1;stroke-width:0.666793"
     d="m 18.732916,15.772577 v 1.332707 h 3.999996 c 0.286509,0 0.667294,0.409431 0.667294,0.667292 v 0.667294 h -3.556075 v 1.332704 h 3.556075 v 0.667294 c 0,0.257861 -0.380785,0.667292 -0.667294,0.667292 h -3.999996 v 1.332707 h 3.999996 c 1.120009,0 2.000004,-0.911254 2.000004,-1.999999 V 19.77231 L 24.068,19.106137 24.732916,18.439963 v -0.667387 c 0,-1.088745 -0.879995,-1.999999 -2.000004,-1.999999 z" />
  <path
     id="path7930"
     style="display:inline;fill:#000000;fill-opacity:0.60000002;stroke-width:0.692906"
     d="m 8.99984,8.753465 v 1.384901 l 4.156647,-2.3965947 c 0.297729,-0.1716614 0.693427,0.025656 0.693427,0.2936164 v 0.693427 l -3.695341,2.1306193 v 1.384895 l 3.695341,-2.13062 v 0.693427 c 0,0.267959 -0.395698,0.921573 -0.693427,1.093234 L 8.99984,14.296965 v 1.384899 l 4.156647,-2.396595 c 1.163871,-0.671052 2.07833,-2.14524 2.07833,-3.276625 V 7.2368953 c 0,-1.1313838 -0.914459,-1.5510772 -2.07833,-0.880025 z" />
</svg>
