<?xml version="1.0" encoding="UTF-8"?>
<svg height="128px" viewBox="0 0 128 128" width="128px" xmlns="http://www.w3.org/2000/svg">
    <path d="m 124 66.003906 c 0 33.136719 -26.863281 60 -60 60 s -60 -26.863281 -60 -60 c 0 -33.136718 26.863281 -60 60 -60 s 60 26.863282 60 60 z m 0 0" fill="#deddda"/>
    <path d="m 124 64.003906 c 0 33.136719 -26.863281 60 -60 60 s -60 -26.863281 -60 -60 c 0 -33.136718 26.863281 -60 60 -60 s 60 26.863282 60 60 z m 0 0" fill="#f6f5f4"/>
    <path d="m 108.847656 64.003906 c 0 24.769532 -20.078125 44.847656 -44.847656 44.847656 s -44.851562 -20.078124 -44.851562 -44.847656 c 0 -24.769531 20.082031 -44.851562 44.851562 -44.851562 s 44.847656 20.082031 44.847656 44.851562 z m 0 0" fill="#99c1f1"/>
    <path d="m 94.8125 64.003906 c 0 17.015625 -13.792969 30.8125 -30.8125 30.8125 s -30.8125 -13.796875 -30.8125 -30.8125 c 0 -17.019531 13.792969 -30.816406 30.8125 -30.816406 s 30.8125 13.796875 30.8125 30.816406 z m 0 0" fill="#62a0ea"/>
    <path d="m 80.777344 64.003906 c 0 9.265625 -7.511719 16.777344 -16.777344 16.777344 s -16.777344 -7.511719 -16.777344 -16.777344 c 0 -9.269531 7.511719 -16.78125 16.777344 -16.78125 s 16.777344 7.511719 16.777344 16.78125 z m 0 0" fill="#3584e4"/>
    <path d="m 58.160156 56.011719 c -0.257812 0.027343 -0.5 0.144531 -0.6875 0.320312 l -2.222656 2.242188 l -0.0625 0.042969 l 0.011719 0.011718 c -0.214844 0.210938 -0.339844 0.5 -0.339844 0.800782 c 0 0.632812 0.507813 1.144531 1.140625 1.144531 c 0.304688 0 0.589844 -0.117188 0.8125 -0.332031 l 0.046875 -0.0625 l 1.425781 -1.417969 l 1.429688 1.417969 l 0.042968 0.0625 c 0.226563 0.214843 0.511719 0.332031 0.8125 0.332031 c 0.636719 0 1.144532 -0.511719 1.144532 -1.144531 c 0 -0.300782 -0.117188 -0.589844 -0.332032 -0.8125 c -0.015624 -0.007813 -0.027343 -0.027344 -0.042968 -0.035157 l -2.242188 -2.25 c -0.25 -0.242187 -0.597656 -0.355469 -0.9375 -0.320312 z m 11.429688 0 c -0.261719 0.027343 -0.5 0.144531 -0.6875 0.320312 l -2.222656 2.242188 l -0.0625 0.042969 l 0.007812 0.011718 c -0.214844 0.210938 -0.339844 0.5 -0.339844 0.800782 c 0 0.632812 0.507813 1.144531 1.144532 1.144531 c 0.300781 0 0.585937 -0.117188 0.808593 -0.332031 l 0.046875 -0.0625 l 1.429688 -1.417969 l 1.425781 1.417969 l 0.046875 0.0625 c 0.222656 0.214843 0.507812 0.332031 0.8125 0.332031 c 0.632812 0 1.140625 -0.511719 1.140625 -1.144531 c 0 -0.300782 -0.117187 -0.589844 -0.328125 -0.8125 c -0.019531 -0.007813 -0.027344 -0.027344 -0.046875 -0.035157 l -2.238281 -2.25 c -0.25 -0.242187 -0.601563 -0.355469 -0.9375 -0.320312 z m -14.730469 9.132812 c 1.363281 4.097657 5.035156 6.847657 9.140625 6.855469 c 4.105469 -0.007812 7.773438 -2.757812 9.140625 -6.855469 z m 0 0" fill="#f6f5f4"/>
</svg>
