<?xml version="1.0" encoding="UTF-8"?>
<svg height="128px" viewBox="0 0 128 128" width="128px" xmlns="http://www.w3.org/2000/svg" xmlns:xlink="http://www.w3.org/1999/xlink">
    <linearGradient id="a" gradientTransform="matrix(0.5 0 0 1 32.000355 -176.000258)" gradientUnits="userSpaceOnUse" x1="42" x2="42" y1="290" y2="274">
        <stop offset="0" stop-color="#c0bfbc"/>
        <stop offset="1" stop-color="#77767b"/>
    </linearGradient>
    <linearGradient id="b" gradientUnits="userSpaceOnUse" x1="76.000351" x2="76.000351" y1="111.999742" y2="115.999742">
        <stop offset="0" stop-color="#f6f5f4"/>
        <stop offset="1" stop-color="#deddda"/>
    </linearGradient>
    <linearGradient id="c" gradientUnits="userSpaceOnUse" x1="8.0003525" x2="120.0003525" y1="95.999733" y2="95.999733">
        <stop offset="0" stop-color="#77767b"/>
        <stop offset="0.0357143" stop-color="#c0bfbc"/>
        <stop offset="0.0713653" stop-color="#9a9996"/>
        <stop offset="0.928571" stop-color="#9a9996"/>
        <stop offset="0.964286" stop-color="#c0bfbc"/>
        <stop offset="1" stop-color="#77767b"/>
    </linearGradient>
    <linearGradient id="d" gradientUnits="userSpaceOnUse" x1="64.000351" x2="110.745415" y1="84.159607" y2="15.83992">
        <stop offset="0" stop-color="#c061cb"/>
        <stop offset="1" stop-color="#1a5fb4"/>
    </linearGradient>
    <linearGradient id="e" gradientUnits="userSpaceOnUse" x1="17.255297" x2="64.000351" y1="84.159607" y2="15.83992">
        <stop offset="0" stop-color="#f6d32d"/>
        <stop offset="1" stop-color="#ff7800"/>
    </linearGradient>
    <linearGradient id="f" gradientUnits="userSpaceOnUse">
        <stop offset="0" stop-color="#9a9996"/>
        <stop offset="0.5" stop-color="#f6f5f4"/>
        <stop offset="1" stop-color="#c0bfbc"/>
    </linearGradient>
    <linearGradient id="g" gradientTransform="matrix(0.779258 1.349714 -1.349714 0.779258 563.825562 167.003967)" x1="-214.840408" x2="-214.840408" xlink:href="#f" y1="218.670227" y2="220.820175"/>
    <linearGradient id="h" gradientTransform="matrix(1.349714 -0.779258 0.779258 1.349714 563.825562 167.003967)" x1="-221.315063" x2="-221.315063" xlink:href="#f" y1="-220.555252" y2="-218.405304"/>
    <linearGradient id="i" gradientTransform="matrix(-1.349714 0.779258 -0.779258 -1.349714 510.51751 265.353274)" gradientUnits="userSpaceOnUse" x1="161.361969" x2="196.694656" y1="257.028168" y2="257.028168">
        <stop offset="0" stop-color="#f5c211"/>
        <stop offset="0.43" stop-color="#ff7800"/>
        <stop offset="0.57" stop-color="#c061cb"/>
        <stop offset="1" stop-color="#1a5fb4"/>
    </linearGradient>
    <linearGradient id="j" gradientTransform="matrix(0.779258 1.349714 -1.349714 0.779258 563.825562 167.003967)" x1="-206.835159" x2="-206.835159" xlink:href="#f" y1="239.127426" y2="241.277374"/>
    <linearGradient id="k" gradientTransform="matrix(1.349714 -0.779258 0.779258 1.349714 563.825562 167.003967)" x1="-229.973801" x2="-229.973801" xlink:href="#f" y1="-209.125549" y2="-211.275497"/>
    <linearGradient id="l" gradientTransform="matrix(1.349714 -0.779258 0.779258 1.349714 -375.273726 -149.457602)" gradientUnits="userSpaceOnUse" x1="177.470078" x2="182.736496" y1="282.933533" y2="282.933533">
        <stop offset="0" stop-color="#ff7800"/>
        <stop offset="0.5" stop-color="#ffa348"/>
        <stop offset="1" stop-color="#e66100"/>
    </linearGradient>
    <path d="m 49 88 h 30 v 28 h -30 z m 0 0" fill="url(#a)"/>
    <path d="m 42 112 h 44.0625 c 1.9375 0 3.9375 2 3.9375 4 h -52 c 0 -2 2 -4 4 -4 z m 0 0" fill="url(#b)"/>
    <path d="m 16 20 h 96 c 4.417969 0 8 3.582031 8 8 v 60 c 0 4.417969 -3.582031 8 -8 8 h -96 c -4.417969 0 -8 -3.582031 -8 -8 v -60 c 0 -4.417969 3.582031 -8 8 -8 z m 0 0" fill="url(#c)"/>
    <path d="m 16 8 h 96 c 4.417969 0 8 3.582031 8 8 v 68 c 0 4.417969 -3.582031 8 -8 8 h -96 c -4.417969 0 -8 -3.582031 -8 -8 v -68 c 0 -4.417969 3.582031 -8 8 -8 z m 0 0" fill="#deddda"/>
    <path d="m 16 12 h 96 c 2.210938 0 4 1.789062 4 4 v 68 c 0 2.207031 -1.789062 4 -4 4 h -96 c -2.207031 0 -4 -1.792969 -4 -4 v -68 c 0 -2.210938 1.792969 -4 4 -4 z m 0 0" fill="#241f31"/>
    <path d="m 64 15.839844 h 46.746094 v 68.320312 h -46.746094 z m 0 0" fill="url(#d)"/>
    <path d="m 17.253906 15.839844 h 46.746094 v 68.320312 h -46.746094 z m 0 0" fill="url(#e)"/>
    <path d="m 97.652344 41.167969 l 7.230468 12.527343 c 0.460938 0.800782 0.1875 1.824219 -0.613281 2.285157 c -0.800781 0.464843 -1.824219 0.191406 -2.289062 -0.609375 l -7.230469 -12.527344 c -0.464844 -0.800781 -0.1875 -1.824219 0.613281 -2.289062 c 0.800781 -0.460938 1.824219 -0.1875 2.289063 0.613281 z m 0 0" fill="url(#g)"/>
    <path d="m 91.125 43.003906 l 4.238281 -2.449218 c 0.800781 -0.460938 1.824219 -0.1875 2.289063 0.613281 c 0.460937 0.800781 0.1875 1.828125 -0.613282 2.289062 l -4.238281 2.445313 c -0.800781 0.464844 -1.828125 0.191406 -2.289062 -0.613282 c -0.460938 -0.800781 -0.1875 -1.824218 0.613281 -2.285156 z m 0 0" fill="url(#h)"/>
    <path d="m 43.257812 70.640625 l 0.753907 -0.4375 c 0.359375 -0.207031 0.820312 -0.082031 1.027343 0.277344 l 0.921876 1.597656 c 0.207031 0.359375 0.085937 0.820313 -0.273438 1.027344 l -0.757812 0.4375 c -0.359376 0.207031 -0.816407 0.082031 -1.023438 -0.277344 l -0.925781 -1.597656 c -0.207031 -0.359375 -0.082031 -0.820313 0.277343 -1.027344 z m 0 0" fill="#9a9996"/>
    <path d="m 93.652344 54.074219 l -40.949219 23.644531 c -1.859375 1.074219 -4.242187 0.433594 -5.316406 -1.425781 l -5.285157 -9.15625 c -1.074218 -1.863281 -0.4375 -4.242188 1.425782 -5.316407 l 40.949218 -23.640624 c 1.859376 -1.074219 4.238282 -0.4375 5.3125 1.421874 l 5.289063 9.15625 c 1.074219 1.863282 0.4375 4.242188 -1.425781 5.316407 z m 0 0" fill="url(#i)"/>
    <path d="m 77.269531 69.636719 l 5.246094 9.082031 c 0.464844 0.800781 0.1875 1.828125 -0.613281 2.289062 c -0.800782 0.464844 -1.824219 0.1875 -2.289063 -0.613281 l -5.242187 -9.082031 c -0.464844 -0.804688 -0.191406 -1.828125 0.613281 -2.289062 c 0.800781 -0.464844 1.824219 -0.191407 2.285156 0.613281 z m 0 0" fill="url(#j)"/>
    <path d="m 74.984375 69.023438 l 27.609375 -15.941407 c 0.800781 -0.464843 1.828125 -0.191406 2.289062 0.613281 c 0.460938 0.800782 0.1875 1.824219 -0.613281 2.285157 l -27.609375 15.945312 c -0.804687 0.460938 -1.828125 0.1875 -2.289062 -0.613281 c -0.464844 -0.804688 -0.191406 -1.828125 0.613281 -2.289062 z m 0 0" fill="url(#k)"/>
    <path d="m 78.796875 79.707031 l 3.53125 -2.039062 c 0.988281 -0.570313 2.25 -0.230469 2.820313 0.757812 l 13.394531 23.195313 c 0.570312 0.988281 0.230469 2.25 -0.757813 2.824218 l -3.527344 2.035157 c -0.988281 0.570312 -2.253906 0.234375 -2.824218 -0.753907 l -13.390625 -23.199218 c -0.570313 -0.988282 -0.234375 -2.25 0.753906 -2.820313 z m 0 0" fill="url(#l)"/>
</svg>
