<?xml version="1.0" encoding="UTF-8" standalone="no"?>
<svg
   width="16px"
   height="16px"
   viewBox="0 0 16 16"
   version="1.1"
   id="svg13"
   sodipodi:docname="io.github.realmazharhussain.GdmSettings-symbolic-2.svg"
   inkscape:version="1.2.1 (9c6d41e410, 2022-07-14)"
   xmlns:inkscape="http://www.inkscape.org/namespaces/inkscape"
   xmlns:sodipodi="http://sodipodi.sourceforge.net/DTD/sodipodi-0.dtd"
   xmlns="http://www.w3.org/2000/svg"
   xmlns:svg="http://www.w3.org/2000/svg">
  <defs
     id="defs17">
    <mask
       maskUnits="userSpaceOnUse"
       id="mask9016">
      <g
         id="g9022"
         transform="translate(168,16.135593)">
        <g
           filter="url(#a)"
           id="g9020"
           transform="translate(-168,-16.135593)">
          <rect
             fill-opacity="0.05"
             height="16"
             width="16"
             id="rect9018"
             x="0"
             y="0" />
        </g>
      </g>
    </mask>
  </defs>
  <sodipodi:namedview
     id="namedview15"
     pagecolor="#ffffff"
     bordercolor="#000000"
     borderopacity="0.25"
     inkscape:showpageshadow="2"
     inkscape:pageopacity="0.0"
     inkscape:pagecheckerboard="0"
     inkscape:deskcolor="#d1d1d1"
     showgrid="true"
     inkscape:zoom="13.071996"
     inkscape:cx="0"
     inkscape:cy="10.480419"
     inkscape:window-width="1280"
     inkscape:window-height="731"
     inkscape:window-x="0"
     inkscape:window-y="0"
     inkscape:window-maximized="1"
     inkscape:current-layer="svg13">
    <inkscape:grid
       type="xygrid"
       id="grid5770" />
  </sodipodi:namedview>
  <filter
     id="a"
     height="1"
     width="1"
     x="0"
     y="0">
    <feColorMatrix
       in="SourceGraphic"
       type="matrix"
       values="0 0 0 0 1 0 0 0 0 1 0 0 0 0 1 0 0 0 1 0"
       id="feColorMatrix452" />
  </filter>
  <radialGradient
     id="c"
     cx="63.999996"
     cy="194.190475"
     gradientTransform="matrix(4.297522,-7.3e-7,2.8e-7,1.510489,-203.04141,-185.01493)"
     gradientUnits="userSpaceOnUse"
     r="44">
    <stop
       offset="0"
       stop-color="#ffffff"
       id="stop460" />
    <stop
       offset="1"
       stop-color="#ffffff"
       stop-opacity="0.094118"
       id="stop462" />
  </radialGradient>
  <path
     id="path8738"
     style="fill:#241f31"
     d="M 2.1875,0.99530512 C 0.98047263,0.99530512 0,2.0109337 0,3.2140551 v 9.5624999 c 0,1.203122 0.98047263,2.21875 2.1875,2.21875 H 6 c 0.5522847,0 1,-0.447715 1,-1 0,-0.552285 -0.4477153,-1 -1,-1 H 2.1875 C 2.0664063,12.995305 2,12.913274 2,12.776555 V 3.2140551 c 0,-0.1367187 0.066406,-0.21875 0.1875,-0.21875 h 11.625 c 0.121094,0 0.1875,0.082031 0.1875,0.21875 V 5 c 0,0.5522847 0.447715,1 1,1 0.552285,0 1,-0.4477153 1,-1 V 3.2140551 C 16,2.0109337 15.019528,0.99530512 13.8125,0.99530512 Z M 8,4.4953051 c -0.8281244,0 -1.5,0.6718776 -1.5,1.5 0,0.8281244 0.6718756,1.5 1.5,1.5 0.8281224,0 1.5,-0.6718756 1.5,-1.5 0,-0.8281224 -0.6718776,-1.5 -1.5,-1.5 z m 4.013672,2.5 c -0.207033,0 -0.375,0.1679689 -0.375,0.375 V 8.0363207 C 11.34375,8.0870977 11.064455,8.1808526 10.804688,8.3097582 L 10.412109,7.7687426 c -0.07617,-0.1054707 -0.195312,-0.1582023 -0.316406,-0.1542969 -0.07226,0.00198 -0.1445312,0.025393 -0.2070311,0.072266 l -0.203125,0.146484 C 9.517577,7.956243 9.4804667,8.1886647 9.6035156,8.3566332 L 9.9980469,8.8976489 C 9.7929711,9.106633 9.6191417,9.3449155 9.4824219,9.6066332 L 8.8457031,9.399602 C 8.8085932,9.387882 8.771481,9.3820238 8.734375,9.3820239 8.5742182,9.3781239 8.4257818,9.4796836 8.3730469,9.6417895 l -0.078125,0.2363281 c -0.0625,0.1972644 0.042958,0.4082034 0.2402343,0.4726564 l 0.6347657,0.207031 c -0.01953,0.142578 -0.03125,0.289062 -0.03125,0.4375 0,0.148438 0.01172,0.294921 0.03125,0.439453 l -0.6347657,0.205078 c -0.1972668,0.06446 -0.3027333,0.275391 -0.2402343,0.472657 l 0.078125,0.238281 c 0.06446,0.197266 0.2753914,0.304687 0.4726562,0.240234 l 0.6367188,-0.207031 c 0.1367208,0.259766 0.3105502,0.499998 0.515625,0.708984 l -0.3945313,0.541016 c -0.1230459,0.167969 -0.085939,0.40039 0.082031,0.523437 l 0.203125,0.148438 c 0.1679684,0.121094 0.4003894,0.08399 0.5234374,-0.08399 l 0.392579,-0.541015 c 0.259764,0.128906 0.539063,0.220703 0.833984,0.271484 V 14.6203 c 0,0.207031 0.167966,0.375 0.375,0.375 h 0.25 c 0.207031,0 0.375,-0.167969 0.375,-0.375 v -0.667969 c 0.294922,-0.05078 0.574221,-0.142579 0.833984,-0.271484 l 0.392578,0.541015 c 0.123045,0.167969 0.355468,0.205073 0.523438,0.08399 l 0.203125,-0.146485 c 0.167971,-0.123046 0.20508,-0.357422 0.08203,-0.52539 l -0.394531,-0.541016 c 0.205078,-0.208984 0.378907,-0.449217 0.515625,-0.708984 l 0.636719,0.207031 c 0.197264,0.06446 0.408203,-0.04297 0.472656,-0.240234 l 0.07813,-0.238281 c 0.0625,-0.197266 -0.04297,-0.408203 -0.240234,-0.472657 l -0.636719,-0.205078 c 0.02149,-0.144531 0.0332,-0.291015 0.0332,-0.439453 0,-0.148438 -0.01173,-0.294922 -0.0332,-0.4375 l 0.636719,-0.207031 c 0.197265,-0.06446 0.302733,-0.275392 0.240234,-0.4726564 l -0.07813,-0.2363281 c -0.05273,-0.1621089 -0.201172,-0.2636716 -0.361328,-0.2597656 -0.03711,0 -0.07423,0.0058 -0.111328,0.017578 L 14.794922,9.6066332 C 14.658207,9.3449145 14.484374,9.1066334 14.279297,8.8976489 l 0.394531,-0.5410157 c 0.123047,-0.1679684 0.08594,-0.4003903 -0.08203,-0.5234375 L 14.388672,7.6867113 c -0.07423,-0.054689 -0.160158,-0.078127 -0.244141,-0.072266 -0.107417,0.00584 -0.210937,0.060543 -0.279297,0.1542969 L 13.472656,8.3117113 C 13.212893,8.180852 12.933595,8.0890545 12.638672,8.0382739 V 7.3703051 c 0,-0.2070311 -0.167969,-0.375 -0.375,-0.375 z m -4.763672,1 C 6.0039096,7.9953051 5,8.9992157 5,10.245305 v 0.75 c 0,0.499999 0.5,0.5 0.5,0.5 h 1.6738281 c -0.020071,-0.165974 -0.031804,-0.33285 -0.035156,-0.5 0.0045,-1.083634 0.3609356,-2.1364809 1.015625,-2.9999999 z m 4.888672,1 c 0.404298,0 0.779297,0.1171878 1.091797,0.3222656 l 0.162109,0.1152344 c 0.279297,0.2246098 0.496092,0.5214847 0.621094,0.8652339 0.0019,0.0019 0.0039,0.0039 0.0039,0.0078 l 0.04297,0.130859 c 0.05079,0.177734 0.07813,0.365234 0.07813,0.558594 0,0.19336 -0.02733,0.38086 -0.07813,0.558594 l -0.04297,0.130859 v 0.002 c -0.126954,0.345693 -0.343749,0.644531 -0.625,0.871094 l -0.162109,0.117188 c -0.312501,0.203122 -0.6875,0.320312 -1.091797,0.320312 -0.402346,0 -0.777344,-0.117187 -1.089844,-0.318359 L 10.88476,12.557839 c -0.277359,-0.222642 -0.494142,-0.517577 -0.619141,-0.857422 l -0.05273,-0.158203 c -0.04883,-0.173828 -0.07422,-0.357421 -0.07422,-0.546875 0,-0.189453 0.02538,-0.373047 0.07422,-0.544922 l 0.05469,-0.164062 c 0.124998,-0.3378909 0.341798,-0.63086 0.617188,-0.8515628 L 11.048829,9.3156516 C 11.361328,9.1125268 11.73633,8.9953391 12.138673,8.9953391 Z" />
</svg>
