<?xml version="1.0" encoding="UTF-8" standalone="no"?>
<svg
   height="16px"
   viewBox="0 0 16 16"
   width="16px"
   version="1.1"
   id="svg30221"
   sodipodi:docname="warning-mono-source.svg"
   inkscape:version="1.2.1 (9c6d41e410, 2022-07-14)"
   xmlns:inkscape="http://www.inkscape.org/namespaces/inkscape"
   xmlns:sodipodi="http://sodipodi.sourceforge.net/DTD/sodipodi-0.dtd"
   xmlns="http://www.w3.org/2000/svg"
   xmlns:svg="http://www.w3.org/2000/svg"
   xmlns:rdf="http://www.w3.org/1999/02/22-rdf-syntax-ns#"
   xmlns:cc="http://creativecommons.org/ns#"
   xmlns:dc="http://purl.org/dc/elements/1.1/">
  <sodipodi:namedview
     id="namedview31386"
     pagecolor="#ffffff"
     bordercolor="#000000"
     borderopacity="0.25"
     inkscape:showpageshadow="2"
     inkscape:pageopacity="0.0"
     inkscape:pagecheckerboard="0"
     inkscape:deskcolor="#d1d1d1"
     showgrid="false"
     inkscape:zoom="3.8065882"
     inkscape:cx="26.927"
     inkscape:cy="2.3643219"
     inkscape:window-width="1280"
     inkscape:window-height="731"
     inkscape:window-x="0"
     inkscape:window-y="0"
     inkscape:window-maximized="1"
     inkscape:current-layer="layer9" />
  <defs
     id="defs30225">
    <linearGradient
       id="linearGradient7212"
       inkscape:swatch="solid">
      <stop
         id="stop7214"
         offset="0"
         style="stop-color:#000000;stop-opacity:1;" />
    </linearGradient>
  </defs>
  <title
     id="title9167">Gnome Symbolic Icon Theme</title>
  <g
     inkscape:groupmode="layer"
     id="layer9"
     inkscape:label="apps"
     style="display:inline"
     transform="translate(-443.30751,36.618087)">
    <g
       id="g31546"
       transform="translate(0.03045,-0.318135)">
      <path
         style="display:inline;opacity:1;vector-effect:none;fill:#2e3436;fill-opacity:1;stroke:none;stroke-width:1;stroke-linecap:butt;stroke-linejoin:bevel;stroke-miterlimit:4;stroke-dasharray:none;stroke-dashoffset:0;stroke-opacity:1;marker:none;marker-start:none;marker-mid:none;marker-end:none;paint-order:normal;enable-background:new"
         d="m 457.2639,-32.539557 -5.96212,3.44224 -5.96215,-3.44224 v 0 l 5.96215,-3.44226 z"
         id="path870-6"
         inkscape:connector-curvature="0"
         sodipodi:nodetypes="cccccc" />
      <path
         sodipodi:nodetypes="cccccc"
         inkscape:connector-curvature="0"
         id="path886-9"
         d="m 450.27677,-20.618087 -5.99273,-3.42041 -0.007,-6.97219 v 0 l 6.00018,3.4642 z"
         style="display:inline;opacity:1;vector-effect:none;fill:#2e3436;fill-opacity:1;stroke:none;stroke-width:1;stroke-linecap:butt;stroke-linejoin:bevel;stroke-miterlimit:4;stroke-dasharray:none;stroke-dashoffset:0;stroke-opacity:1;marker:none;marker-start:none;marker-mid:none;marker-end:none;paint-order:normal;enable-background:new" />
    </g>
    <path
       d="m 543.19733,-35.524337 c -0.52734,-0.02734 -1.03906,0.28125 -1.4375,0.96875 l -6.25,11.59375 c -0.53516,0.964843 0.0469,2.34375 1.09375,2.34375 h 13.15625 c 0.98047,0 1.90234,-1.160157 1.21875,-2.34375 l -6.3125,-11.53125 c -0.39844,-0.648438 -0.94141,-1.003907 -1.46875,-1.03125 z m 0.0625,3.9375 c 0.54297,-0.01953 1.04687,0.488281 1.03125,1.03125 v 3.9375 c 0.008,0.527343 -0.47266,1 -1,1 -0.52734,0 -1.00781,-0.472657 -1,-1 v -3.9375 c -0.008,-0.46875 0.35547,-0.914063 0.8125,-1 0.0508,-0.01563 0.10156,-0.02344 0.15625,-0.03125 z m 0.0312,6.96875 c 0.55078,0 1,0.449219 1,1 0,0.550781 -0.44922,1 -1,1 -0.55078,0 -1,-0.449219 -1,-1 0,-0.550781 0.44922,-1 1,-1 z m 0,0"
       fill="#222222"
       id="path1008" />
    <path
       class="error"
       d="m 479.3076,-35.618087 v 1 h -1 c 0,0 -0.70703,-0.01563 -1.44922,0.355469 -0.73828,0.371093 -1.55078,1.3125 -1.55078,2.644531 v 8 c 0,0 -0.0156,0.707031 0.35547,1.449219 0.37109,0.738281 1.3125,1.550781 2.64453,1.550781 h 2 v -2 h -2 c -0.55469,0 -1,-0.445312 -1,-1 v -8 c 0,-0.554688 0.44531,-1 1,-1 h 6 c 0.55469,0 1,0.445312 1,1 v 2 h 2 v -2 c 0,-1.332031 -0.8125,-2.273438 -1.55078,-2.644531 -0.74219,-0.371094 -1.44922,-0.355469 -1.44922,-0.355469 h -1 v -1 c 0,-1 -1,-1 -1,-1 h -2 c 0,0 -1,0 -1,1 z m 3.5,7 c -0.83203,0 -1.5,0.667969 -1.5,1.5 v 5 c 0,0.832031 0.66797,1.5 1.5,1.5 h 5 c 0.83203,0 1.5,-0.667969 1.5,-1.5 v -5 c 0,-0.832031 -0.66797,-1.5 -1.5,-1.5 z m 1.5,1 h 2 v 2.5 c 0,0 0,0.5 -0.5,0.5 h -1 c -0.5,0 -0.5,-0.5 -0.5,-0.5 z m 0.5,4 h 1 c 0.27734,0 0.5,0.222656 0.5,0.5 v 1 c 0,0.277344 -0.22266,0.5 -0.5,0.5 h -1 c -0.27734,0 -0.5,-0.222656 -0.5,-0.5 v -1 c 0,-0.277344 0.22266,-0.5 0.5,-0.5 z m 0,0"
       fill="#ed333b"
       id="path1017" />
    <path
       d="m 510.3076,-36.618087 c -1,0 -1,1 -1,1 v 1 h -1 c 0,0 -0.70703,-0.01563 -1.44922,0.355469 -0.73828,0.371093 -1.55078,1.3125 -1.55078,2.644531 v 8 c 0,0 -0.0156,0.707031 0.35547,1.449219 0.37109,0.738281 1.3125,1.550781 2.64453,1.550781 h 2 v -2 h -2 c -0.55469,0 -1,-0.445312 -1,-1 v -8 c 0,-0.554688 0.44531,-1 1,-1 h 6 c 0.55469,0 1,0.445312 1,1 v 2 h 2 v -2 c 0,-1.332031 -0.8125,-2.273438 -1.55078,-2.644531 -0.74219,-0.371094 -1.44922,-0.355469 -1.44922,-0.355469 h -1 v -1 c 0,-1 -1,-1 -1,-1 z m 0,0"
       fill="#2e3436"
       id="path1026" />
    <path
       class="error"
       d="m 508.3076,-24.618087 v 1 h 2 v -1 z m 0,0"
       fill="#ed333b"
       id="path1028" />
    <path
       class="warning"
       d="m 512.8076,-28.618087 c -0.83203,0 -1.5,0.667969 -1.5,1.5 v 5 c 0,0.832031 0.66797,1.5 1.5,1.5 h 5 c 0.83203,0 1.5,-0.667969 1.5,-1.5 v -5 c 0,-0.832031 -0.66797,-1.5 -1.5,-1.5 z m 1.5,1 h 2 v 2.5 c 0,0 0,0.5 -0.5,0.5 h -1 c -0.5,0 -0.5,-0.5 -0.5,-0.5 z m 0.5,4 h 1 c 0.27734,0 0.5,0.222656 0.5,0.5 v 1 c 0,0.277344 -0.22266,0.5 -0.5,0.5 h -1 c -0.27734,0 -0.5,-0.222656 -0.5,-0.5 v -1 c 0,-0.277344 0.22266,-0.5 0.5,-0.5 z m 0,0"
       fill="#ff7800"
       id="path1030" />
    <path
       class="warning"
       d="m 575.21451,-36.618087 c -0.25781,0 -0.51172,0.09766 -0.70703,0.292969 l -1.70703,1.707031 h -2.58594 c -0.55078,0 -1,0.449219 -1,1 v 2.585938 l -1.70703,1.707031 c -0.39063,0.390625 -0.39063,1.023437 0,1.414062 l 1.70703,1.707031 v 2.585938 c 0,0.550781 0.44922,1 1,1 h 2.58594 l 1.70703,1.707031 c 0.39062,0.390625 1.02344,0.390625 1.41406,0 l 1.70703,-1.707031 h 2.58594 c 0.55078,0 1,-0.449219 1,-1 v -2.585938 l 1.70703,-1.707031 c 0.39063,-0.390625 0.39063,-1.023437 0,-1.414062 l -1.70703,-1.707031 v -2.585938 c 0,-0.550781 -0.44922,-1 -1,-1 h -2.58594 l -1.70703,-1.707031 c -0.19531,-0.195313 -0.44922,-0.292969 -0.70703,-0.292969 z m -1,4 h 2 v 5 h -2 z m 1,5.75 c 0.6875,0 1.25,0.5625 1.25,1.25 0,0.6875 -0.5625,1.25 -1.25,1.25 -0.6875,0 -1.25,-0.5625 -1.25,-1.25 0,-0.6875 0.5625,-1.25 1.25,-1.25 z m 0,0"
       fill="#ff7800"
       id="path1041" />
    <path
       class="warning"
       d="m 452.80751,-4.618087 c -0.83203,0 -1.5,0.667969 -1.5,1.5 v 5 c 0,0.8320308 0.66797,1.4999998 1.5,1.4999998 h 5 c 0.83203,0 1.5,-0.667969 1.5,-1.4999998 v -5 c 0,-0.832031 -0.66797,-1.5 -1.5,-1.5 z m 1.5,1 h 2 v 2.5 c 0,0 0,0.5 -0.5,0.5 h -1 c -0.5,0 -0.5,-0.5 -0.5,-0.5 z m 0.5,4 h 1 c 0.27734,0 0.5,0.222656 0.5,0.5 v 1 c 0,0.2773438 -0.22266,0.4999998 -0.5,0.4999998 h -1 c -0.27734,0 -0.5,-0.222656 -0.5,-0.4999998 v -1 c 0,-0.277344 0.22266,-0.5 0.5,-0.5 z m 0,0"
       fill="#ff7800"
       id="path1086"
       style="fill:#ed333b;fill-opacity:1" />
    <path
       class="warning"
       d="m 452.80751,-16.618087 c -0.83203,0 -1.5,0.667969 -1.5,1.5 v 5 c 0,0.832031 0.66797,1.5 1.5,1.5 h 5 c 0.83203,0 1.5,-0.667969 1.5,-1.5 v -5 c 0,-0.832031 -0.66797,-1.5 -1.5,-1.5 z m 1.5,1 h 2 v 2.5 c 0,0 0,0.5 -0.5,0.5 h -1 c -0.5,0 -0.5,-0.5 -0.5,-0.5 z m 0.5,4 h 1 c 0.27734,0 0.5,0.222656 0.5,0.5 v 1 c 0,0.277344 -0.22266,0.5 -0.5,0.5 h -1 c -0.27734,0 -0.5,-0.222656 -0.5,-0.5 v -1 c 0,-0.277344 0.22266,-0.5 0.5,-0.5 z m 0,0"
       fill="#ff7800"
       id="path2056" />
  </g>
  <metadata
     id="metadata31564">
    <rdf:RDF>
      <cc:Work
         rdf:about="">
        <dc:title>Gnome Symbolic Icon Theme</dc:title>
      </cc:Work>
    </rdf:RDF>
  </metadata>
</svg>
