<?xml version="1.0" encoding="UTF-8" standalone="no"?>
<!-- Created with Inkscape (http://www.inkscape.org/) -->

<svg
   inkscape:export-ydpi="96"
   inkscape:export-xdpi="96"
   inkscape:export-filename="Template.png"
   width="192"
   height="152"
   id="svg11300"
   sodipodi:version="0.32"
   inkscape:version="1.2.1 (9c6d41e410, 2022-07-14)"
   sodipodi:docname="io.halfmexican.CHEECK.Source.svg"
   inkscape:output_extension="org.inkscape.output.svg.inkscape"
   version="1.0"
   style="display:inline;enable-background:new"
   viewBox="0 0 192 152"
   xmlns:inkscape="http://www.inkscape.org/namespaces/inkscape"
   xmlns:sodipodi="http://sodipodi.sourceforge.net/DTD/sodipodi-0.dtd"
   xmlns:xlink="http://www.w3.org/1999/xlink"
   xmlns="http://www.w3.org/2000/svg"
   xmlns:svg="http://www.w3.org/2000/svg"
   xmlns:rdf="http://www.w3.org/1999/02/22-rdf-syntax-ns#"
   xmlns:cc="http://creativecommons.org/ns#"
   xmlns:dc="http://purl.org/dc/elements/1.1/">
  <title
     id="title4162">Adwaita Icon Template</title>
  <defs
     id="defs3">
    <linearGradient
       inkscape:collect="always"
       id="linearGradient8015">
      <stop
         style="stop-color:#ed333b;stop-opacity:1;"
         offset="0"
         id="stop8013" />
      <stop
         style="stop-color:#c061cb;stop-opacity:1;"
         offset="1"
         id="stop8011" />
    </linearGradient>
    <linearGradient
       y2="236"
       x2="96"
       y1="236"
       x1="32"
       gradientTransform="translate(604.81684,170.58641)"
       gradientUnits="userSpaceOnUse"
       id="linearGradient1099"
       xlink:href="#linearGradient1036" />
    <linearGradient
       id="linearGradient1036">
      <stop
         id="stop1032"
         offset="0"
         style="stop-color:#d5d3cf;stop-opacity:1;" />
      <stop
         id="stop1034"
         offset="1"
         style="stop-color:#f6f5f4;stop-opacity:1" />
    </linearGradient>
    <radialGradient
       r="32"
       fy="-76"
       fx="-244"
       cy="-76"
       cx="-244"
       gradientTransform="matrix(0.88333331,0,0,0.88333331,-460.35018,463.11973)"
       gradientUnits="userSpaceOnUse"
       id="radialGradient1103"
       xlink:href="#linearGradient1069" />
    <linearGradient
       id="linearGradient1069">
      <stop
         id="stop1065"
         offset="0"
         style="stop-color:#d5d3cf;stop-opacity:1" />
      <stop
         id="stop1067-1"
         offset="1"
         style="stop-color:#949390;stop-opacity:1" />
    </linearGradient>
    <linearGradient
       gradientUnits="userSpaceOnUse"
       y2="232"
       x2="64"
       y1="262.5"
       x1="64"
       id="linearGradient1027"
       xlink:href="#linearGradient1025"
       gradientTransform="translate(-470.5864,432.81685)" />
    <linearGradient
       id="linearGradient1025">
      <stop
         id="stop1021"
         offset="0"
         style="stop-color:#9a9996;stop-opacity:1" />
      <stop
         id="stop1023"
         offset="1"
         style="stop-color:#77767b;stop-opacity:1" />
    </linearGradient>
    <inkscape:path-effect
       effect="spiro"
       id="path-effect35304-9"
       is_visible="true" />
    <clipPath
       clipPathUnits="userSpaceOnUse"
       id="clipPath1609-7">
      <path
         sodipodi:nodetypes="cccccc"
         inkscape:connector-curvature="0"
         id="path1611-5"
         d="m 252,116 28,-28 v -8 h -36 v 36 z"
         style="fill:#e74747;stroke:none;stroke-width:0.25px;stroke-linecap:butt;stroke-linejoin:miter;stroke-opacity:1" />
    </clipPath>
    <linearGradient
       id="linearGradient1697">
      <stop
         id="stop1685"
         offset="0"
         style="stop-color:#deddda;stop-opacity:1" />
      <stop
         style="stop-color:#eeeeec;stop-opacity:1"
         offset="0.04545455"
         id="stop1687" />
      <stop
         id="stop1689"
         offset="0.09090909"
         style="stop-color:#deddda;stop-opacity:1" />
      <stop
         style="stop-color:#deddda;stop-opacity:1"
         offset="0.90909094"
         id="stop1691" />
      <stop
         id="stop1693"
         offset="0.95454544"
         style="stop-color:#eeeeec;stop-opacity:1" />
      <stop
         id="stop1695"
         offset="1"
         style="stop-color:#c0bfbc;stop-opacity:1" />
    </linearGradient>
    <clipPath
       clipPathUnits="userSpaceOnUse"
       id="clipPath1289">
      <path
         style="display:inline;opacity:1;vector-effect:none;fill:none;fill-opacity:1;stroke:#000000;stroke-width:4;stroke-linecap:round;stroke-linejoin:round;stroke-miterlimit:4;stroke-dasharray:none;stroke-dashoffset:0;stroke-opacity:1;marker:none;marker-start:none;marker-mid:none;marker-end:none;paint-order:normal;enable-background:new"
         d="m 64,-148 h 64 l 64,-64 64,64 h 192 c 17.728,0 32,14.272 32,32 v 288 c 0,17.728 -14.272,32 -32,32 H 256 l -64,-64 -64,64 H 64 C 46.272,204 32,189.728 32,172 v -288 c 0,-17.728 14.408898,-34.19889 32,-32 z"
         id="path1291"
         inkscape:connector-curvature="0"
         sodipodi:nodetypes="scccsssscccssss" />
    </clipPath>
    <linearGradient
       id="paint3_linear-2-6-5"
       x2="1"
       gradientUnits="userSpaceOnUse"
       gradientTransform="matrix(0,6,-12,0,-64,209.99687)">
      <stop
         stop-color="#C01C27"
         id="stop91-0-7-4" />
      <stop
         offset="1"
         stop-color="#E01B24"
         id="stop93-2-5-7" />
    </linearGradient>
    <clipPath
       clipPathUnits="userSpaceOnUse"
       id="clipPath1609">
      <path
         sodipodi:nodetypes="cccccc"
         inkscape:connector-curvature="0"
         id="path1611"
         d="m 252,116 28,-28 v -8 h -36 v 36 z"
         style="fill:#e74747;stroke:none;stroke-width:0.25px;stroke-linecap:butt;stroke-linejoin:miter;stroke-opacity:1" />
    </clipPath>
    <linearGradient
       gradientTransform="matrix(0.25,0,0,0.25,4,225)"
       gradientUnits="userSpaceOnUse"
       y2="120"
       x2="416"
       y1="120"
       x1="384"
       id="linearGradient1053-2"
       xlink:href="#linearGradient1458" />
    <linearGradient
       id="linearGradient1458">
      <stop
         id="stop1452"
         offset="0"
         style="stop-color:#deddda;stop-opacity:1" />
      <stop
         style="stop-color:#ffffff;stop-opacity:1"
         offset="0.51104856"
         id="stop1454" />
      <stop
         id="stop1456"
         offset="1"
         style="stop-color:#c0bfbc;stop-opacity:1" />
    </linearGradient>
    <linearGradient
       id="d"
       gradientTransform="matrix(-1.0000002,8.8525387e-8,8.8525387e-8,1.0000002,-73.0994,133.20337)"
       x1="-231.10257"
       x2="-227.10257"
       xlink:href="#c"
       y1="131.79636"
       y2="131.79636" />
    <linearGradient
       id="c"
       gradientUnits="userSpaceOnUse">
      <stop
         offset="0"
         stop-color="#9a9996"
         id="stop4827" />
      <stop
         offset="1"
         stop-color="#f6f5f4"
         id="stop4829" />
    </linearGradient>
    <linearGradient
       id="e"
       gradientTransform="matrix(-1.0000002,8.8525387e-8,8.8525387e-8,1.0000002,-73.0994,133.20337)"
       gradientUnits="userSpaceOnUse"
       x1="-221.10257"
       x2="-237.10226"
       y1="92.796349"
       y2="92.796349">
      <stop
         offset="0"
         stop-color="#02ab90"
         id="stop4833" />
      <stop
         offset="1"
         stop-color="#09635f"
         id="stop4835" />
    </linearGradient>
    <linearGradient
       id="g"
       gradientTransform="matrix(-1.0000002,8.8525387e-8,-8.6969318e-8,0.50007879,-73.099397,179.59425)"
       x1="-221.10257"
       x2="-237.10257"
       xlink:href="#f"
       y1="92.796349"
       y2="92.796349" />
    <linearGradient
       id="f"
       gradientUnits="userSpaceOnUse">
      <stop
         offset="0"
         stop-color="#f6f5f4"
         id="stop4838" />
      <stop
         offset="1"
         stop-color="#9a9996"
         id="stop4840" />
    </linearGradient>
    <linearGradient
       id="h"
       gradientTransform="matrix(-1.0000002,8.8525387e-8,8.8525387e-8,1.0000002,-73.099743,133.20344)"
       x1="-231.10257"
       x2="-227.10257"
       xlink:href="#c"
       y1="131.79636"
       y2="131.79636" />
    <linearGradient
       id="i"
       gradientUnits="userSpaceOnUse"
       x1="88.039268"
       x2="103.49401"
       y1="43.360554"
       y2="47.501637"
       gradientTransform="rotate(-15,811.66242,-93.054396)">
      <stop
         offset="0"
         stop-color="#02ab90"
         id="stop4845"
         style="stop-color:#62a0ea;stop-opacity:1;" />
      <stop
         offset="0.25"
         stop-color="#02cbac"
         id="stop4847"
         style="stop-color:#99c1f1;stop-opacity:1;" />
      <stop
         offset="0.5"
         stop-color="#118d7e"
         id="stop4849"
         style="stop-color:#3584e4;stop-opacity:1;" />
      <stop
         offset="0.75"
         stop-color="#247b78"
         id="stop4851"
         style="stop-color:#1c71d8;stop-opacity:1;" />
      <stop
         offset="1"
         stop-color="#1f726e"
         id="stop4853"
         style="stop-color:#1a5fb4;stop-opacity:1;" />
    </linearGradient>
    <linearGradient
       id="j"
       gradientTransform="matrix(-1.0000002,8.8525387e-8,-8.6969318e-8,0.50007879,-73.099737,179.59433)"
       x1="-221.10257"
       x2="-237.10257"
       xlink:href="#f"
       y1="92.796349"
       y2="92.796349" />
    <linearGradient
       inkscape:collect="always"
       xlink:href="#c"
       id="linearGradient6412"
       gradientTransform="matrix(-1.0000002,8.8525387e-8,8.8525387e-8,1.0000002,-73.0994,133.20337)"
       x1="-231.10257"
       y1="131.79636"
       x2="-227.10257"
       y2="131.79636" />
    <linearGradient
       inkscape:collect="always"
       xlink:href="#e"
       id="linearGradient6414"
       gradientUnits="userSpaceOnUse"
       gradientTransform="matrix(-1.0000002,8.8525387e-8,8.8525387e-8,1.0000002,-73.0994,133.20337)"
       x1="-221.10257"
       y1="92.796349"
       x2="-237.10226"
       y2="92.796349" />
    <linearGradient
       inkscape:collect="always"
       xlink:href="#f"
       id="linearGradient6416"
       gradientTransform="matrix(-1.0000002,8.8525387e-8,-8.6969318e-8,0.50007879,-73.099397,179.59425)"
       x1="-221.10257"
       y1="92.796349"
       x2="-237.10257"
       y2="92.796349" />
    <linearGradient
       inkscape:collect="always"
       xlink:href="#c"
       id="linearGradient6418"
       gradientTransform="matrix(-1.0000002,8.8525387e-8,8.8525387e-8,1.0000002,-73.099743,133.20344)"
       x1="-231.10257"
       y1="131.79636"
       x2="-227.10257"
       y2="131.79636" />
    <linearGradient
       inkscape:collect="always"
       xlink:href="#i"
       id="linearGradient6420"
       gradientUnits="userSpaceOnUse"
       gradientTransform="rotate(-15,811.66242,-93.054396)"
       x1="88.039268"
       y1="43.360554"
       x2="103.49401"
       y2="47.501637" />
    <linearGradient
       inkscape:collect="always"
       xlink:href="#f"
       id="linearGradient6422"
       gradientTransform="matrix(-1.0000002,8.8525387e-8,-8.6969318e-8,0.50007879,-73.099737,179.59433)"
       x1="-221.10257"
       y1="92.796349"
       x2="-237.10257"
       y2="92.796349" />
    <linearGradient
       inkscape:collect="always"
       xlink:href="#linearGradient8015"
       id="linearGradient8017"
       x1="32"
       y1="188"
       x2="104"
       y2="276"
       gradientUnits="userSpaceOnUse" />
    <linearGradient
       inkscape:collect="always"
       xlink:href="#linearGradient8015"
       id="linearGradient8027"
       x1="32"
       y1="188"
       x2="104"
       y2="276"
       gradientUnits="userSpaceOnUse" />
    <linearGradient
       inkscape:collect="always"
       xlink:href="#linearGradient8015"
       id="linearGradient8037"
       x1="32"
       y1="188"
       x2="104"
       y2="276"
       gradientUnits="userSpaceOnUse" />
    <linearGradient
       inkscape:collect="always"
       xlink:href="#e"
       id="linearGradient11152"
       gradientUnits="userSpaceOnUse"
       gradientTransform="matrix(-1.0000002,8.8525387e-8,8.8525387e-8,1.0000002,-73.0994,133.20337)"
       x1="-221.10257"
       y1="92.796349"
       x2="-237.10226"
       y2="92.796349" />
    <linearGradient
       inkscape:collect="always"
       xlink:href="#i"
       id="linearGradient11154"
       gradientUnits="userSpaceOnUse"
       gradientTransform="rotate(-15,811.66242,-93.054396)"
       x1="88.039268"
       y1="43.360554"
       x2="103.49401"
       y2="47.501637" />
  </defs>
  <sodipodi:namedview
     stroke="#ef2929"
     fill="#f57900"
     id="base"
     pagecolor="#ffffff"
     bordercolor="#666666"
     borderopacity="0.25490196"
     inkscape:pageopacity="0.0"
     inkscape:pageshadow="2"
     inkscape:zoom="21.294655"
     inkscape:cx="175.56049"
     inkscape:cy="22.071267"
     inkscape:current-layer="layer9"
     showgrid="true"
     inkscape:grid-bbox="true"
     inkscape:document-units="px"
     inkscape:showpageshadow="false"
     inkscape:window-width="1280"
     inkscape:window-height="731"
     inkscape:window-x="0"
     inkscape:window-y="0"
     width="400px"
     height="300px"
     inkscape:snap-nodes="true"
     inkscape:snap-bbox="true"
     objecttolerance="7"
     gridtolerance="12"
     guidetolerance="13"
     inkscape:window-maximized="1"
     inkscape:pagecheckerboard="false"
     showguides="false"
     inkscape:guide-bbox="true"
     inkscape:locked="false"
     inkscape:measure-start="0,0"
     inkscape:measure-end="0,0"
     inkscape:object-nodes="true"
     inkscape:bbox-nodes="true"
     inkscape:snap-global="true"
     inkscape:object-paths="true"
     inkscape:snap-intersection-paths="true"
     inkscape:snap-bbox-edge-midpoints="true"
     inkscape:snap-bbox-midpoints="true"
     showborder="true"
     inkscape:snap-center="true"
     inkscape:snap-object-midpoints="true"
     inkscape:snap-midpoints="true"
     inkscape:snap-smooth-nodes="true"
     inkscape:snap-text-baseline="true"
     borderlayer="true"
     inkscape:deskcolor="#d1d1d1">
    <inkscape:grid
       type="xygrid"
       id="grid5883"
       spacingx="2"
       spacingy="2"
       enabled="true"
       visible="true"
       empspacing="4"
       originx="8"
       originy="8" />
    <sodipodi:guide
       position="72,16"
       orientation="0,1"
       id="guide1073"
       inkscape:locked="false"
       inkscape:label=""
       inkscape:color="rgb(0,0,255)" />
    <sodipodi:guide
       position="20,72"
       orientation="1,0"
       id="guide1075"
       inkscape:locked="false"
       inkscape:label=""
       inkscape:color="rgb(0,0,255)" />
    <sodipodi:guide
       position="72,112"
       orientation="0,1"
       id="guide1099"
       inkscape:locked="false"
       inkscape:label=""
       inkscape:color="rgb(0,0,255)" />
    <sodipodi:guide
       position="72,136"
       orientation="0,1"
       id="guide993"
       inkscape:locked="false"
       inkscape:label=""
       inkscape:color="rgb(0,0,255)" />
    <sodipodi:guide
       position="112,72"
       orientation="1,0"
       id="guide995"
       inkscape:locked="false"
       inkscape:label=""
       inkscape:color="rgb(0,0,255)" />
    <sodipodi:guide
       position="8.0000001,72"
       orientation="1,0"
       id="guide867"
       inkscape:locked="false"
       inkscape:label=""
       inkscape:color="rgb(0,0,255)" />
    <sodipodi:guide
       position="128,72"
       orientation="1,0"
       id="guide869"
       inkscape:locked="false"
       inkscape:label=""
       inkscape:color="rgb(0,0,255)" />
    <sodipodi:guide
       position="72,124"
       orientation="0,1"
       id="guide871"
       inkscape:locked="false"
       inkscape:label=""
       inkscape:color="rgb(0,0,255)" />
    <inkscape:grid
       type="xygrid"
       id="grid873"
       spacingx="1"
       spacingy="1"
       empspacing="8"
       color="#000000"
       opacity="0.49019608"
       empcolor="#000000"
       empopacity="0.08627451"
       dotted="true"
       originx="8"
       originy="8" />
    <sodipodi:guide
       position="32,72"
       orientation="1,0"
       id="guide877"
       inkscape:locked="false"
       inkscape:label=""
       inkscape:color="rgb(0,0,255)" />
    <sodipodi:guide
       position="124,72"
       orientation="1,0"
       id="guide879"
       inkscape:locked="false"
       inkscape:label=""
       inkscape:color="rgb(0,0,255)" />
    <sodipodi:guide
       position="72,128"
       orientation="0,1"
       id="guide881"
       inkscape:locked="false"
       inkscape:label=""
       inkscape:color="rgb(0,0,255)" />
    <sodipodi:guide
       position="72,20"
       orientation="0,1"
       id="guide883"
       inkscape:locked="false"
       inkscape:label=""
       inkscape:color="rgb(0,0,255)" />
    <sodipodi:guide
       position="16,72"
       orientation="1,0"
       id="guide885"
       inkscape:locked="false"
       inkscape:label=""
       inkscape:color="rgb(0,0,255)" />
    <sodipodi:guide
       position="136,72"
       orientation="1,0"
       id="guide887"
       inkscape:locked="false"
       inkscape:label=""
       inkscape:color="rgb(0,0,255)" />
    <sodipodi:guide
       position="72,8"
       orientation="0,1"
       id="guide897"
       inkscape:locked="false"
       inkscape:label=""
       inkscape:color="rgb(0,0,255)" />
    <sodipodi:guide
       position="72,32"
       orientation="0,1"
       id="guide899"
       inkscape:locked="false"
       inkscape:label=""
       inkscape:color="rgb(0,0,255)" />
    <sodipodi:guide
       position="264,264"
       orientation="-0.70710678,0.70710678"
       id="guide950"
       inkscape:locked="false"
       inkscape:label=""
       inkscape:color="rgb(0,0,255)" />
    <sodipodi:guide
       position="72,72"
       orientation="0.70710678,0.70710678"
       id="guide952"
       inkscape:locked="false"
       inkscape:label=""
       inkscape:color="rgb(0,0,255)" />
  </sodipodi:namedview>
  <metadata
     id="metadata4">
    <rdf:RDF>
      <cc:Work
         rdf:about="">
        <dc:format>image/svg+xml</dc:format>
        <dc:type
           rdf:resource="http://purl.org/dc/dcmitype/StillImage" />
        <dc:creator>
          <cc:Agent>
            <dc:title>GNOME Design Team</dc:title>
          </cc:Agent>
        </dc:creator>
        <dc:source />
        <cc:license
           rdf:resource="http://creativecommons.org/licenses/by-sa/4.0/" />
        <dc:title>Adwaita Icon Template</dc:title>
        <dc:subject>
          <rdf:Bag />
        </dc:subject>
        <dc:date />
        <dc:rights>
          <cc:Agent>
            <dc:title />
          </cc:Agent>
        </dc:rights>
        <dc:publisher>
          <cc:Agent>
            <dc:title />
          </cc:Agent>
        </dc:publisher>
        <dc:identifier />
        <dc:relation />
        <dc:language />
        <dc:coverage />
        <dc:description />
        <dc:contributor>
          <cc:Agent>
            <dc:title />
          </cc:Agent>
        </dc:contributor>
      </cc:Work>
      <cc:License
         rdf:about="http://creativecommons.org/licenses/by-sa/4.0/">
        <cc:permits
           rdf:resource="http://creativecommons.org/ns#Reproduction" />
        <cc:permits
           rdf:resource="http://creativecommons.org/ns#Distribution" />
        <cc:requires
           rdf:resource="http://creativecommons.org/ns#Notice" />
        <cc:requires
           rdf:resource="http://creativecommons.org/ns#Attribution" />
        <cc:permits
           rdf:resource="http://creativecommons.org/ns#DerivativeWorks" />
        <cc:requires
           rdf:resource="http://creativecommons.org/ns#ShareAlike" />
      </cc:License>
    </rdf:RDF>
  </metadata>
  <g
     id="layer1"
     inkscape:label="App Icon"
     inkscape:groupmode="layer"
     style="display:inline"
     transform="translate(8,-156)">
    <g
       inkscape:groupmode="layer"
       id="layer4"
       inkscape:label="template"
       style="display:inline"
       sodipodi:insensitive="true">
      <rect
         inkscape:label="0"
         y="172"
         x="9.2651362e-08"
         height="128"
         width="128"
         id="hicolor"
         style="display:inline;overflow:visible;visibility:visible;fill:#f0f0f0;fill-opacity:0;fill-rule:nonzero;stroke:none;stroke-width:0.5;marker:none;enable-background:accumulate" />
      <rect
         style="display:inline;overflow:visible;visibility:visible;fill:#f0f0f0;fill-opacity:0;fill-rule:nonzero;stroke:none;stroke-width:0.5;marker:none;enable-background:accumulate"
         id="symbolic"
         width="16"
         height="16"
         x="160"
         y="172"
         inkscape:label="0" />
    </g>
    <g
       inkscape:groupmode="layer"
       id="layer2"
       inkscape:label="baseplate"
       style="display:inline"
       sodipodi:insensitive="true">
      <g
         style="display:inline;fill:#000000;enable-background:new"
         transform="matrix(7.9911709,0,0,8.0036407,-167.7909,-4846.0776)"
         id="g12027"
         inkscape:export-xdpi="12"
         inkscape:export-ydpi="12" />
      <rect
         style="display:inline;overflow:visible;visibility:visible;fill:#f0f0f0;fill-opacity:1;fill-rule:nonzero;stroke:none;stroke-width:0.5;marker:none;enable-background:accumulate"
         id="128"
         width="128"
         height="128"
         x="9.2651362e-08"
         y="172"
         inkscape:label="0" />
      <g
         id="g883"
         style="fill:none;fill-opacity:0.25098;stroke:#a579b3;stroke-opacity:1"
         transform="translate(-24,24)" />
      <g
         id="g900"
         style="fill:none;fill-opacity:0.25098;stroke:#a579b3;stroke-opacity:1"
         transform="translate(-24,24)" />
      <rect
         inkscape:label=""
         y="172"
         x="160"
         height="16"
         width="16"
         id="16"
         style="display:inline;overflow:visible;visibility:visible;fill:#f0f0f0;fill-opacity:1;fill-rule:nonzero;stroke:none;stroke-width:0.5;marker:none;enable-background:accumulate" />
      <text
         xml:space="preserve"
         style="font-style:normal;font-variant:normal;font-weight:bold;font-stretch:normal;font-size:4px;line-height:125%;font-family:Cantarell;-inkscape-font-specification:'Cantarell, Bold';text-align:start;writing-mode:lr-tb;text-anchor:start;display:inline;fill:#000000;fill-opacity:1;stroke:none;stroke-width:0.332649;enable-background:new"
         x="0"
         y="167"
         id="text863"
         inkscape:label="icon-name"><tspan
           style="font-size:4px;stroke-width:0.332649"
           sodipodi:role="line"
           id="tspan861"
           x="0"
           y="167">Hicolor</tspan></text>
      <text
         inkscape:label="icon-name"
         id="text867"
         y="167"
         x="160"
         style="font-style:normal;font-variant:normal;font-weight:bold;font-stretch:normal;font-size:4px;line-height:125%;font-family:Cantarell;-inkscape-font-specification:'Cantarell, Bold';text-align:start;writing-mode:lr-tb;text-anchor:start;display:inline;fill:#000000;fill-opacity:1;stroke:none;stroke-width:0.332649;enable-background:new"
         xml:space="preserve"><tspan
           y="167"
           x="160"
           id="tspan865"
           sodipodi:role="line"
           style="font-size:4px;stroke-width:0.332649">Symbolic</tspan></text>
    </g>
    <g
       inkscape:groupmode="layer"
       id="layer9"
       inkscape:label="icons"
       style="display:inline">
      <g
         style="display:none"
         id="layer3-6">
        <circle
           style="display:inline;opacity:0.1;fill:none;fill-opacity:1;stroke:#000000;stroke-width:0.99;stroke-linecap:butt;stroke-linejoin:miter;stroke-miterlimit:4;stroke-dasharray:0.99, 0.99;stroke-dashoffset:0;stroke-opacity:1;marker:none;marker-start:none;marker-mid:none;marker-end:none;paint-order:normal;enable-background:new"
           id="circle2892-7"
           r="59.504131"
           cy="236"
           cx="64.000031" />
        <rect
           style="display:inline;opacity:0.1;fill:none;fill-opacity:1;stroke:#000000;stroke-width:0.99;stroke-linecap:butt;stroke-linejoin:miter;stroke-miterlimit:4;stroke-dasharray:0.99, 0.99;stroke-dashoffset:0;stroke-opacity:1;marker:none;marker-start:none;marker-mid:none;marker-end:none;paint-order:normal;enable-background:new"
           id="rect2894-5"
           width="87.009987"
           height="111.01005"
           x="20.495007"
           y="180.49496"
           rx="8.701004"
           ry="7.9292889" />
        <rect
           style="display:inline;opacity:0.1;fill:none;fill-opacity:1;stroke:#000000;stroke-width:0.99;stroke-linecap:butt;stroke-linejoin:miter;stroke-miterlimit:4;stroke-dasharray:0.99, 0.99;stroke-dashoffset:0;stroke-opacity:1;marker:none;marker-start:none;marker-mid:none;marker-end:none;paint-order:normal;enable-background:new"
           id="rect2896-3"
           width="103.00952"
           height="103.00952"
           x="12.495266"
           y="184.49524"
           rx="7.9238095"
           ry="7.9238095" />
        <rect
           style="display:inline;opacity:0.1;fill:none;fill-opacity:1;stroke:#000000;stroke-width:0.99;stroke-linecap:butt;stroke-linejoin:miter;stroke-miterlimit:4;stroke-dasharray:0.99, 0.99;stroke-dashoffset:0;stroke-opacity:1;marker:none;marker-start:none;marker-mid:none;marker-end:none;paint-order:normal;enable-background:new"
           id="rect2898-5"
           width="111.01004"
           height="87.010048"
           x="8.4950066"
           y="200.49496"
           rx="7.9292889"
           ry="8.701005" />
        <path
           style="display:inline;fill:none;stroke:#62a0ea;stroke-width:2;stroke-linecap:butt;stroke-linejoin:miter;stroke-miterlimit:4;stroke-dasharray:none;stroke-opacity:1;enable-background:new"
           d="M 2.6203015e-5,288.99999 H 128.00003"
           id="path2900-6" />
      </g>
      <path
         id="rect954-3"
         d="m 20,200 v 92 h 80 c 4.432,0 8,-3.568 8,-8 v -76 c 0,-4.432 -3.568,-8 -8,-8 z"
         style="display:inline;fill:url(#linearGradient8037);fill-opacity:1;stroke:none;stroke-width:6;stroke-linecap:butt;stroke-linejoin:miter;stroke-miterlimit:4;stroke-dasharray:none;stroke-dashoffset:0;stroke-opacity:1;marker:none;marker-start:none;marker-mid:none;marker-end:none;paint-order:normal;enable-background:new" />
      <path
         id="path8039"
         d="m 20,200 v 92 h 80 c 4.432,0 8,-3.568 8,-8 v -76 c 0,-4.432 -3.568,-8 -8,-8 z"
         fill-opacity="0.4"
         fill="#000000" />
      <path
         id="rect954-3-6-1"
         d="m 22,220 v 70 h 78 c 4.432,0 8,-3.568 8,-8 v -54 c 0,-4.432 -3.568,-8 -8,-8 z"
         style="display:inline;fill:url(#linearGradient1053-2);fill-opacity:1;stroke:none;stroke-width:6;stroke-linecap:butt;stroke-linejoin:miter;stroke-miterlimit:4;stroke-dasharray:none;stroke-dashoffset:0;stroke-opacity:1;marker:none;marker-start:none;marker-mid:none;marker-end:none;paint-order:normal;enable-background:new" />
      <path
         id="rect954-3-2"
         d="m 20,200 v 84 h 80 c 4.432,0 8,-3.568 8,-8 v -68 c 0,-4.432 -3.568,-8 -8,-8 z"
         style="display:inline;fill:url(#linearGradient8027);fill-opacity:1.0;stroke:none;stroke-width:6;stroke-linecap:butt;stroke-linejoin:miter;stroke-miterlimit:4;stroke-dasharray:none;stroke-dashoffset:0;stroke-opacity:1;marker:none;marker-start:none;marker-mid:none;marker-end:none;paint-order:normal;enable-background:new" />
      <path
         id="path8029"
         d="m 20,200 v 84 h 80 c 4.432,0 8,-3.568 8,-8 v -68 c 0,-4.432 -3.568,-8 -8,-8 z"
         fill-opacity="0.4"
         fill="#000000" />
      <path
         id="rect954-3-2-9-0-3"
         d="m 20,180 v 102 h 80 c 4.432,0 8,-3.568 8,-8 v -86 c 0,-4.432 -3.568,-8 -8,-8 z"
         style="display:inline;fill:url(#linearGradient8017);fill-opacity:1;stroke:none;stroke-width:6;stroke-linecap:butt;stroke-linejoin:miter;stroke-miterlimit:4;stroke-dasharray:none;stroke-dashoffset:0;stroke-opacity:1;marker:none;marker-start:none;marker-mid:none;marker-end:none;paint-order:normal;enable-background:new" />
      <path
         style="display:inline;opacity:0.2;fill:#ffffff;fill-opacity:1;stroke:none;stroke-width:6;stroke-linecap:butt;stroke-linejoin:miter;stroke-miterlimit:4;stroke-dasharray:none;stroke-dashoffset:0;stroke-opacity:1;marker:none;marker-start:none;marker-mid:none;marker-end:none;paint-order:normal;enable-background:new"
         d="m 22,180.00001 h 2 v 102 h -2 z"
         id="rect1366-2" />
      <g
         id="surface208719"
         transform="matrix(2.5,0,0,2.5,44.009765,211)"
         style="fill:#865e3c">
        <path
           style="fill:#f6d32d;fill-opacity:1;fill-rule:nonzero;stroke:none"
           d="m 11.453125,5.414062 c 0.789063,0.050782 1.144531,1.007813 0.585937,1.566407 l -3.988281,4.121093 c -0.359375,0.359376 -0.941406,0.359376 -1.300781,0 L 4.367188,8.800781 C 3.5,7.933594 4.800781,6.632812 5.667969,7.5 l 1.730469,1.652344 3.339843,-3.472656 c 0.1875,-0.191407 0.449219,-0.285157 0.714844,-0.265626 z m 0,0"
           id="path3199" />
        <path
           style="fill:#f6d32d;fill-opacity:1;fill-rule:nonzero;stroke:none"
           d="M 7.996094,0 C 3.59375,0 0,3.59375 0,8 c 0,4.40625 3.59375,8 7.996094,8 4.40625,0 7.996094,-3.59375 7.996094,-8 0,-4.40625 -3.589844,-8 -7.996094,-8 z m 0,2 c 3.324218,0 5.996094,2.675781 5.996094,6 0,3.324219 -2.671876,6 -5.996094,6 C 4.671875,14 2,11.324219 2,8 2,4.675781 4.671875,2 7.996094,2 Z m 0,0"
           id="path3201" />
      </g>
      <path
         id="path3225"
         style="fill:#e5a50a;fill-opacity:1;fill-rule:nonzero;stroke:none;stroke-width:2.5"
         d="M 72.394531 224.5293 C 71.818016 224.54799 71.265625 224.78051 70.855469 225.19922 L 62.505859 233.88086 L 58.179688 229.75 C 56.209533 227.77984 53.344299 230.28601 54.464844 232.38672 C 55.105994 231.13408 56.847013 230.41733 58.179688 231.75 L 62.505859 235.88086 L 70.855469 227.19922 C 71.324218 226.7207 71.978516 226.48634 72.642578 226.53516 C 73.546923 226.59336 74.219759 227.12991 74.552734 227.82617 C 75.234945 226.43861 74.344067 224.64466 72.642578 224.53516 C 72.55957 224.52905 72.476891 224.52663 72.394531 224.5293 z " />
      <path
         id="path3227"
         style="fill:#e5a50a;fill-opacity:1;fill-rule:nonzero;stroke:none;stroke-width:2.5"
         d="M 64 211 C 52.994151 211 44.009766 219.98438 44.009766 231 C 44.009766 231.33508 44.018726 231.66887 44.035156 232 C 44.55887 221.44552 53.328935 213 64 213 C 74.680533 213 83.44168 221.44552 83.964844 232 C 83.981257 231.66887 83.990234 231.33508 83.990234 231 C 83.990234 219.98438 75.015614 211 64 211 z M 49.046875 232 C 49.025273 232.33111 49.009766 232.66323 49.009766 233 C 49.009766 241.31054 55.689461 248 64 248 C 72.310537 248 78.990234 241.31054 78.990234 233 C 78.990234 232.66323 78.974727 232.33111 78.953125 232 C 78.441651 239.83972 71.973765 246 64 246 C 56.026233 246 49.558349 239.83972 49.046875 232 z " />
      <g
         id="g6388"
         transform="translate(60)">
        <path
           d="m 168.00294,197.99695 -6.00073,0.002 c -0.21036,-2.5e-4 -0.40784,0.0324 -0.59448,0.0905 -0.81445,0.25058 -1.40335,1.01094 -1.40529,1.90924 0.002,1.10765 0.89214,2.00135 1.99978,1.99978 l 7.99912,-1e-5 0.002,-1.9984 c -0.002,-1.10765 -0.89214,-2.00136 -2.0008,-2.00356 z m 0,0"
           fill="#c0bfbc"
           id="path4879" />
        <path
           d="m 156.00261,261.99851 c -1.10388,5.6e-4 -2.00034,0.89591 -1.99978,1.99978 l -10e-4,2.00217 c 5.6e-4,1.10388 0.89592,2.00035 2.00356,1.99877 1.10387,-5.7e-4 1.99656,-0.8949 1.99978,-1.99979 l -0.002,-2.00116 c -5.6e-4,-1.10387 -0.8949,-1.99657 -1.99978,-1.99977 z m 0,0"
           fill="url(#d)"
           id="path4881"
           style="fill:url(#d)" />
        <path
           d="m 150.80956,192.17835 c -1.62791,0.50494 -2.80671,2.02188 -2.80581,3.82124 l -0.004,15.99926 0.005,2.93066 -0.005,1.0689 c 0.001,0.004 0.005,0.003 0.001,0.004 l 4e-5,15.99825 c 0,7.99912 0.001,28.0007 6.00178,31.99786 l 4.00057,0.004 c 6.00071,-4.00197 5.99967,-24.00354 5.99966,-32.00267 l -3e-5,-15.99824 -0.001,-1.07544 0.001,-2.92413 0.003,-16.00302 c -0.003,-2.2153 -1.78704,-3.99793 -4.00334,-3.99855 l -7.99912,1e-5 c -0.41695,-0.002 -0.81569,0.0649 -1.19374,0.17833 z m 0,0"
           fill="url(#e)"
           id="path4883"
           style="fill:url(#linearGradient11152)" />
        <path
           d="m 164.00443,225.99766 -16.00202,0.001 0.002,2.00116 15.99824,-3e-5 z m 0,0"
           fill="url(#g)"
           id="path4885"
           style="fill:url(#g)" />
        <path
           d="m 166.00178,201.99891 0.002,2.00116 -0.002,1.9984 0.001,16.00201 c 0.002,1.10765 0.89213,2.00136 1.99978,1.99978 1.10764,-0.002 2.00135,-0.89213 1.99978,-1.99978 l -4e-5,-15.99825 0.001,-2.00217 -0.002,-2.00116 -1.99739,0.001 z m 0,0"
           fill="#c0bfbc"
           id="path4887" />
        <path
           d="m 168.00294,197.99695 -6.00073,0.002 c -0.21036,-2.5e-4 -0.40784,0.0324 -0.59448,0.0905 -0.81445,0.25058 -1.40335,1.01094 -1.40529,1.90924 0.002,1.10765 0.89214,2.00135 1.99978,1.99978 l 7.99912,-1e-5 0.002,-1.9984 c -0.002,-1.10765 -0.89214,-2.00136 -2.0008,-2.00356 z m 0,0"
           fill="#c0bfbc"
           id="path4893" />
        <path
           d="m 156.00261,281.99851 c -1.10388,5.6e-4 -2.00034,0.89591 -1.99978,1.99978 l -10e-4,2.00217 c 5.6e-4,1.10388 0.89592,2.00035 1.99978,1.99978 1.10765,-0.002 2.00034,-0.89591 1.99978,-1.99978 l 0.001,-2.00218 c -5.6e-4,-1.10387 -0.8949,-1.99657 -1.99978,-1.99977 z"
           fill="url(#h)"
           id="path4895"
           style="fill:url(#h)"
           sodipodi:nodetypes="ccccccc" />
        <path
           d="m 166.00178,201.99891 0.002,2.00116 -0.002,1.9984 0.001,16.00201 c 0.002,1.10765 0.89213,2.00136 1.99978,1.99978 1.10764,-0.002 2.00135,-0.89213 1.99978,-1.99978 l -4e-5,-15.99825 0.001,-2.00217 -0.002,-2.00116 -1.99739,0.001 z m 0,0"
           fill="#c0bfbc"
           id="path4897" />
        <path
           d="m 150.80956,192.17835 c -1.62791,0.50494 -2.80671,2.02188 -2.80581,3.82124 l -0.004,15.99926 9.9e-4,2.93167 -9.9e-4,1.06789 0.001,0.004 4e-5,35.99825 c 0,7.99912 0.001,28.0007 6.00178,31.99786 l 3.99956,-10e-6 c 6.00172,-3.99819 6.00068,-23.99976 6.00067,-31.99889 l -0.001,-36.00202 -2e-5,-1.07166 2e-5,-2.9279 -3e-5,-15.99824 c 6.2e-4,-2.21631 -1.78327,-3.99894 -3.99957,-3.99956 l -7.99912,1e-5 c -0.41695,-0.002 -0.81569,0.0649 -1.19374,0.17833 z"
           fill="url(#i)"
           id="path4899"
           style="fill:url(#linearGradient11154)"
           sodipodi:nodetypes="cccccccccccccccccc" />
        <path
           d="m 164.00066,225.99867 -15.99825,3e-5 -0.001,2.00217 16.00202,-0.001 z m 0,0"
           fill="url(#j)"
           id="path4901"
           style="fill:url(#j)" />
      </g>
      <g
         id="g6410"
         transform="rotate(30,133.06444,125.35311)">
        <path
           d="m 168.00294,197.99695 -6.00073,0.002 c -0.21036,-2.5e-4 -0.40784,0.0324 -0.59448,0.0905 -0.81445,0.25058 -1.40335,1.01094 -1.40529,1.90924 0.002,1.10765 0.89214,2.00135 1.99978,1.99978 l 7.99912,-1e-5 0.002,-1.9984 c -0.002,-1.10765 -0.89214,-2.00136 -2.0008,-2.00356 z m 0,0"
           fill="#c0bfbc"
           id="path6390" />
        <path
           d="m 156.00261,261.99851 c -1.10388,5.6e-4 -2.00034,0.89591 -1.99978,1.99978 l -10e-4,2.00217 c 5.6e-4,1.10388 0.89592,2.00035 2.00356,1.99877 1.10387,-5.7e-4 1.99656,-0.8949 1.99978,-1.99979 l -0.002,-2.00116 c -5.6e-4,-1.10387 -0.8949,-1.99657 -1.99978,-1.99977 z m 0,0"
           fill="url(#d)"
           id="path6392"
           style="fill:url(#linearGradient6412)" />
        <path
           d="m 150.80956,192.17835 c -1.62791,0.50494 -2.80671,2.02188 -2.80581,3.82124 l -0.004,15.99926 0.005,2.93066 -0.005,1.0689 c 0.001,0.004 0.005,0.003 0.001,0.004 l 4e-5,15.99825 c 0,7.99912 0.001,28.0007 6.00178,31.99786 l 4.00057,0.004 c 6.00071,-4.00197 5.99967,-24.00354 5.99966,-32.00267 l -3e-5,-15.99824 -0.001,-1.07544 0.001,-2.92413 0.003,-16.00302 c -0.003,-2.2153 -1.78704,-3.99793 -4.00334,-3.99855 l -7.99912,1e-5 c -0.41695,-0.002 -0.81569,0.0649 -1.19374,0.17833 z m 0,0"
           fill="url(#e)"
           id="path6394"
           style="fill:url(#linearGradient6414)" />
        <path
           d="m 164.00443,225.99766 -16.00202,0.001 0.002,2.00116 15.99824,-3e-5 z m 0,0"
           fill="url(#g)"
           id="path6396"
           style="fill:url(#linearGradient6416)" />
        <path
           d="m 166.00178,201.99891 0.002,2.00116 -0.002,1.9984 0.001,16.00201 c 0.002,1.10765 0.89213,2.00136 1.99978,1.99978 1.10764,-0.002 2.00135,-0.89213 1.99978,-1.99978 l -4e-5,-15.99825 0.001,-2.00217 -0.002,-2.00116 -1.99739,0.001 z m 0,0"
           fill="#c0bfbc"
           id="path6398" />
        <path
           d="m 168.00294,197.99695 -6.00073,0.002 c -0.21036,-2.5e-4 -0.40784,0.0324 -0.59448,0.0905 -0.81445,0.25058 -1.40335,1.01094 -1.40529,1.90924 0.002,1.10765 0.89214,2.00135 1.99978,1.99978 l 7.99912,-1e-5 0.002,-1.9984 c -0.002,-1.10765 -0.89214,-2.00136 -2.0008,-2.00356 z m 0,0"
           fill="#c0bfbc"
           id="path6400" />
        <path
           d="m 156.00261,281.99851 c -1.10388,5.6e-4 -2.00034,0.89591 -1.99978,1.99978 l -10e-4,2.00217 c 5.6e-4,1.10388 0.89592,2.00035 1.99978,1.99978 1.10765,-0.002 2.00034,-0.89591 1.99978,-1.99978 l 0.001,-2.00218 c -5.6e-4,-1.10387 -0.8949,-1.99657 -1.99978,-1.99977 z"
           fill="url(#h)"
           id="path6402"
           style="fill:url(#linearGradient6418)"
           sodipodi:nodetypes="ccccccc" />
        <path
           d="m 166.00178,201.99891 0.002,2.00116 -0.002,1.9984 0.001,16.00201 c 0.002,1.10765 0.89213,2.00136 1.99978,1.99978 1.10764,-0.002 2.00135,-0.89213 1.99978,-1.99978 l -4e-5,-15.99825 0.001,-2.00217 -0.002,-2.00116 -1.99739,0.001 z m 0,0"
           fill="#c0bfbc"
           id="path6404" />
        <path
           d="m 150.80956,192.17835 c -1.62791,0.50494 -2.80671,2.02188 -2.80581,3.82124 l -0.004,15.99926 9.9e-4,2.93167 -9.9e-4,1.06789 0.001,0.004 4e-5,35.99825 c 0,7.99912 0.001,28.0007 6.00178,31.99786 l 3.99956,-10e-6 c 6.00172,-3.99819 6.00068,-23.99976 6.00067,-31.99889 l -0.001,-36.00202 -2e-5,-1.07166 2e-5,-2.9279 -3e-5,-15.99824 c 6.2e-4,-2.21631 -1.78327,-3.99894 -3.99957,-3.99956 l -7.99912,1e-5 c -0.41695,-0.002 -0.81569,0.0649 -1.19374,0.17833 z"
           fill="url(#i)"
           id="path6406"
           style="fill:url(#linearGradient6420)"
           sodipodi:nodetypes="cccccccccccccccccc" />
        <path
           d="m 164.00066,225.99867 -15.99825,3e-5 -0.001,2.00217 16.00202,-0.001 z m 0,0"
           fill="url(#j)"
           id="path6408"
           style="fill:url(#linearGradient6422)" />
      </g>
      <path
         d="m 164,172.9998 c -2,0 -2,2 -2,2 h 11 v 11 h -11 c 0,0 0,2 2,2 h 9 c 0,0 0.45703,0.0156 0.94922,-0.23047 C 174.4375,187.52324 175,186.83183 175,185.9998 v -11 c 0,-0.83203 -0.5625,-1.52344 -1.05078,-1.76953 C 173.45703,172.98417 173,172.9998 173,172.9998 Z m -2.5,3 c -0.27734,0 -0.5,0.22266 -0.5,0.5 0,0.27734 0.22266,0.5 0.5,0.5 h 2 c 0.27734,0 0.5,-0.22266 0.5,-0.5 0,-0.27734 -0.22266,-0.5 -0.5,-0.5 z m 0,2 c -0.27734,0 -0.5,0.22266 -0.5,0.5 0,0.27734 0.22266,0.5 0.5,0.5 h 2 c 0.27734,0 0.5,-0.22266 0.5,-0.5 0,-0.27734 -0.22266,-0.5 -0.5,-0.5 z m 0,2 c -0.27734,0 -0.5,0.22266 -0.5,0.5 0,0.27734 0.22266,0.5 0.5,0.5 h 2 c 0.27734,0 0.5,-0.22266 0.5,-0.5 0,-0.27734 -0.22266,-0.5 -0.5,-0.5 z m 0,2 c -0.27734,0 -0.5,0.22266 -0.5,0.5 0,0.27734 0.22266,0.5 0.5,0.5 h 2 c 0.27734,0 0.5,-0.22266 0.5,-0.5 0,-0.27734 -0.22266,-0.5 -0.5,-0.5 z m 0,2 c -0.27734,0 -0.5,0.22266 -0.5,0.5 0,0.27734 0.22266,0.5 0.5,0.5 h 2 c 0.27734,0 0.5,-0.22266 0.5,-0.5 0,-0.27734 -0.22266,-0.5 -0.5,-0.5 z"
         fill="#222222"
         id="path11184"
         sodipodi:nodetypes="sccccsccssccssssssssssssssssssssssssssssssssssss"
         style="fill:#241f31" />
      <g
         id="surface208719-9"
         transform="matrix(0.67118963,0,0,0.67118963,162.49894,174.86764)"
         style="fill:#241f31">
        <path
           style="fill:#241f31;fill-opacity:1;fill-rule:nonzero;stroke:none"
           d="m 11.453125,5.414062 c 0.789063,0.050782 1.144531,1.007813 0.585937,1.566407 l -3.988281,4.121093 c -0.359375,0.359376 -0.941406,0.359376 -1.300781,0 L 4.367188,8.800781 C 3.5,7.933594 4.800781,6.632812 5.667969,7.5 l 1.730469,1.652344 3.339843,-3.472656 c 0.1875,-0.191407 0.449219,-0.285157 0.714844,-0.265626 z m 0,0"
           id="path11193" />
      </g>
    </g>
    <g
       inkscape:groupmode="layer"
       id="layer3"
       inkscape:label="grid"
       style="display:inline"
       sodipodi:insensitive="true">
      <circle
         cx="64.000031"
         cy="236"
         r="59.504131"
         id="circle2892"
         style="display:inline;opacity:0.1;vector-effect:none;fill:none;fill-opacity:1;stroke:#000000;stroke-width:0.99000001;stroke-linecap:butt;stroke-linejoin:miter;stroke-miterlimit:4;stroke-dasharray:0.99000001, 0.99000001;stroke-dashoffset:0;stroke-opacity:1;marker:none;marker-start:none;marker-mid:none;marker-end:none;paint-order:normal;enable-background:new" />
      <rect
         ry="7.9292889"
         rx="8.701004"
         y="180.49496"
         x="20.495007"
         height="111.01005"
         width="87.009987"
         id="rect2894"
         style="display:inline;opacity:0.1;vector-effect:none;fill:none;fill-opacity:1;stroke:#000000;stroke-width:0.99000001;stroke-linecap:butt;stroke-linejoin:miter;stroke-miterlimit:4;stroke-dasharray:0.99000001, 0.99000001;stroke-dashoffset:0;stroke-opacity:1;marker:none;marker-start:none;marker-mid:none;marker-end:none;paint-order:normal;enable-background:new" />
      <rect
         ry="7.9238095"
         rx="7.9238095"
         y="184.49524"
         x="12.495266"
         height="103.00952"
         width="103.00952"
         id="rect2896"
         style="display:inline;opacity:0.1;vector-effect:none;fill:none;fill-opacity:1;stroke:#000000;stroke-width:0.99000001;stroke-linecap:butt;stroke-linejoin:miter;stroke-miterlimit:4;stroke-dasharray:0.99000001, 0.99000001;stroke-dashoffset:0;stroke-opacity:1;marker:none;marker-start:none;marker-mid:none;marker-end:none;paint-order:normal;enable-background:new" />
      <rect
         ry="8.701005"
         rx="7.9292889"
         y="200.49496"
         x="8.4950066"
         height="87.010048"
         width="111.01004"
         id="rect2898"
         style="display:inline;opacity:0.1;vector-effect:none;fill:none;fill-opacity:1;stroke:#000000;stroke-width:0.99000001;stroke-linecap:butt;stroke-linejoin:miter;stroke-miterlimit:4;stroke-dasharray:0.99000001, 0.99000001;stroke-dashoffset:0;stroke-opacity:1;marker:none;marker-start:none;marker-mid:none;marker-end:none;paint-order:normal;enable-background:new" />
      <path
         inkscape:connector-curvature="0"
         id="path2900"
         d="M 2.6203015e-5,288.99999 H 128.00003"
         style="display:inline;fill:none;stroke:#62a0ea;stroke-width:2;stroke-linecap:butt;stroke-linejoin:miter;stroke-miterlimit:4;stroke-dasharray:none;stroke-opacity:1;enable-background:new" />
    </g>
  </g>
</svg>
