<?xml version="1.0" encoding="UTF-8"?>
<svg height="128px" viewBox="0 0 128 128" width="128px" xmlns="http://www.w3.org/2000/svg" xmlns:xlink="http://www.w3.org/1999/xlink">
    <clipPath id="a">
        <path d="m 8 28 h 112 v 16 h -112 z m 0 0"/>
    </clipPath>
    <clipPath id="b">
        <path d="m 16 28 h 96 c 4.417969 0 8 3.582031 8 8 v 72 c 0 4.417969 -3.582031 8 -8 8 h -96 c -4.417969 0 -8 -3.582031 -8 -8 v -72 c 0 -4.417969 3.582031 -8 8 -8 z m 0 0"/>
    </clipPath>
    <filter id="c" height="100%" width="100%" x="0%" y="0%">
        <feColorMatrix in="SourceGraphic" type="matrix" values="0 0 0 0 1 0 0 0 0 1 0 0 0 0 1 0 0 0 1 0"/>
    </filter>
    <mask id="d">
        <g filter="url(#c)">
            <rect fill-opacity="0.7" height="128" width="128"/>
        </g>
    </mask>
    <clipPath id="e">
        <path d="m 8 38 h 46 v 67 h -46 z m 0 0"/>
    </clipPath>
    <clipPath id="f">
        <path d="m 16 28 h 96 c 4.417969 0 8 3.582031 8 8 v 72 c 0 4.417969 -3.582031 8 -8 8 h -96 c -4.417969 0 -8 -3.582031 -8 -8 v -72 c 0 -4.417969 3.582031 -8 8 -8 z m 0 0"/>
    </clipPath>
    <clipPath id="g">
        <path d="m 8 30 h 54 v 67 h -54 z m 0 0"/>
    </clipPath>
    <clipPath id="h">
        <path d="m 16 28 h 96 c 4.417969 0 8 3.582031 8 8 v 72 c 0 4.417969 -3.582031 8 -8 8 h -96 c -4.417969 0 -8 -3.582031 -8 -8 v -72 c 0 -4.417969 3.582031 -8 8 -8 z m 0 0"/>
    </clipPath>
    <clipPath id="i">
        <path d="m 8 28 h 62 v 62 h -62 z m 0 0"/>
    </clipPath>
    <clipPath id="j">
        <path d="m 16 28 h 96 c 4.417969 0 8 3.582031 8 8 v 72 c 0 4.417969 -3.582031 8 -8 8 h -96 c -4.417969 0 -8 -3.582031 -8 -8 v -72 c 0 -4.417969 3.582031 -8 8 -8 z m 0 0"/>
    </clipPath>
    <clipPath id="k">
        <path d="m 10 28 h 68 v 54 h -68 z m 0 0"/>
    </clipPath>
    <clipPath id="l">
        <path d="m 16 28 h 96 c 4.417969 0 8 3.582031 8 8 v 72 c 0 4.417969 -3.582031 8 -8 8 h -96 c -4.417969 0 -8 -3.582031 -8 -8 v -72 c 0 -4.417969 3.582031 -8 8 -8 z m 0 0"/>
    </clipPath>
    <clipPath id="m">
        <path d="m 18 28 h 67 v 46 h -67 z m 0 0"/>
    </clipPath>
    <clipPath id="n">
        <path d="m 16 28 h 96 c 4.417969 0 8 3.582031 8 8 v 72 c 0 4.417969 -3.582031 8 -8 8 h -96 c -4.417969 0 -8 -3.582031 -8 -8 v -72 c 0 -4.417969 3.582031 -8 8 -8 z m 0 0"/>
    </clipPath>
    <clipPath id="o">
        <path d="m 26 28 h 67 v 38 h -67 z m 0 0"/>
    </clipPath>
    <clipPath id="p">
        <path d="m 16 28 h 96 c 4.417969 0 8 3.582031 8 8 v 72 c 0 4.417969 -3.582031 8 -8 8 h -96 c -4.417969 0 -8 -3.582031 -8 -8 v -72 c 0 -4.417969 3.582031 -8 8 -8 z m 0 0"/>
    </clipPath>
    <clipPath id="q">
        <rect height="128" width="128"/>
    </clipPath>
    <linearGradient id="r" gradientUnits="userSpaceOnUse">
        <stop offset="0.5" stop-color="#ffffff"/>
        <stop offset="1" stop-color="#9a9996"/>
    </linearGradient>
    <radialGradient id="s" cx="291.101562" cy="257.046875" gradientTransform="matrix(0.846181 -0.846181 0.846181 0.846181 -356.731455 95.351633)" r="1.884765" xlink:href="#r"/>
    <radialGradient id="t" cx="291.101562" cy="243.330078" gradientTransform="matrix(0.846181 -0.846181 0.846181 0.846181 -356.731455 95.351633)" r="1.884765" xlink:href="#r"/>
    <radialGradient id="u" cx="260.280762" cy="257.527344" gradientTransform="matrix(0.846181 -0.846181 0.846181 0.846181 -356.731455 95.351633)" r="1.884765" xlink:href="#r"/>
    <linearGradient id="v" gradientUnits="userSpaceOnUse">
        <stop offset="0" stop-color="#9a9996"/>
        <stop offset="0.5" stop-color="#ffffff"/>
        <stop offset="1" stop-color="#c0bfbc"/>
    </linearGradient>
    <linearGradient id="w" gradientTransform="matrix(0.846181 -0.846181 0.846181 0.846181 -356.731455 95.351633)" x1="261.685059" x2="258.395996" xlink:href="#v" y1="262.676758" y2="262.676758"/>
    <linearGradient id="x" gradientTransform="matrix(0.846181 -0.846181 0.846181 0.846181 -356.731455 95.351633)" x1="275.689941" x2="275.689941" xlink:href="#v" y1="258.931641" y2="255.642578"/>
    <linearGradient id="y" gradientTransform="matrix(0.846181 -0.846181 0.846181 0.846181 -356.731455 95.351633)" x1="292.986328" x2="289.695312" xlink:href="#v" y1="250.188477" y2="250.188477"/>
    <linearGradient id="z" gradientTransform="matrix(0.846181 -0.846181 0.846181 0.846181 -356.731455 95.351633)" x1="288.698242" x2="288.698242" xlink:href="#v" y1="241.445312" y2="244.734375"/>
    <linearGradient id="A" gradientTransform="matrix(1.294637 -1.294637 1.294637 1.294637 -497.72168 -19.38547)" gradientUnits="userSpaceOnUse" x1="177.470078" x2="182.736496" y1="282.933533" y2="282.933533">
        <stop offset="0" stop-color="#865e3c"/>
        <stop offset="0.4" stop-color="#b5835a"/>
        <stop offset="0.6" stop-color="#b5835a"/>
        <stop offset="1" stop-color="#865e3c"/>
    </linearGradient>
    <linearGradient id="B" gradientTransform="matrix(0.846181 -0.846181 0.846181 0.846181 -289.310308 5.01147)" gradientUnits="userSpaceOnUse" x1="145.820236" x2="145.820236" y1="247.632492" y2="265.632507">
        <stop offset="0" stop-color="#1a5fb4"/>
        <stop offset="0.22" stop-color="#3584e4"/>
        <stop offset="0.44" stop-color="#62a0ea"/>
        <stop offset="0.56" stop-color="#62a0ea"/>
        <stop offset="0.78" stop-color="#3584e4"/>
        <stop offset="1" stop-color="#1a5fb4"/>
    </linearGradient>
    <linearGradient id="C" gradientTransform="matrix(0.846181 -0.846181 0.846181 0.846181 -289.310308 5.01147)" gradientUnits="userSpaceOnUse" x1="152.820221" x2="152.820221" y1="247.632492" y2="265.632507">
        <stop offset="0" stop-color="#26a269"/>
        <stop offset="0.22" stop-color="#33d17a"/>
        <stop offset="0.44" stop-color="#57e389"/>
        <stop offset="0.56" stop-color="#57e389"/>
        <stop offset="0.78" stop-color="#33d17a"/>
        <stop offset="1" stop-color="#26a269"/>
    </linearGradient>
    <linearGradient id="D" gradientTransform="matrix(0.846181 -0.846181 0.846181 0.846181 -289.310308 5.01147)" gradientUnits="userSpaceOnUse" x1="162.153564" x2="162.785706" y1="247.632492" y2="265.632507">
        <stop offset="0" stop-color="#e5a50a"/>
        <stop offset="0.22" stop-color="#f6d32d"/>
        <stop offset="0.44" stop-color="#f8e45c"/>
        <stop offset="0.56" stop-color="#f8e45c"/>
        <stop offset="0.78" stop-color="#f6d32d"/>
        <stop offset="1" stop-color="#e5a50a"/>
    </linearGradient>
    <linearGradient id="E" gradientTransform="matrix(0.846181 -0.846181 0.846181 0.846181 -289.310308 5.01147)" gradientUnits="userSpaceOnUse" x1="171.486908" x2="171.486908" y1="247.632492" y2="265.632507">
        <stop offset="0" stop-color="#c64600"/>
        <stop offset="0.22" stop-color="#ff7800"/>
        <stop offset="0.44" stop-color="#ffa348"/>
        <stop offset="0.56" stop-color="#ffa348"/>
        <stop offset="0.78" stop-color="#ff7800"/>
        <stop offset="1" stop-color="#c64600"/>
    </linearGradient>
    <linearGradient id="F" gradientTransform="matrix(0.846181 -0.846181 0.846181 0.846181 -289.310308 5.01147)" gradientUnits="userSpaceOnUse" x1="187.820236" x2="187.820236" y1="247.632492" y2="265.632507">
        <stop offset="0" stop-color="#613583"/>
        <stop offset="0.22" stop-color="#9141ac"/>
        <stop offset="0.44" stop-color="#c061cb"/>
        <stop offset="0.56" stop-color="#c061cb"/>
        <stop offset="0.78" stop-color="#9141ac"/>
        <stop offset="1" stop-color="#613583"/>
    </linearGradient>
    <linearGradient id="G" gradientTransform="matrix(0.846181 -0.846181 0.846181 0.846181 -289.310308 5.01147)" gradientUnits="userSpaceOnUse" x1="180.820221" x2="180.820236" y1="247.632492" y2="265.632507">
        <stop offset="0" stop-color="#a51d2d"/>
        <stop offset="0.22" stop-color="#e01b24"/>
        <stop offset="0.44" stop-color="#ed333b"/>
        <stop offset="0.56" stop-color="#ed333b"/>
        <stop offset="0.78" stop-color="#e01b24"/>
        <stop offset="1" stop-color="#a51d2d"/>
    </linearGradient>
    <path d="m 16 42 h 96 c 4.417969 0 8 3.582031 8 8 v 60 c 0 4.417969 -3.582031 8 -8 8 h -96 c -4.417969 0 -8 -3.582031 -8 -8 v -60 c 0 -4.417969 3.582031 -8 8 -8 z m 0 0" fill="#d5d3cf"/>
    <path d="m 16 28 h 96 c 4.417969 0 8 3.582031 8 8 v 72 c 0 4.417969 -3.582031 8 -8 8 h -96 c -4.417969 0 -8 -3.582031 -8 -8 v -72 c 0 -4.417969 3.582031 -8 8 -8 z m 0 0" fill="#fafafa"/>
    <g clip-path="url(#a)">
        <g clip-path="url(#b)">
            <path d="m 8 28 h 112 v 16 h -112 z m 0 0" fill="#ebebeb"/>
        </g>
    </g>
    <path d="m 117 36 c 0 2.761719 -2.238281 5 -5 5 s -5 -2.238281 -5 -5 s 2.238281 -5 5 -5 s 5 2.238281 5 5 z m 0 0" fill="#d8d8d8"/>
    <path d="m 109.503906 33.5 h 0.425782 c 0.105468 0.003906 0.214843 0.054688 0.289062 0.128906 l 1.78125 1.785156 l 1.796875 -1.785156 c 0.109375 -0.09375 0.183594 -0.125 0.285156 -0.128906 h 0.417969 v 0.417969 c 0 0.117187 -0.015625 0.226562 -0.105469 0.3125 l -1.78125 1.78125 l 1.769531 1.773437 c 0.078126 0.078125 0.117188 0.1875 0.117188 0.296875 v 0.417969 h -0.417969 c -0.109375 0 -0.21875 -0.039062 -0.296875 -0.117188 l -1.785156 -1.785156 l -1.78125 1.785156 c -0.078125 0.078126 -0.191406 0.117188 -0.300781 0.117188 h -0.417969 v -0.417969 c 0 -0.109375 0.039062 -0.21875 0.117188 -0.296875 l 1.785156 -1.773437 l -1.785156 -1.78125 c -0.085938 -0.082031 -0.125 -0.195313 -0.117188 -0.3125 z m 0 0" fill="#444444"/>
    <g clip-path="url(#q)" mask="url(#d)">
        <g clip-path="url(#e)">
            <g clip-path="url(#f)">
                <path d="m -12.832031 46.554688 l 7.894531 -7.898438 l 58.28125 58.28125 l -7.898438 7.898438 z m 0 0" fill="#62a0ea"/>
            </g>
        </g>
        <g clip-path="url(#g)">
            <g clip-path="url(#h)">
                <path d="m -4.9375 38.65625 l 7.898438 -7.898438 l 58.28125 58.28125 l -7.898438 7.898438 z m 0 0" fill="#57e389"/>
            </g>
        </g>
        <g clip-path="url(#i)">
            <g clip-path="url(#j)">
                <path d="m 2.960938 30.757812 l 7.898437 -7.898437 l 58.28125 58.28125 l -7.898437 7.898437 z m 0 0" fill="#f8e45c"/>
            </g>
        </g>
        <g clip-path="url(#k)">
            <g clip-path="url(#l)">
                <path d="m 10.859375 22.859375 l 7.898437 -7.894531 l 58.28125 58.277344 l -7.898437 7.898437 z m 0 0" fill="#ffa348"/>
            </g>
        </g>
        <g clip-path="url(#m)">
            <g clip-path="url(#n)">
                <path d="m 18.757812 14.964844 l 7.898438 -7.898438 l 58.277344 58.28125 l -7.894532 7.894532 z m 0 0" fill="#ed333b"/>
            </g>
        </g>
        <g clip-path="url(#o)">
            <g clip-path="url(#p)">
                <path d="m 26.65625 7.066406 l 7.894531 -7.898437 l 58.28125 58.28125 l -7.898437 7.898437 z m 0 0" fill="#c061cb"/>
            </g>
        </g>
    </g>
    <path d="m 108.695312 64.941406 c 0.882813 0.878906 0.882813 2.308594 0 3.1875 c -0.878906 0.882813 -2.308593 0.882813 -3.1875 0 c -0.882812 -0.878906 -0.882812 -2.308594 0 -3.1875 c 0.878907 -0.882812 2.308594 -0.882812 3.1875 0 z m 0 0" fill="url(#s)"/>
    <path d="m 97.089844 53.332031 c 0.878906 0.882813 0.878906 2.308594 0 3.191407 c -0.882813 0.878906 -2.308594 0.878906 -3.191406 0 c -0.878907 -0.882813 -0.878907 -2.308594 0 -3.191407 c 0.882812 -0.878906 2.308593 -0.878906 3.191406 0 z m 0 0" fill="url(#t)"/>
    <path d="m 83.023438 91.425781 c 0.878906 0.882813 0.878906 2.308594 0 3.191407 c -0.882813 0.878906 -2.308594 0.878906 -3.191407 0 c -0.878906 -0.882813 -0.878906 -2.308594 0 -3.191407 c 0.882813 -0.878906 2.308594 -0.878906 3.191407 0 z m 0 0" fill="url(#u)"/>
    <path d="m 79.050781 93.023438 c 0 0.5 0.191407 1.003906 0.578125 1.390624 l 8.714844 8.714844 c 0.773438 0.769532 2.011719 0.769532 2.785156 0 c 0.769532 -0.773437 0.769532 -2.011718 0 -2.785156 l -7.324218 -7.320312 z m 0 0" fill="url(#w)"/>
    <path d="m 104.722656 66.539062 l -25.09375 25.089844 c -0.386718 0.386719 -0.578125 0.890625 -0.578125 1.394532 h 4.753907 l 25.09375 -25.09375 c 0.382812 -0.386719 0.578124 -0.890626 0.578124 -1.390626 z m 0 0" fill="url(#x)"/>
    <path d="m 95.492188 57.304688 l 9.230468 9.230468 h 4.753906 c 0 -0.5 -0.191406 -1.007812 -0.578124 -1.390625 l -12.011719 -12.015625 c -0.386719 -0.382812 -0.890625 -0.574218 -1.394531 -0.574218 z m 0 0" fill="url(#y)"/>
    <path d="m 90.035156 57.195312 c -0.769531 0.773438 -0.769531 2.011719 0 2.785157 c 0.773438 0.769531 2.015625 0.769531 2.785156 0 l 2.671876 -2.675781 v -4.75 c -0.503907 0 -1.003907 0.191406 -1.390626 0.578124 z m 0 0" fill="url(#z)"/>
    <path d="m 88.902344 100.902344 c 1.882812 -1.882813 4.933594 -1.882813 6.816406 0 l 18.863281 18.863281 c 1.882813 1.882813 1.882813 4.933594 0 6.816406 c -1.878906 1.882813 -4.933593 1.882813 -6.816406 0 l -18.863281 -18.863281 c -1.882813 -1.882812 -1.882813 -4.933594 0 -6.816406 z m 0 0" fill="url(#A)"/>
    <path d="m 69.289062 65.496094 l 7.898438 -7.898438 l 15.230469 15.230469 l -7.898438 7.898437 z m 7.753907 -7.753906 l 4.234375 -4.234376 c 2.109375 -2.109374 5.625 -1.988281 7.886718 0.269532 l 7.074219 7.074218 c 2.257813 2.261719 2.378907 5.777344 0.269531 7.886719 l -4.230468 4.234375 c -2.109375 2.109375 -5.625 1.988282 -7.886719 -0.273437 l -7.074219 -7.074219 c -2.257812 -2.257812 -2.378906 -5.777344 -0.273437 -7.882812 z m -15.652344 15.652343 l 7.898437 -7.898437 l 15.230469 15.230468 l -7.898437 7.898438 z m -15.792969 15.792969 l 7.894532 -7.898438 l 15.234374 15.234376 l -7.898437 7.894531 z m 7.894532 -7.898438 l 7.898437 -7.894531 l 15.230469 15.230469 l -7.894532 7.898438 z m -11.988282 11.992188 l 4.234375 -4.234375 c 2.109375 -2.109375 5.625 -1.988281 7.886719 0.269531 l 7.074219 7.078125 c 2.257812 2.257813 2.378906 5.773438 0.269531 7.882813 l -4.234375 4.234375 c -2.105469 2.109375 -5.625 1.988281 -7.882813 -0.273438 l -7.074218 -7.074219 c -2.261719 -2.257812 -2.382813 -5.773437 -0.273438 -7.882812 z m 0 0" fill="#f6f5f4"/>
    <path d="m 41.503906 93.28125 l 4.234375 -4.234375 c 2.101563 -2.101563 5.632813 -1.980469 7.886719 0.269531 l 7.074219 7.078125 c 2.25 2.25 2.371093 5.78125 0.269531 7.882813 l -4.234375 4.234375 c -2.101563 2.101562 -5.628906 1.980469 -7.882813 -0.273438 l -7.074218 -7.074219 c -2.253906 -2.25 -2.375 -5.78125 -0.273438 -7.882812 z m 0 0" fill="url(#B)"/>
    <path d="m 45.597656 89.1875 l 7.894532 -7.898438 l 15.234374 15.234376 l -7.898437 7.894531 z m 0 0" fill="url(#C)"/>
    <path d="m 53.492188 81.289062 l 7.898437 -7.894531 l 15.230469 15.230469 l -7.894532 7.898438 z m 0 0" fill="url(#D)"/>
    <path d="m 61.390625 73.394531 l 7.898437 -7.898437 l 15.230469 15.230468 l -7.898437 7.898438 z m 0 0" fill="url(#E)"/>
    <path d="m 77.042969 57.742188 l 4.234375 -4.234376 c 2.101562 -2.101562 5.632812 -1.980468 7.886718 0.269532 l 7.074219 7.074218 c 2.25 2.253907 2.375 5.785157 0.269531 7.886719 l -4.230468 4.234375 c -2.105469 2.101563 -5.632813 1.980469 -7.886719 -0.273437 l -7.074219 -7.074219 c -2.253906 -2.253906 -2.375 -5.78125 -0.273437 -7.882812 z m 0 0" fill="url(#F)"/>
    <path d="m 69.289062 65.496094 l 7.898438 -7.898438 l 15.230469 15.230469 l -7.898438 7.898437 z m 0 0" fill="url(#G)"/>
</svg>
