<?xml version="1.0" encoding="UTF-8"?>
<svg height="128px" viewBox="0 0 128 128" width="128px" xmlns="http://www.w3.org/2000/svg">
    <path d="m 16 40 h 96 c 4.417969 0 8 3.582031 8 8 v 60 c 0 4.417969 -3.582031 8 -8 8 h -96 c -4.417969 0 -8 -3.582031 -8 -8 v -60 c 0 -4.417969 3.582031 -8 8 -8 z m 0 0" fill="#c0bfbc"/>
    <path d="m 16 28 h 96 c 4.417969 0 8 3.582031 8 8 v 68 c 0 4.417969 -3.582031 8 -8 8 h -96 c -4.417969 0 -8 -3.582031 -8 -8 v -68 c 0 -4.417969 3.582031 -8 8 -8 z m 0 0" fill="#ffffff"/>
    <g fill="none" stroke-linecap="round" stroke-linejoin="round" stroke-width="7.2220092116">
        <path d="m 49.11330202687 87.99231356303 l 29.77345876785 -17.19141912952" stroke="#a51d2d"/>
        <path d="m 49.11330202687 53.60947597416 l 29.77345876785 17.19141845935" stroke="#a51d2d"/>
        <path d="m 49.11330201637 53.60947597416 v 34.38283758886" stroke="#a51d2d"/>
        <path d="m 49.11330201637 86.3907513575 l 29.77345876785 -17.19141912952" stroke="#c01c28"/>
        <path d="m 49.11330201637 52.00791376864 l 29.77345876785 17.19141845935" stroke="#e01b24"/>
        <path d="m 49.11330201637 52.00791376864 v 34.38283758886" stroke="#ed333b"/>
    </g>
</svg>
