<?xml version="1.0" encoding="UTF-8" standalone="no"?>
<svg
   height="16px"
   viewBox="0 0 16 16"
   width="16px"
   version="1.1"
   id="svg4908"
   sodipodi:docname="com.github.neithern.g4music-symbolic.svg"
   inkscape:version="1.2.1 (9c6d41e410, 2022-07-14)"
   xmlns:inkscape="http://www.inkscape.org/namespaces/inkscape"
   xmlns:sodipodi="http://sodipodi.sourceforge.net/DTD/sodipodi-0.dtd"
   xmlns="http://www.w3.org/2000/svg"
   xmlns:svg="http://www.w3.org/2000/svg">
  <defs
     id="defs4912" />
  <sodipodi:namedview
     id="namedview4910"
     pagecolor="#ffffff"
     bordercolor="#000000"
     borderopacity="0.25"
     inkscape:showpageshadow="2"
     inkscape:pageopacity="0.0"
     inkscape:pagecheckerboard="0"
     inkscape:deskcolor="#d1d1d1"
     showgrid="false"
     inkscape:zoom="22.715908"
     inkscape:cx="9.7728867"
     inkscape:cy="8.7163584"
     inkscape:window-width="1280"
     inkscape:window-height="731"
     inkscape:window-x="0"
     inkscape:window-y="0"
     inkscape:window-maximized="1"
     inkscape:current-layer="svg4908" />
  <g
     fill="#222222"
     id="g4906"
     style="fill:#000000">
    <path
       d="m 8 1 c -3.84375 0 -7 3.15625 -7 7 s 3.15625 7 7 7 s 7 -3.15625 7 -7 s -3.15625 -7 -7 -7 z m 0 4 c 1.679688 0 3 1.320312 3 3 s -1.320312 3 -3 3 s -3 -1.320312 -3 -3 s 1.320312 -3 3 -3 z m 0 0"
       id="path4902"
       style="fill:#000000" />
    <path
       d="m 8 6 c -1.097656 0 -2 0.902344 -2 2 s 0.902344 2 2 2 s 2 -0.902344 2 -2 s -0.902344 -2 -2 -2 z m 0 1 c 0.558594 0 1 0.441406 1 1 s -0.441406 1 -1 1 s -1 -0.441406 -1 -1 s 0.441406 -1 1 -1 z m 0 0"
       id="path4904"
       style="fill:#000000" />
  </g>
</svg>
