<?xml version="1.0" encoding="UTF-8"?>
<svg height="128px" viewBox="0 0 128 128" width="128px" xmlns="http://www.w3.org/2000/svg" xmlns:xlink="http://www.w3.org/1999/xlink">
    <defs>
        <linearGradient id="a" gradientUnits="userSpaceOnUse" x1="8.0000015" x2="120.0000015" y1="115.999977" y2="115.999977">
            <stop offset="0" stop-color="#3d3846"/>
            <stop offset="0.0357143" stop-color="#77767b"/>
            <stop offset="0.0714286" stop-color="#5e5c64"/>
            <stop offset="0.928571" stop-color="#5e5c64"/>
            <stop offset="0.964286" stop-color="#77767b"/>
            <stop offset="1" stop-color="#3d3846"/>
        </linearGradient>
        <clipPath id="b">
            <path d="m 16 36 h 96 v 4 h -96 z m 0 0"/>
        </clipPath>
        <clipPath id="c">
            <path d="m 20 36 h 88 c 2.210938 0 4 1.789062 4 4 v 60 c 0 2.210938 -1.789062 4 -4 4 h -88 c -2.210938 0 -4 -1.789062 -4 -4 v -60 c 0 -2.210938 1.789062 -4 4 -4 z m 0 0"/>
        </clipPath>
        <linearGradient id="d" gradientTransform="matrix(0.196428 0 0 0.342105 2.59729 253.740051)" gradientUnits="userSpaceOnUse" x1="88.595886" x2="536.595886" y1="-449.394012" y2="-449.394012">
            <stop offset="0" stop-color="#77767b"/>
            <stop offset="0.0500001" stop-color="#c0bfbc"/>
            <stop offset="0.099807" stop-color="#9a9996"/>
            <stop offset="0.900001" stop-color="#9a9996"/>
            <stop offset="0.950001" stop-color="#c0bfbc"/>
            <stop offset="1" stop-color="#77767b"/>
        </linearGradient>
        <linearGradient id="e" gradientUnits="userSpaceOnUse" x1="64" x2="64" y1="32" y2="92">
            <stop offset="0" stop-color="#c0bfbc"/>
            <stop offset="1" stop-color="#f6f5f4"/>
        </linearGradient>
        <filter id="f" height="100%" width="100%" x="0%" y="0%">
            <feColorMatrix in="SourceGraphic" type="matrix" values="0 0 0 0 1 0 0 0 0 1 0 0 0 0 1 0 0 0 1 0"/>
        </filter>
        <mask id="g">
            <g filter="url(#f)">
                <rect fill-opacity="0.4" height="128" width="128"/>
            </g>
        </mask>
        <clipPath id="h">
            <path d="m 16 36 h 96 v 4 h -96 z m 0 0"/>
        </clipPath>
        <clipPath id="i">
            <path d="m 20 36 h 88 c 2.210938 0 4 1.789062 4 4 v 60 c 0 2.210938 -1.789062 4 -4 4 h -88 c -2.210938 0 -4 -1.789062 -4 -4 v -60 c 0 -2.210938 1.789062 -4 4 -4 z m 0 0"/>
        </clipPath>
        <mask id="j">
            <g filter="url(#f)">
                <rect fill-opacity="0.4" height="128" width="128"/>
            </g>
        </mask>
        <clipPath id="k">
            <rect height="152" width="192"/>
        </clipPath>
        <g id="l" clip-path="url(#k)">
            <path d="m 36 48 c -4.433594 0 -8 3.566406 -8 8 v 2 c 0 -4.433594 3.566406 -8 8 -8 h 72 c 4.433594 0 8 3.566406 8 8 v -2 c 0 -4.433594 -3.566406 -8 -8 -8 z m 0 0" fill="#f6f5f4"/>
        </g>
        <clipPath id="m">
            <rect height="128" width="128"/>
        </clipPath>
        <clipPath id="n">
            <rect height="128" width="128"/>
        </clipPath>
        <mask id="o">
            <g clip-path="url(#n)" filter="url(#f)">
                <g clip-path="url(#m)">
                    <path d="m 16 40 h 96 c 4.417969 0 8 3.582031 8 8 v 60 c 0 4.417969 -3.582031 8 -8 8 h -96 c -4.417969 0 -8 -3.582031 -8 -8 v -60 c 0 -4.417969 3.582031 -8 8 -8 z m 0 0" fill="url(#a)"/>
                    <path d="m 16 28 h 96 c 4.417969 0 8 3.582031 8 8 v 68 c 0 4.417969 -3.582031 8 -8 8 h -96 c -4.417969 0 -8 -3.582031 -8 -8 v -68 c 0 -4.417969 3.582031 -8 8 -8 z m 0 0" fill="#9a9996"/>
                    <path d="m 20 36 h 88 c 2.210938 0 4 1.789062 4 4 v 60 c 0 2.210938 -1.789062 4 -4 4 h -88 c -2.210938 0 -4 -1.789062 -4 -4 v -60 c 0 -2.210938 1.789062 -4 4 -4 z m 0 0" fill="#241f31"/>
                    <g clip-path="url(#h)">
                        <g clip-path="url(#i)">
                            <path d="m 16 36 h 96 v 4 h -96 z m 0 0" fill="#3d3846"/>
                        </g>
                    </g>
                    <path d="m 28 40 h 72 c 4.417969 0 8 3.582031 8 8 v 44 c 0 4.417969 -3.582031 8 -8 8 h -72 c -4.417969 0 -8 -3.582031 -8 -8 v -44 c 0 -4.417969 3.582031 -8 8 -8 z m 0 0" fill="url(#d)"/>
                    <path d="m 28 32 h 72 c 4.417969 0 8 3.582031 8 8 v 44 c 0 4.417969 -3.582031 8 -8 8 h -72 c -4.417969 0 -8 -3.582031 -8 -8 v -44 c 0 -4.417969 3.582031 -8 8 -8 z m 0 0" fill="url(#e)"/>
                    <path d="m 65.9375 46 c -0.664062 0.023438 -1.28125 0.375 -1.632812 0.9375 l -10 16 c -0.210938 0.34375 -0.304688 0.710938 -0.304688 1.0625 v 2 h 6 v 10 c 0 2.007812 2.632812 2.757812 3.695312 1.0625 l 10 -16 c 0.210938 -0.34375 0.304688 -0.710938 0.304688 -1.0625 v -2 h -6 v -10 c 0 -1.125 -0.929688 -2.03125 -2.0625 -2 z m 0 0" fill="#77767b"/>
                    <path d="m 65.9375 46 c -0.664062 0.023438 -1.28125 0.375 -1.632812 0.9375 l -10 16 c -0.210938 0.34375 -0.304688 0.710938 -0.304688 1.0625 v 2 c 0 -0.351562 0.09375 -0.71875 0.304688 -1.0625 l 10 -16 c 0.351562 -0.5625 0.96875 -0.914062 1.632812 -0.9375 c 1.132812 -0.03125 2.0625 0.875 2.0625 2 v -2 c 0 -1.125 -0.929688 -2.03125 -2.0625 -2 z m 2.0625 12 v 2 h 6 v -2 z m 0 0" fill="#3d3846"/>
                    <use mask="url(#j)" transform="matrix(1 0 0 1 -8 -16)" xlink:href="#l"/>
                </g>
            </g>
        </mask>
        <mask id="p">
            <g filter="url(#f)">
                <rect fill-opacity="0.8" height="128" width="128"/>
            </g>
        </mask>
        <linearGradient id="q" gradientTransform="matrix(0 0.37 -0.98462 0 295.38501 -30.360001)" gradientUnits="userSpaceOnUse" x1="300" x2="428" y1="235" y2="235">
            <stop offset="0" stop-color="#f9f06b"/>
            <stop offset="1" stop-color="#f5c211"/>
        </linearGradient>
        <clipPath id="r">
            <rect height="128" width="128"/>
        </clipPath>
        <clipPath id="s">
            <rect height="128" width="128"/>
        </clipPath>
    </defs>
    <path d="m 16 40 h 96 c 4.417969 0 8 3.582031 8 8 v 60 c 0 4.417969 -3.582031 8 -8 8 h -96 c -4.417969 0 -8 -3.582031 -8 -8 v -60 c 0 -4.417969 3.582031 -8 8 -8 z m 0 0" fill="url(#a)"/>
    <path d="m 16 28 h 96 c 4.417969 0 8 3.582031 8 8 v 68 c 0 4.417969 -3.582031 8 -8 8 h -96 c -4.417969 0 -8 -3.582031 -8 -8 v -68 c 0 -4.417969 3.582031 -8 8 -8 z m 0 0" fill="#9a9996"/>
    <path d="m 20 36 h 88 c 2.210938 0 4 1.789062 4 4 v 60 c 0 2.210938 -1.789062 4 -4 4 h -88 c -2.210938 0 -4 -1.789062 -4 -4 v -60 c 0 -2.210938 1.789062 -4 4 -4 z m 0 0" fill="#241f31"/>
    <g clip-path="url(#b)">
        <g clip-path="url(#c)">
            <path d="m 16 36 h 96 v 4 h -96 z m 0 0" fill="#3d3846"/>
        </g>
    </g>
    <path d="m 28 40 h 72 c 4.417969 0 8 3.582031 8 8 v 44 c 0 4.417969 -3.582031 8 -8 8 h -72 c -4.417969 0 -8 -3.582031 -8 -8 v -44 c 0 -4.417969 3.582031 -8 8 -8 z m 0 0" fill="url(#d)"/>
    <path d="m 28 32 h 72 c 4.417969 0 8 3.582031 8 8 v 44 c 0 4.417969 -3.582031 8 -8 8 h -72 c -4.417969 0 -8 -3.582031 -8 -8 v -44 c 0 -4.417969 3.582031 -8 8 -8 z m 0 0" fill="url(#e)"/>
    <path d="m 65.9375 46 c -0.664062 0.023438 -1.28125 0.375 -1.632812 0.9375 l -10 16 c -0.210938 0.34375 -0.304688 0.710938 -0.304688 1.0625 v 2 h 6 v 10 c 0 2.007812 2.632812 2.757812 3.695312 1.0625 l 10 -16 c 0.210938 -0.34375 0.304688 -0.710938 0.304688 -1.0625 v -2 h -6 v -10 c 0 -1.125 -0.929688 -2.03125 -2.0625 -2 z m 0 0" fill="#77767b"/>
    <path d="m 65.9375 46 c -0.664062 0.023438 -1.28125 0.375 -1.632812 0.9375 l -10 16 c -0.210938 0.34375 -0.304688 0.710938 -0.304688 1.0625 v 2 c 0 -0.351562 0.09375 -0.71875 0.304688 -1.0625 l 10 -16 c 0.351562 -0.5625 0.96875 -0.914062 1.632812 -0.9375 c 1.132812 -0.03125 2.0625 0.875 2.0625 2 v -2 c 0 -1.125 -0.929688 -2.03125 -2.0625 -2 z m 2.0625 12 v 2 h 6 v -2 z m 0 0" fill="#3d3846"/>
    <use mask="url(#g)" transform="matrix(1 0 0 1 -8 -16)" xlink:href="#l"/>
    <g clip-path="url(#s)" mask="url(#o)">
        <g clip-path="url(#r)" mask="url(#p)">
            <path d="m 128 80.640625 v 47.359375 h -128 v -47.359375 z m 0 0" fill="url(#q)"/>
            <path d="m 13.308594 80.640625 l 47.355468 47.359375 h 21.214844 l -47.359375 -47.359375 z m 42.421875 0 l 47.363281 47.359375 h 21.214844 l -47.363282 -47.359375 z m 42.429687 0 l 29.839844 29.839844 v -21.210938 l -8.628906 -8.628906 z m -98.160156 7.90625 v 21.214844 l 18.238281 18.238281 h 21.214844 z m 0 0"/>
        </g>
    </g>
</svg>
