<svg xmlns="http://www.w3.org/2000/svg" width="16" height="16"><filter id="a" width="100%" height="100%" x="0%" y="0%"><feColorMatrix in="SourceGraphic" values="0 0 0 0 1 0 0 0 0 1 0 0 0 0 1 0 0 0 1 0"/></filter><mask id="c"><g filter="url(#a)"><path fill-opacity=".4" d="M0 0h16v16H0z"/></g></mask><clipPath id="b"><path d="M0 0h192v152H0z"/></clipPath><g clip-path="url(#b)" mask="url(#c)" transform="translate(-168 -16)"><path fill="#f6f5f4" d="M36 48a7.98 7.98 0 0 0-8 8v2c0-4.434 3.566-8 8-8h72c4.434 0 8 3.566 8 8v-2c0-4.434-3.566-8-8-8zm0 0"/></g><g fill="#241f31"><path d="M2.5 2A2.518 2.518 0 0 0 0 4.5v7C0 12.867 1.133 14 2.5 14H10v-2.238l2.105-4.211.278-.551H15v3h1V4.5C16 3.133 14.867 2 13.5 2zm0 2h1c.277 0 .5.223.5.5v1c0 .277-.223.5-.5.5h-1a.498.498 0 0 1-.5-.5v-1a.496.496 0 0 1 .5-.5zm3 0h1c.277 0 .5.223.5.5v1c0 .277-.223.5-.5.5h-1a.498.498 0 0 1-.5-.5v-1c0-.277.223-.5.5-.5zm3 0h1c.277 0 .5.223.5.5v1c0 .277-.223.5-.5.5h-1a.498.498 0 0 1-.5-.5v-1c0-.277.223-.5.5-.5zm3 0h1c.277 0 .5.223.5.5v1c0 .277-.223.5-.5.5h-1a.498.498 0 0 1-.5-.5v-1c0-.277.223-.5.5-.5zm-8 3h1c.277 0 .5.223.5.5v1c0 .277-.223.5-.5.5h-1a.498.498 0 0 1-.5-.5v-1c0-.277.223-.5.5-.5zm3 0h1c.277 0 .5.223.5.5v1c0 .277-.223.5-.5.5h-1a.498.498 0 0 1-.5-.5v-1c0-.277.223-.5.5-.5zm3 0h1c.277 0 .5.223.5.5v1c0 .277-.223.5-.5.5h-1a.498.498 0 0 1-.5-.5v-1c0-.277.223-.5.5-.5zm-7 3h1c.277 0 .5.223.5.5v1c0 .277-.223.5-.5.5h-1a.498.498 0 0 1-.5-.5v-1c0-.277.223-.5.5-.5zm3 0h3c.277 0 .5.223.5.5v1c0 .277-.223.5-.5.5h-3a.498.498 0 0 1-.5-.5v-1c0-.277.223-.5.5-.5zm0 0"/><path d="m13 8-2 4v1h2v3h1l2-4v-1h-2V8zm0 0"/></g></svg>