<?xml version="1.0" encoding="UTF-8"?>
<svg height="128px" viewBox="0 0 128 128" width="128px" xmlns="http://www.w3.org/2000/svg" xmlns:xlink="http://www.w3.org/1999/xlink">
    <linearGradient id="a" gradientUnits="userSpaceOnUse" x1="8.000003" x2="120.000003" y1="116.000001" y2="116.000001">
        <stop offset="0" stop-color="#77767b"/>
        <stop offset="0.036" stop-color="#c0bfbc"/>
        <stop offset="0.071" stop-color="#9a9996"/>
        <stop offset="0.929" stop-color="#9a9996"/>
        <stop offset="0.964" stop-color="#c0bfbc"/>
        <stop offset="1" stop-color="#77767b"/>
    </linearGradient>
    <linearGradient id="b" gradientTransform="matrix(-1 0 0 1 6.143999 -113.311999)" gradientUnits="userSpaceOnUse" x1="-105.856003" x2="-9.856001" y1="149.311996" y2="217.311996">
        <stop offset="0" stop-color="#62a0ea"/>
        <stop offset="1" stop-color="#1c71d8"/>
    </linearGradient>
    <linearGradient id="c" gradientTransform="matrix(0 1.5 -1.5 0 461 25)" gradientUnits="userSpaceOnUse" x1="23" x2="23" y1="238" y2="222">
        <stop offset="0" stop-color="#c01c28"/>
        <stop offset="0.5" stop-color="#ed333b"/>
        <stop offset="1" stop-color="#c01c28"/>
    </linearGradient>
    <radialGradient id="d" cx="116.000009" cy="78.00007598165" gradientUnits="userSpaceOnUse" r="14.000004">
        <stop offset="0" stop-color="#a51d2d"/>
        <stop offset="0.7" stop-color="#b21c2a" stop-opacity="0.72549"/>
        <stop offset="1" stop-color="#c01c28" stop-opacity="0"/>
    </radialGradient>
    <linearGradient id="e" gradientUnits="userSpaceOnUse" x1="107" x2="125" y1="83" y2="83">
        <stop offset="0" stop-color="#c01c28"/>
        <stop offset="0.5" stop-color="#ed333b"/>
        <stop offset="1" stop-color="#e01b24"/>
    </linearGradient>
    <linearGradient id="f" gradientTransform="matrix(0 -1.1875 -2 0 576 168.5)" gradientUnits="userSpaceOnUse" x1="46" x2="46" y1="232" y2="228">
        <stop offset="0" stop-color="#9a9996"/>
        <stop offset="0.5" stop-color="#ffffff"/>
        <stop offset="1" stop-color="#c0bfbc"/>
    </linearGradient>
    <clipPath id="g">
        <path d="m 112 35 h 8 v 25 h -8 z m 0 0"/>
    </clipPath>
    <clipPath id="h">
        <path d="m 116 35 c -6.628906 0 -12 5.371094 -12 12 v 22 c 0 2.210938 1.789062 4 4 4 c 1.105469 0 2 0.894531 2 2 v 7 c 0 1.105469 -0.894531 2 -2 2 c -2.210938 0 -4 1.789062 -4 4 v 2 h 24 v -2 c 0 -2.210938 -1.789062 -4 -4 -4 c -1.105469 0 -2 -0.894531 -2 -2 v -7 c 0 -1.105469 0.894531 -2 2 -2 c 2.210938 0 4 -1.789062 4 -4 v -22 c 0 -6.628906 -5.371094 -12 -12 -12 z m 0 0"/>
    </clipPath>
    <clipPath id="i">
        <path d="m 124 35 h 4 v 31 h -4 z m 0 0"/>
    </clipPath>
    <clipPath id="j">
        <path d="m 116 35 c -6.628906 0 -12 5.371094 -12 12 v 22 c 0 2.210938 1.789062 4 4 4 c 1.105469 0 2 0.894531 2 2 v 7 c 0 1.105469 -0.894531 2 -2 2 c -2.210938 0 -4 1.789062 -4 4 v 2 h 24 v -2 c 0 -2.210938 -1.789062 -4 -4 -4 c -1.105469 0 -2 -0.894531 -2 -2 v -7 c 0 -1.105469 0.894531 -2 2 -2 c 2.210938 0 4 -1.789062 4 -4 v -22 c 0 -6.628906 -5.371094 -12 -12 -12 z m 0 0"/>
    </clipPath>
    <clipPath id="k">
        <path d="m 104 35 h 4 v 31 h -4 z m 0 0"/>
    </clipPath>
    <clipPath id="l">
        <path d="m 116 35 c -6.628906 0 -12 5.371094 -12 12 v 22 c 0 2.210938 1.789062 4 4 4 c 1.105469 0 2 0.894531 2 2 v 7 c 0 1.105469 -0.894531 2 -2 2 c -2.210938 0 -4 1.789062 -4 4 v 2 h 24 v -2 c 0 -2.210938 -1.789062 -4 -4 -4 c -1.105469 0 -2 -0.894531 -2 -2 v -7 c 0 -1.105469 0.894531 -2 2 -2 c 2.210938 0 4 -1.789062 4 -4 v -22 c 0 -6.628906 -5.371094 -12 -12 -12 z m 0 0"/>
    </clipPath>
    <path d="m 16 40 h 96 c 4.417969 0 8 3.582031 8 8 v 60 c 0 4.417969 -3.582031 8 -8 8 h -96 c -4.417969 0 -8 -3.582031 -8 -8 v -60 c 0 -4.417969 3.582031 -8 8 -8 z m 0 0" fill="url(#a)"/>
    <path d="m 16 28 h 96 c 4.417969 0 8 3.582031 8 8 v 68 c 0 4.417969 -3.582031 8 -8 8 h -96 c -4.417969 0 -8 -3.582031 -8 -8 v -68 c 0 -4.417969 3.582031 -8 8 -8 z m 0 0" fill="#deddda"/>
    <path d="m 16 32 h 96 c 2.210938 0 4 1.789062 4 4 v 68 c 0 2.210938 -1.789062 4 -4 4 h -96 c -2.210938 0 -4 -1.789062 -4 -4 v -68 c 0 -2.210938 1.789062 -4 4 -4 z m 0 0" fill="#241f31"/>
    <path d="m 112 36 h -96 v 68 h 96 z m 0 0" fill="url(#b)"/>
    <path d="m 80 62 c 0 8.835938 -7.164062 16 -16 16 s -16 -7.164062 -16 -16 s 7.164062 -16 16 -16 s 16 7.164062 16 16 z m 0 0" fill="#1a5fb4"/>
    <path d="m 80 60 c 0 8.835938 -7.164062 16 -16 16 s -16 -7.164062 -16 -16 s 7.164062 -16 16 -16 s 16 7.164062 16 16 z m 0 0" fill="#99c1f1"/>
    <path d="m 64 50.667969 c -2.207031 0 -4 1.792969 -4 4 s 1.792969 4 4 4 s 4 -1.792969 4 -4 s -1.792969 -4 -4 -4 z m -2 9.332031 c -3.324219 0 -6 2.679688 -6 6 v 2 c 0 1.335938 1.332031 1.335938 1.332031 1.335938 h 13.335938 s 1.332031 0 1.332031 -1.335938 v -2 c 0 -3.320312 -2.675781 -6 -6 -6 z m 0 0" fill="#1a5fb4"/>
    <path d="m 42 88 h 44 c 1.105469 0 2 0.894531 2 2 v 4 c 0 1.105469 -0.894531 2 -2 2 h -44 c -1.105469 0 -2 -0.894531 -2 -2 v -4 c 0 -1.105469 0.894531 -2 2 -2 z m 0 0" fill="#99c1f1"/>
    <path d="m 116 35 c -6.628906 0 -12 5.371094 -12 12 v 28 c 0 6.628906 5.371094 12 12 12 s 12 -5.371094 12 -12 v -28 c 0 -6.628906 -5.371094 -12 -12 -12 z m 0 0" fill="url(#c)"/>
    <path d="m 128 75 c 0 6.628906 -5.371094 12 -12 12 s -12 -5.371094 -12 -12 s 5.371094 -12 12 -12 s 12 5.371094 12 12 z m 0 0" fill="url(#d)"/>
    <path d="m 125 83 c 0 4.96875 -4.03125 9 -9 9 s -9 -4.03125 -9 -9 s 4.03125 -9 9 -9 s 9 4.03125 9 9 z m 0 0" fill="url(#e)"/>
    <path d="m 125 86 c 0 4.96875 -4.03125 9 -9 9 s -9 -4.03125 -9 -9 s 4.03125 -9 9 -9 s 9 4.03125 9 9 z m 0 0" fill="#a51d2d"/>
    <path d="m 121.738281 117.964844 l -2.613281 9.570312 c -0.074219 0.273438 -0.320312 0.464844 -0.605469 0.464844 h -5.039062 c -0.285157 0 -0.53125 -0.191406 -0.605469 -0.464844 l -2.613281 -9.570312 c -0.0625 -0.230469 -0.011719 -0.476563 0.132812 -0.664063 c 0.144531 -0.191406 0.367188 -0.300781 0.605469 -0.300781 h 10 c 0.238281 0 0.460938 0.109375 0.605469 0.300781 c 0.144531 0.1875 0.195312 0.433594 0.132812 0.664063 z m 0 0" fill="#c0bfbc"/>
    <path d="m 120 117 v -30 c 0 -2.210938 -1.789062 -4 -4 -4 s -4 1.789062 -4 4 v 30 c 0 2.210938 1.789062 4 4 4 s 4 -1.789062 4 -4 z m 0 0" fill="url(#f)"/>
    <path d="m 121.710938 116.957031 l -2.574219 8.582031 c -0.082031 0.273438 -0.332031 0.460938 -0.617188 0.460938 h -5.039062 c -0.285157 0 -0.535157 -0.1875 -0.617188 -0.460938 l -2.574219 -8.582031 c -0.070312 -0.222656 -0.027343 -0.46875 0.113282 -0.65625 c 0.140625 -0.191406 0.363281 -0.300781 0.597656 -0.300781 h 10 c 0.234375 0 0.457031 0.109375 0.597656 0.300781 c 0.140625 0.1875 0.183594 0.433594 0.113282 0.65625 z m 0 0" fill="#deddda"/>
    <g clip-path="url(#g)">
        <g clip-path="url(#h)">
            <path d="m 120 13 v 43 c 0 2.210938 -1.789062 4 -4 4 s -4 -1.789062 -4 -4 v -43 c 0 -2.210938 1.789062 -4 4 -4 s 4 1.789062 4 4 z m 0 0" fill="#c01c28"/>
        </g>
    </g>
    <g clip-path="url(#i)">
        <g clip-path="url(#j)">
            <path d="m 132 19 v 43 c 0 2.210938 -1.789062 4 -4 4 s -4 -1.789062 -4 -4 v -43 c 0 -2.210938 1.789062 -4 4 -4 s 4 1.789062 4 4 z m 0 0" fill="#a51d2d"/>
        </g>
    </g>
    <g clip-path="url(#k)">
        <g clip-path="url(#l)">
            <path d="m 108 19 v 43 c 0 2.210938 -1.789062 4 -4 4 s -4 -1.789062 -4 -4 v -43 c 0 -2.210938 1.789062 -4 4 -4 s 4 1.789062 4 4 z m 0 0" fill="#a51d2d"/>
        </g>
    </g>
</svg>
