<?xml version="1.0" encoding="UTF-8" standalone="no"?>
<svg height="16px" viewBox="0 0 16 16" width="16px" xmlns="http://www.w3.org/2000/svg" sodipodi:docname="io.github.realmazharhussain.GdmSettings-symbolic.svg" inkscape:version="1.2.1 (9c6d41e410, 2022-07-14)" xmlns:inkscape="http://www.inkscape.org/namespaces/inkscape" xmlns:sodipodi="http://sodipodi.sourceforge.net/DTD/sodipodi-0.dtd" xmlns:svg="http://www.w3.org/2000/svg">
    <sodipodi:namedview pagecolor="#ffffff" bordercolor="#000000" borderopacity="0.25" inkscape:showpageshadow="2" inkscape:pageopacity="0.0" inkscape:pagecheckerboard="0" inkscape:deskcolor="#d1d1d1" showgrid="false" inkscape:zoom="11.837606" inkscape:cx="4.4772568" inkscape:cy="5.5754518" inkscape:window-width="1280" inkscape:window-height="731" inkscape:window-x="0" inkscape:window-y="0" inkscape:window-maximized="1" inkscape:current-layer="svg13">
        <inkscape:grid/>
    </sodipodi:namedview>
    <path d="m 2.1875 1 c -1.20702737 0 -2.1875 1.0156286 -2.1875 2.21875 v 9.5625 c 0 1.203122 0.98047263 2.21875 2.1875 2.21875 h 4.8125 a 1 1 0 0 0 1 -1 a 1 1 0 0 0 -1 -1 h -4.8125 c -0.1210937 0 -0.1875 -0.082031 -0.1875 -0.21875 v -9.5625 c 0 -0.1367187 0.0664063 -0.21875 0.1875 -0.21875 h 11.625 c 0.121094 0 0.1875 0.0820313 0.1875 0.21875 v 2.78125 a 1 1 0 0 0 1 1 a 1 1 0 0 0 1 -1 v -2.78125 c 0 -1.2031214 -0.980472 -2.21875 -2.1875 -2.21875 z m 5.8125 3.5 c -0.8281234 0 -1.5 0.6718756 -1.5 1.5 s 0.6718766 1.5 1.5 1.5 s 1.5 -0.6718756 1.5 -1.5 s -0.6718766 -1.5 -1.5 -1.5 z m -0.75 3.5 c -1.2460916 0 -2.25 1.0039069 -2.25 2.25 v 0.75 c 0 0.499998 0.5 0.5 0.5 0.5 h 2.484375 a 4.5 4.5 0 0 1 1.5214844 -3.3691406 c -0.2361005 -0.0837469 -0.490416 -0.1308594 -0.7558594 -0.1308594 z m 4.734375 0 v 1.0507812 c -0.183594 0.03906 -0.363281 0.0976604 -0.535156 0.1757813 l -0.617188 -0.8515625 l -0.808593 0.5859375 l 0.621093 0.8554687 c -0.128906 0.1367189 -0.238281 0.2890628 -0.332031 0.4531248 l -1 -0.3242185 l -0.3125 0.9492185 l 1 0.324219 c -0.0078 0.09375 -0.015625 0.1875 -0.015625 0.28125 s 0.007795 0.1875 0.015625 0.28125 l -1 0.324219 l 0.3125 0.949219 l 1 -0.324219 c 0.09375 0.164062 0.203125 0.316406 0.332031 0.453125 l -0.621093 0.855468 l 0.808593 0.585938 l 0.617188 -0.851562 c 0.171874 0.078119 0.347656 0.136718 0.53125 0.175781 l 0.003906 1.050781 h 1 v -1.050781 c 0.183593 -0.03906 0.363281 -0.097661 0.535156 -0.175781 l 0.617188 0.851562 l 0.808593 -0.585938 l -0.617187 -0.855468 c 0.125 -0.136719 0.234375 -0.289063 0.328125 -0.453125 l 1.003906 0.324219 l 0.308594 -0.949219 l -1 -0.324219 c 0.0078 -0.09375 0.015625 -0.1875 0.015625 -0.28125 s -0.007795 -0.1875 -0.015625 -0.28125 l 1 -0.324219 l -0.308594 -0.9492185 l -1.003906 0.3242185 c -0.09375 -0.164062 -0.203125 -0.3164059 -0.328125 -0.4531248 l 0.617187 -0.8554687 l -0.808593 -0.5859375 l -0.617188 0.8515625 c -0.171875 -0.0781199 -0.347656 -0.1367183 -0.53125 -0.1757813 l -0.003906 -1.0507812 z m 0.5 2 c 0.835936 0 1.5 0.664063 1.5 1.5 s -0.664064 1.5 -1.5 1.5 c -0.835938 0 -1.5 -0.664063 -1.5 -1.5 s 0.664062 -1.5 1.5 -1.5 z" fill="#241f31"/>
</svg>
