<?xml version="1.0" encoding="UTF-8" standalone="no"?>
<svg
   height="16px"
   viewBox="0 0 16 16"
   width="16px"
   version="1.1"
   id="svg30221"
   sodipodi:docname="warning-orange.svg"
   inkscape:version="1.2.1 (9c6d41e410, 2022-07-14)"
   xmlns:inkscape="http://www.inkscape.org/namespaces/inkscape"
   xmlns:sodipodi="http://sodipodi.sourceforge.net/DTD/sodipodi-0.dtd"
   xmlns="http://www.w3.org/2000/svg"
   xmlns:svg="http://www.w3.org/2000/svg"
   xmlns:rdf="http://www.w3.org/1999/02/22-rdf-syntax-ns#"
   xmlns:cc="http://creativecommons.org/ns#"
   xmlns:dc="http://purl.org/dc/elements/1.1/">
  <sodipodi:namedview
     id="namedview31386"
     pagecolor="#ffffff"
     bordercolor="#000000"
     borderopacity="0.25"
     inkscape:showpageshadow="2"
     inkscape:pageopacity="0.0"
     inkscape:pagecheckerboard="0"
     inkscape:deskcolor="#d1d1d1"
     showgrid="false"
     inkscape:zoom="1.7171538"
     inkscape:cx="34.068003"
     inkscape:cy="12.229539"
     inkscape:window-width="1280"
     inkscape:window-height="731"
     inkscape:window-x="0"
     inkscape:window-y="0"
     inkscape:window-maximized="1"
     inkscape:current-layer="layer9" />
  <defs
     id="defs30225">
    <linearGradient
       id="linearGradient7212"
       inkscape:swatch="solid">
      <stop
         id="stop7214"
         offset="0"
         style="stop-color:#000000;stop-opacity:1;" />
    </linearGradient>
  </defs>
  <title
     id="title9167">Gnome Symbolic Icon Theme</title>
  <g
     inkscape:groupmode="layer"
     id="layer9"
     inkscape:label="apps"
     style="display:inline"
     transform="translate(-443.30751,36.618087)">
    <g
       id="g31546"
       transform="translate(0.03045,-0.318135)">
      <path
         style="display:inline;opacity:0.3;vector-effect:none;fill:#000000;fill-opacity:1;stroke:none;stroke-width:1;stroke-linecap:butt;stroke-linejoin:bevel;stroke-miterlimit:4;stroke-dasharray:none;stroke-dashoffset:0;stroke-opacity:1;marker:none;marker-start:none;marker-mid:none;marker-end:none;paint-order:normal;enable-background:new"
         d="m 457.2639,-32.539557 -5.96212,3.44224 -5.96215,-3.44224 v 0 l 5.96215,-3.44226 z"
         id="path870-6"
         inkscape:connector-curvature="0"
         sodipodi:nodetypes="cccccc" />
      <path
         sodipodi:nodetypes="cccccc"
         inkscape:connector-curvature="0"
         id="path886-9"
         d="m 450.27677,-20.618087 -5.99273,-3.42041 -0.007,-6.97219 v 0 l 6.00018,3.4642 z"
         style="display:inline;opacity:1;vector-effect:none;fill:#000000;fill-opacity:1;stroke:none;stroke-width:1;stroke-linecap:butt;stroke-linejoin:bevel;stroke-miterlimit:4;stroke-dasharray:none;stroke-dashoffset:0;stroke-opacity:1;marker:none;marker-start:none;marker-mid:none;marker-end:none;paint-order:normal;enable-background:new" />
    </g>
    <path
       class="warning"
       d="m 452.80751,-28.618087 c -0.83203,0 -1.5,0.667969 -1.5,1.5 v 5 c 0,0.832031 0.66797,1.5 1.5,1.5 h 5 c 0.83203,0 1.5,-0.667969 1.5,-1.5 v -5 c 0,-0.832031 -0.66797,-1.5 -1.5,-1.5 z m 1.5,1 h 2 v 2.5 c 0,0 0,0.5 -0.5,0.5 h -1 c -0.5,0 -0.5,-0.5 -0.5,-0.5 z m 0.5,4 h 1 c 0.27734,0 0.5,0.222656 0.5,0.5 v 1 c 0,0.277344 -0.22266,0.5 -0.5,0.5 h -1 c -0.27734,0 -0.5,-0.222656 -0.5,-0.5 v -1 c 0,-0.277344 0.22266,-0.5 0.5,-0.5 z m 0,0"
       fill="#ff7800"
       id="path2056" />
  </g>
  <metadata
     id="metadata31564">
    <rdf:RDF>
      <cc:Work
         rdf:about="">
        <dc:title>Gnome Symbolic Icon Theme</dc:title>
      </cc:Work>
    </rdf:RDF>
  </metadata>
</svg>
