<?xml version="1.0" encoding="UTF-8" standalone="no"?>
<!-- Created with Inkscape (http://www.inkscape.org/) -->

<svg
   width="399.99988"
   height="300"
   viewBox="0 0 105.8333 79.375"
   version="1.1"
   id="svg5"
   xmlns:inkscape="http://www.inkscape.org/namespaces/inkscape"
   xmlns:sodipodi="http://sodipodi.sourceforge.net/DTD/sodipodi-0.dtd"
   xmlns:xlink="http://www.w3.org/1999/xlink"
   xmlns="http://www.w3.org/2000/svg"
   xmlns:svg="http://www.w3.org/2000/svg">
  <sodipodi:namedview
     id="namedview7"
     pagecolor="#ffffff"
     bordercolor="#000000"
     borderopacity="0.25"
     inkscape:showpageshadow="false"
     inkscape:pageopacity="0.0"
     inkscape:pagecheckerboard="true"
     inkscape:deskcolor="#4d4d4d"
     inkscape:document-units="px"
     showgrid="false">
    <inkscape:grid
       type="xygrid"
       id="grid132"
       empspacing="4"
       originx="0"
       originy="0" />
  </sodipodi:namedview>
  <defs
     id="defs2">
    <linearGradient
       inkscape:collect="always"
       xlink:href="#linearGradient1504"
       id="linearGradient2363"
       gradientUnits="userSpaceOnUse"
       gradientTransform="matrix(0.24008488,0,0,0.22048602,-553.92463,-388.5846)"
       x1="3519.4482"
       y1="1490"
       x2="3951.4482"
       y2="1490" />
    <linearGradient
       id="linearGradient1504">
      <stop
         style="stop-color:#3d3846;stop-opacity:1;"
         offset="0"
         id="stop1492" />
      <stop
         id="stop1494"
         offset="0.03061216"
         style="stop-color:#77767b;stop-opacity:1;" />
      <stop
         style="stop-color:#5e5c64;stop-opacity:1"
         offset="0.0612244"
         id="stop1496" />
      <stop
         id="stop1498"
         offset="0.93877542"
         style="stop-color:#3d3846;stop-opacity:1" />
      <stop
         style="stop-color:#77767b;stop-opacity:1"
         offset="0.96938765"
         id="stop1500" />
      <stop
         style="stop-color:#241f31;stop-opacity:1"
         offset="1"
         id="stop1502" />
    </linearGradient>
  </defs>
  <g
     inkscape:groupmode="layer"
     id="layer3"
     inkscape:label="Слой 3"
     transform="translate(-228.59999)">
    <g
       id="g6828"
       transform="matrix(0.49999964,0,0,0.49999964,130.47767,13.584751)">
      <rect
         style="fill:#000000;fill-opacity:1;stroke-width:0.644038;stroke-linecap:round;stroke-linejoin:round"
         id="rect2309"
         width="88.899994"
         height="60.324997"
         x="257.62802"
         y="20.720119"
         rx="1.5874965"
         ry="1.5874965"
         inkscape:export-filename="../rect9359.png"
         inkscape:export-xdpi="1536.0001"
         inkscape:export-ydpi="1536.0001"
         inkscape:label="screen" />
      <g
         id="g2325"
         transform="translate(-40.8218,142.42845)"
         inkscape:label="chassis">
        <path
           d="M 291.04167,-61.383333 V -60.325 c 0,1.058333 0.52916,1.5875 1.5875,1.5875 h 100.54167 c 1.05834,0 1.5875,-0.529167 1.5875,-1.5875 v -1.058333 z"
           style="fill:url(#linearGradient2363);fill-opacity:1;stroke-width:0.420662;stroke-linecap:round;stroke-linejoin:round"
           id="path2317"
           sodipodi:nodetypes="csssscc" />
        <path
           id="path2319"
           style="opacity:0.4;fill:#241f31;fill-opacity:1;stroke-width:0.460813;stroke-linecap:round;stroke-linejoin:round"
           d="m 291.0416,-61.383333 v 0.529167 l 103.71667,-10e-7 v -0.529167 z"
           sodipodi:nodetypes="ccccc" />
        <path
           d="m 334.30121,-61.383333 c 0.26459,0.529166 0.52917,1.058333 1.32292,1.058333 3.20159,0 14.81667,0 14.81667,0 0.79375,0 1.05833,-0.529167 1.32291,-1.058333 z"
           style="fill:#77767b;fill-opacity:1;stroke:none;stroke-width:0.638484;stroke-linecap:round;stroke-linejoin:round"
           id="path2321"
           sodipodi:nodetypes="csscc" />
        <path
           style="fill:#5e5c64;stroke:none;stroke-width:0.320232px;stroke-linecap:butt;stroke-linejoin:miter;stroke-opacity:1"
           d="m 291.04167,-61.383333 7.40833,-3.175 h 88.9 l 7.40833,3.175 z"
           id="path2323"
           sodipodi:nodetypes="ccccc" />
      </g>
      <rect
         y="22.836773"
         x="259.74469"
         height="52.916664"
         width="84.666664"
         id="rect2313"
         style="display:inline;fill:#c3daf7;fill-opacity:1;stroke:none;stroke-width:0.000907317;stroke-linecap:square;stroke-linejoin:round;stroke-miterlimit:4;stroke-dasharray:none;stroke-dashoffset:0;stroke-opacity:1"
         inkscape:label="shell background" />
    </g>
    <g
       fill="#474747"
       id="g6836"
       transform="matrix(1.0583333,0,0,1.0583333,273.04989,29.765626)"
       style="fill:#3584e4">
      <path
         d="M 4.113,7.815 V 7.609 L 3.915,7.628 3.965,7.235 H 3.848 L 3.733,7.385 3.617,7.441 3.452,7.348 3.435,7.142 3.468,6.917 3.716,6.731 H 3.915 L 3.948,6.618 4.195,6.674 4.377,6.899 4.41,6.525 4.724,6.263 4.84,5.983 5.071,5.889 5.204,5.702 5.501,5.646 5.65,5.421 H 5.204 l 0.28,-0.13 H 5.683 L 5.963,5.197 5.997,5.085 5.897,4.991 5.782,4.954 5.815,4.842 5.732,4.673 5.534,4.748 5.567,4.598 5.336,4.468 5.154,4.785 5.171,4.898 4.989,4.973 4.873,5.216 4.823,4.991 4.51,4.861 4.46,4.692 4.873,4.449 5.055,4.281 5.072,4.075 4.972,4.019 4.84,4 4.758,4.206 c 0,0 -0.139,0.027 -0.174,0.036 C 4.13,4.66 3.214,5.562 3,7.266 3.008,7.306 3.155,7.534 3.155,7.534 L 3.502,7.74 3.849,7.833 M 7.815,3.533 7.385,3.365 6.889,3.421 6.278,3.589 6.162,3.701 6.542,3.963 v 0.15 L 6.393,4.263 6.592,4.655 6.724,4.58 6.889,4.318 A 5.51,5.51 0 0 0 7.616,4.038 L 7.815,3.533 M 10.344,3.875 9.969,3.969 9.75,4.125 V 4.25 L 9.375,4.5 9.469,4.844 9.688,4.687 9.813,4.844 9.969,4.937 10.063,4.657 10,4.5 10.063,4.406 10.281,4.219 h 0.094 l -0.094,0.218 v 0.188 c 0.09,-0.024 0.16,-0.051 0.25,-0.063 L 10.281,4.75 V 4.875 L 9.969,5.094 9.688,5.031 V 4.875 L 9.563,4.937 9.625,5.094 H 9.406 L 9.281,5.312 9.125,5.469 9.031,5.499 V 5.687 L 9.063,5.844 H 9.03 v 0.53 L 9.093,6.344 9.187,6.125 9.375,6 9.406,5.906 9.688,5.844 9.844,6.031 10.031,6.125 9.938,6.312 10.094,6.282 10.156,6.062 9.969,5.844 h 0.062 L 10.251,6 10.281,6.219 10.438,6.438 10.5,6.125 10.594,6.094 c 0.096,0.1 0.169,0.231 0.25,0.344 h 0.281 l 0.188,0.125 -0.094,0.093 -0.156,0.157 h -0.25 L 10.469,6.719 H 10.281 L 10.156,6.875 9.813,6.5 9.563,6.438 9.188,6.5 9.031,6.594 V 9 L 9.063,9.031 9.313,8.875 9.406,8.969 H 9.687 L 9.812,9.125 9.719,9.437 9.906,9.625 V 10 l 0.125,0.25 -0.093,0.25 c -0.01,0.161 0,0.307 0,0.469 0.08,0.219 0.143,0.435 0.218,0.656 l 0.063,0.344 v 0.187 h 0.125 l 0.219,-0.125 h 0.25 l 0.375,-0.437 -0.032,-0.157 0.25,-0.218 -0.187,-0.188 0.219,-0.187 0.218,-0.125 0.094,-0.125 -0.062,-0.25 V 9.75 l 0.187,-0.375 0.188,-0.25 0.25,-0.563 V 8.406 c -0.117,0.015 -0.23,0.023 -0.344,0.031 -0.072,0.005 -0.145,0 -0.219,0 A 7.442,7.442 0 0 1 11.438,7.657 L 11.281,7.469 11.188,7.156 11.25,7.094 l 0.219,0.25 0.25,0.562 0.156,0.156 -0.062,0.22 0.156,0.155 0.25,-0.25 0.312,-0.218 0.157,-0.188 V 7.562 C 12.648,7.489 12.633,7.417 12.594,7.344 L 12.438,7.531 12.313,7.375 12.125,7.25 V 6.969 l 0.219,0.218 0.219,-0.03 c 0.101,0.091 0.192,0.207 0.28,0.312 L 13,7.28 C 13,7.106 12.8,6.26 12.375,5.53 11.95,4.8 11.22,4.125 11.22,4.125 l -0.063,0.094 -0.218,0.218 -0.25,-0.25 h 0.25 l 0.125,-0.125 -0.47,-0.093 z"
         opacity="0.3"
         overflow="visible"
         id="path6834"
         style="fill:#3584e4" />
      <path
         d="m 8,4.846 v 10.38 L 5.656,12.938 4.316,15.672 C 3.989,16.412 2.283,15.817 2.768,14.828 L 4.094,11.989 H 1.136 Z"
         display="block"
         overflow="visible"
         id="path6830"
         style="fill:#3584e4" />
      <path
         d="M 7.156,1.063 C 3.33,1.522 0.578,5.02 1.063,8.843 1.194,9.878 1.356,10.226 1.356,10.226 L 3.031,8.594 A 4.992,4.992 0 0 1 7.406,3.03 4.992,4.992 0 0 1 12.969,7.405 C 13.283,10.013 11.578,12.43 9,12.937 l 0.031,2 c 0,0 0.521,-0.106 0.624,-0.131 3.416,-0.834 5.706,-4.128 5.283,-7.65 C 14.478,3.329 10.983,0.601 7.156,1.061 Z"
         font-family="Sans"
         font-weight="400"
         overflow="visible"
         style="text-indent:0;text-decoration-line:none;text-transform:none;fill:#3584e4"
         id="path6832" />
    </g>
    <circle
       style="fill:#77767b;fill-opacity:1;stroke:none;stroke-width:0.47614;stroke-linecap:round;stroke-linejoin:round"
       id="circle2311"
       cx="281.5166"
       cy="24.473959"
       r="0.26457155"
       inkscape:label="webcam" />
  </g>
</svg>
