<?xml version="1.0" encoding="UTF-8" standalone="no"?>
<!-- Created with Inkscape (http://www.inkscape.org/) -->

<svg
   inkscape:export-ydpi="96"
   inkscape:export-xdpi="96"
   inkscape:export-filename="Template.png"
   width="192"
   height="152"
   id="svg11300"
   sodipodi:version="0.32"
   inkscape:version="1.2.2 (b0a8486541, 2022-12-01)"
   sodipodi:docname="lv.martinsz.Stamina.Source.svg"
   inkscape:output_extension="org.inkscape.output.svg.inkscape"
   version="1.0"
   style="display:inline;enable-background:new"
   viewBox="0 0 192 152"
   xml:space="preserve"
   xmlns:inkscape="http://www.inkscape.org/namespaces/inkscape"
   xmlns:sodipodi="http://sodipodi.sourceforge.net/DTD/sodipodi-0.dtd"
   xmlns:xlink="http://www.w3.org/1999/xlink"
   xmlns="http://www.w3.org/2000/svg"
   xmlns:svg="http://www.w3.org/2000/svg"
   xmlns:rdf="http://www.w3.org/1999/02/22-rdf-syntax-ns#"
   xmlns:cc="http://creativecommons.org/ns#"
   xmlns:dc="http://purl.org/dc/elements/1.1/"><title
     id="title4162">Adwaita Icon Template</title><defs
     id="defs3"><linearGradient
       inkscape:collect="always"
       id="linearGradient6803"><stop
         style="stop-color:#c0bfbc;stop-opacity:1;"
         offset="0"
         id="stop6799" /><stop
         style="stop-color:#f6f5f4;stop-opacity:1;"
         offset="1"
         id="stop6801" /></linearGradient><linearGradient
       id="linearGradient3486"
       inkscape:collect="always"><stop
         id="stop3474"
         offset="0"
         style="stop-color:#3d3846;stop-opacity:1;" /><stop
         style="stop-color:#77767b;stop-opacity:1;"
         offset="0.03571427"
         id="stop3476" /><stop
         id="stop3478"
         offset="0.07142856"
         style="stop-color:#5e5c64;stop-opacity:1;" /><stop
         style="stop-color:#5e5c64;stop-opacity:1;"
         offset="0.9285714"
         id="stop3480" /><stop
         id="stop3482"
         offset="0.96428567"
         style="stop-color:#77767b;stop-opacity:1;" /><stop
         id="stop3484"
         offset="1"
         style="stop-color:#3d3846;stop-opacity:1;" /></linearGradient><linearGradient
       id="linearGradient1154"
       inkscape:collect="always"><stop
         id="stop1142"
         offset="0"
         style="stop-color:#77767b;stop-opacity:1" /><stop
         style="stop-color:#c0bfbc;stop-opacity:1"
         offset="0.05000014"
         id="stop1144" /><stop
         id="stop1146"
         offset="0.09980702"
         style="stop-color:#9a9996;stop-opacity:1" /><stop
         style="stop-color:#9a9996;stop-opacity:1"
         offset="0.90000081"
         id="stop1148" /><stop
         id="stop1150"
         offset="0.95000082"
         style="stop-color:#c0bfbc;stop-opacity:1" /><stop
         id="stop1152"
         offset="1"
         style="stop-color:#77767b;stop-opacity:1" /></linearGradient><linearGradient
       y2="236"
       x2="96"
       y1="236"
       x1="32"
       gradientTransform="translate(604.81684,170.58641)"
       gradientUnits="userSpaceOnUse"
       id="linearGradient1099"
       xlink:href="#linearGradient1036" /><linearGradient
       id="linearGradient1036"><stop
         id="stop1032"
         offset="0"
         style="stop-color:#d5d3cf;stop-opacity:1;" /><stop
         id="stop1034"
         offset="1"
         style="stop-color:#f6f5f4;stop-opacity:1" /></linearGradient><radialGradient
       r="32"
       fy="-76"
       fx="-244"
       cy="-76"
       cx="-244"
       gradientTransform="matrix(0.88333331,0,0,0.88333331,-460.35018,463.11973)"
       gradientUnits="userSpaceOnUse"
       id="radialGradient1103"
       xlink:href="#linearGradient1069" /><linearGradient
       id="linearGradient1069"><stop
         id="stop1065"
         offset="0"
         style="stop-color:#d5d3cf;stop-opacity:1" /><stop
         id="stop1067-1"
         offset="1"
         style="stop-color:#949390;stop-opacity:1" /></linearGradient><linearGradient
       gradientUnits="userSpaceOnUse"
       y2="232"
       x2="64"
       y1="262.5"
       x1="64"
       id="linearGradient1027"
       xlink:href="#linearGradient1025"
       gradientTransform="translate(-470.5864,432.81685)" /><linearGradient
       id="linearGradient1025"><stop
         id="stop1021"
         offset="0"
         style="stop-color:#9a9996;stop-opacity:1" /><stop
         id="stop1023"
         offset="1"
         style="stop-color:#77767b;stop-opacity:1" /></linearGradient><inkscape:path-effect
       effect="spiro"
       id="path-effect35304-9"
       is_visible="true" /><clipPath
       clipPathUnits="userSpaceOnUse"
       id="clipPath1609-7"><path
         sodipodi:nodetypes="cccccc"
         inkscape:connector-curvature="0"
         id="path1611-5"
         d="m 252,116 28,-28 v -8 h -36 v 36 z"
         style="fill:#e74747;stroke:none;stroke-width:0.25px;stroke-linecap:butt;stroke-linejoin:miter;stroke-opacity:1" /></clipPath><linearGradient
       id="linearGradient1697"><stop
         id="stop1685"
         offset="0"
         style="stop-color:#deddda;stop-opacity:1" /><stop
         style="stop-color:#eeeeec;stop-opacity:1"
         offset="0.04545455"
         id="stop1687" /><stop
         id="stop1689"
         offset="0.09090909"
         style="stop-color:#deddda;stop-opacity:1" /><stop
         style="stop-color:#deddda;stop-opacity:1"
         offset="0.90909094"
         id="stop1691" /><stop
         id="stop1693"
         offset="0.95454544"
         style="stop-color:#eeeeec;stop-opacity:1" /><stop
         id="stop1695"
         offset="1"
         style="stop-color:#c0bfbc;stop-opacity:1" /></linearGradient><clipPath
       clipPathUnits="userSpaceOnUse"
       id="clipPath1289"><path
         style="display:inline;opacity:1;vector-effect:none;fill:none;fill-opacity:1;stroke:#000000;stroke-width:4;stroke-linecap:round;stroke-linejoin:round;stroke-miterlimit:4;stroke-dasharray:none;stroke-dashoffset:0;stroke-opacity:1;marker:none;marker-start:none;marker-mid:none;marker-end:none;paint-order:normal;enable-background:new"
         d="m 64,-148 h 64 l 64,-64 64,64 h 192 c 17.728,0 32,14.272 32,32 v 288 c 0,17.728 -14.272,32 -32,32 H 256 l -64,-64 -64,64 H 64 C 46.272,204 32,189.728 32,172 v -288 c 0,-17.728 14.408898,-34.19889 32,-32 z"
         id="path1291"
         inkscape:connector-curvature="0"
         sodipodi:nodetypes="scccsssscccssss" /></clipPath><linearGradient
       id="paint3_linear-2-6-5"
       x2="1"
       gradientUnits="userSpaceOnUse"
       gradientTransform="matrix(0,6,-12,0,-64,209.99687)"><stop
         stop-color="#C01C27"
         id="stop91-0-7-4" /><stop
         offset="1"
         stop-color="#E01B24"
         id="stop93-2-5-7" /></linearGradient><clipPath
       clipPathUnits="userSpaceOnUse"
       id="clipPath1609"><path
         sodipodi:nodetypes="cccccc"
         inkscape:connector-curvature="0"
         id="path1611"
         d="m 252,116 28,-28 v -8 h -36 v 36 z"
         style="fill:#e74747;stroke:none;stroke-width:0.25px;stroke-linecap:butt;stroke-linejoin:miter;stroke-opacity:1" /></clipPath><linearGradient
       y2="254"
       x2="116"
       y1="254"
       x1="11.999994"
       gradientTransform="matrix(1.0769231,0,0,1.0666667,-4.92308,105.06667)"
       gradientUnits="userSpaceOnUse"
       id="linearGradient1820"
       xlink:href="#linearGradient1222" /><linearGradient
       id="linearGradient1222"><stop
         id="stop1210"
         offset="0"
         style="stop-color:#9a9996;stop-opacity:1" /><stop
         style="stop-color:#c0bfbc;stop-opacity:1"
         offset="0.03846159"
         id="stop1212" /><stop
         id="stop1214"
         offset="0.07692312"
         style="stop-color:#77767b;stop-opacity:1" /><stop
         style="stop-color:#77767b;stop-opacity:1"
         offset="0.92307693"
         id="stop1216" /><stop
         id="stop1218"
         offset="0.96153843"
         style="stop-color:#c0bfbc;stop-opacity:1" /><stop
         id="stop1220"
         offset="1"
         style="stop-color:#9a9996;stop-opacity:1" /></linearGradient><linearGradient
       y2="209"
       x2="31"
       y1="209"
       x1="19"
       gradientTransform="rotate(90,-40,273)"
       gradientUnits="userSpaceOnUse"
       id="linearGradient1822"
       xlink:href="#linearGradient1339" /><linearGradient
       id="linearGradient1339"><stop
         id="stop1335"
         offset="0"
         style="stop-color:#5e5c64;stop-opacity:1;" /><stop
         id="stop1337"
         offset="1"
         style="stop-color:#77767b;stop-opacity:1" /></linearGradient><linearGradient
       y2="209"
       x2="31"
       y1="209"
       x1="19"
       gradientTransform="rotate(90,-24,333)"
       gradientUnits="userSpaceOnUse"
       id="linearGradient1824"
       xlink:href="#linearGradient1339" /><linearGradient
       y2="209"
       x2="31"
       y1="209"
       x1="17"
       gradientTransform="rotate(90,-50,307)"
       gradientUnits="userSpaceOnUse"
       id="linearGradient1826"
       xlink:href="#linearGradient1234" /><linearGradient
       id="linearGradient1234"><stop
         style="stop-color:#aeadab;stop-opacity:1"
         offset="0"
         id="stop1230" /><stop
         style="stop-color:#ceccc8;stop-opacity:1"
         offset="1"
         id="stop1232" /></linearGradient><linearGradient
       y2="209"
       x2="31"
       y1="209"
       x1="19"
       gradientTransform="rotate(90,-30,283)"
       gradientUnits="userSpaceOnUse"
       id="linearGradient1828"
       xlink:href="#linearGradient1339" /><linearGradient
       y2="209"
       x2="31"
       y1="209"
       x1="19"
       gradientTransform="rotate(90,-20,293)"
       gradientUnits="userSpaceOnUse"
       id="linearGradient1830"
       xlink:href="#linearGradient1339" /><linearGradient
       y2="209"
       x2="31"
       y1="209"
       x1="19"
       gradientTransform="rotate(90,-10,303)"
       gradientUnits="userSpaceOnUse"
       id="linearGradient1832"
       xlink:href="#linearGradient1339" /><linearGradient
       y2="209"
       x2="31"
       y1="209"
       x1="19"
       gradientTransform="rotate(90,0,313)"
       gradientUnits="userSpaceOnUse"
       id="linearGradient1834"
       xlink:href="#linearGradient1339" /><linearGradient
       y2="209"
       x2="31"
       y1="209"
       x1="19"
       gradientTransform="rotate(90,-46,289)"
       gradientUnits="userSpaceOnUse"
       id="linearGradient1836"
       xlink:href="#linearGradient1339" /><linearGradient
       y2="209"
       x2="31"
       y1="209"
       x1="19"
       gradientTransform="rotate(90,-36,299)"
       gradientUnits="userSpaceOnUse"
       id="linearGradient1838"
       xlink:href="#linearGradient1339" /><linearGradient
       y2="209"
       x2="31"
       y1="209"
       x1="19"
       gradientTransform="rotate(90,-26,309)"
       gradientUnits="userSpaceOnUse"
       id="linearGradient1840"
       xlink:href="#linearGradient1339" /><linearGradient
       y2="209"
       x2="31"
       y1="209"
       x1="19"
       gradientTransform="rotate(90,-11,324)"
       gradientUnits="userSpaceOnUse"
       id="linearGradient1842"
       xlink:href="#linearGradient1228" /><linearGradient
       id="linearGradient1228"><stop
         style="stop-color:#e66100;stop-opacity:1"
         offset="0"
         id="stop1224" /><stop
         style="stop-color:#ff7800;stop-opacity:1"
         offset="1"
         id="stop1226" /></linearGradient><linearGradient
       y2="209"
       x2="31"
       y1="209"
       x1="19"
       gradientTransform="rotate(90,-60,297)"
       gradientUnits="userSpaceOnUse"
       id="linearGradient1844"
       xlink:href="#linearGradient1339" /><linearGradient
       inkscape:collect="always"
       xlink:href="#linearGradient3486"
       id="linearGradient2864"
       gradientUnits="userSpaceOnUse"
       gradientTransform="matrix(0.25,0,0,0.25,-14.14897,400.34849)"
       x1="88.595886"
       y1="-449.39401"
       x2="536.59589"
       y2="-449.39401" /><linearGradient
       inkscape:collect="always"
       xlink:href="#linearGradient1154"
       id="linearGradient4661"
       gradientUnits="userSpaceOnUse"
       gradientTransform="matrix(0.19642829,0,0,0.34210528,2.59729,425.74005)"
       x1="88.595886"
       y1="-449.39401"
       x2="536.59589"
       y2="-449.39401" /><linearGradient
       inkscape:collect="always"
       xlink:href="#linearGradient6803"
       id="linearGradient6805"
       x1="64"
       y1="204"
       x2="64"
       y2="264"
       gradientUnits="userSpaceOnUse" /><clipPath
       clipPathUnits="userSpaceOnUse"
       id="clipPath3980"><rect
         style="fill:#241f31;stroke-width:0;stroke-linecap:round;stroke-linejoin:round"
         id="rect3982"
         width="96"
         height="68"
         x="16"
         y="208"
         rx="4"
         ry="4" /></clipPath></defs><sodipodi:namedview
     stroke="#ef2929"
     fill="#f57900"
     id="base"
     pagecolor="#ffffff"
     bordercolor="#666666"
     borderopacity="0.25490196"
     inkscape:pageopacity="0.0"
     inkscape:pageshadow="2"
     inkscape:zoom="1"
     inkscape:cx="96.5"
     inkscape:cy="76"
     inkscape:current-layer="layer9"
     showgrid="false"
     inkscape:grid-bbox="true"
     inkscape:document-units="px"
     inkscape:showpageshadow="false"
     inkscape:window-width="1280"
     inkscape:window-height="731"
     inkscape:window-x="0"
     inkscape:window-y="0"
     width="400px"
     height="300px"
     inkscape:snap-nodes="true"
     inkscape:snap-bbox="true"
     objecttolerance="7"
     gridtolerance="12"
     guidetolerance="13"
     inkscape:window-maximized="1"
     inkscape:pagecheckerboard="false"
     showguides="false"
     inkscape:guide-bbox="true"
     inkscape:locked="false"
     inkscape:measure-start="0,0"
     inkscape:measure-end="0,0"
     inkscape:object-nodes="true"
     inkscape:bbox-nodes="true"
     inkscape:snap-global="true"
     inkscape:object-paths="true"
     inkscape:snap-intersection-paths="true"
     inkscape:snap-bbox-edge-midpoints="true"
     inkscape:snap-bbox-midpoints="true"
     showborder="true"
     inkscape:snap-center="true"
     inkscape:snap-object-midpoints="true"
     inkscape:snap-midpoints="true"
     inkscape:snap-smooth-nodes="true"
     inkscape:snap-text-baseline="true"
     borderlayer="true"
     inkscape:deskcolor="#d1d1d1"><inkscape:grid
       type="xygrid"
       id="grid5883"
       spacingx="2"
       spacingy="2"
       enabled="true"
       visible="true"
       empspacing="4"
       originx="8"
       originy="8" /><sodipodi:guide
       position="72,16"
       orientation="0,1"
       id="guide1073"
       inkscape:locked="false"
       inkscape:label=""
       inkscape:color="rgb(0,0,255)" /><sodipodi:guide
       position="20,72"
       orientation="1,0"
       id="guide1075"
       inkscape:locked="false"
       inkscape:label=""
       inkscape:color="rgb(0,0,255)" /><sodipodi:guide
       position="72,112"
       orientation="0,1"
       id="guide1099"
       inkscape:locked="false"
       inkscape:label=""
       inkscape:color="rgb(0,0,255)" /><sodipodi:guide
       position="72,136"
       orientation="0,1"
       id="guide993"
       inkscape:locked="false"
       inkscape:label=""
       inkscape:color="rgb(0,0,255)" /><sodipodi:guide
       position="112,72"
       orientation="1,0"
       id="guide995"
       inkscape:locked="false"
       inkscape:label=""
       inkscape:color="rgb(0,0,255)" /><sodipodi:guide
       position="8.0000001,72"
       orientation="1,0"
       id="guide867"
       inkscape:locked="false"
       inkscape:label=""
       inkscape:color="rgb(0,0,255)" /><sodipodi:guide
       position="128,72"
       orientation="1,0"
       id="guide869"
       inkscape:locked="false"
       inkscape:label=""
       inkscape:color="rgb(0,0,255)" /><sodipodi:guide
       position="72,124"
       orientation="0,1"
       id="guide871"
       inkscape:locked="false"
       inkscape:label=""
       inkscape:color="rgb(0,0,255)" /><inkscape:grid
       type="xygrid"
       id="grid873"
       spacingx="1"
       spacingy="1"
       empspacing="8"
       color="#000000"
       opacity="0.49019608"
       empcolor="#000000"
       empopacity="0.08627451"
       dotted="true"
       originx="8"
       originy="8" /><sodipodi:guide
       position="32,72"
       orientation="1,0"
       id="guide877"
       inkscape:locked="false"
       inkscape:label=""
       inkscape:color="rgb(0,0,255)" /><sodipodi:guide
       position="124,72"
       orientation="1,0"
       id="guide879"
       inkscape:locked="false"
       inkscape:label=""
       inkscape:color="rgb(0,0,255)" /><sodipodi:guide
       position="72,128"
       orientation="0,1"
       id="guide881"
       inkscape:locked="false"
       inkscape:label=""
       inkscape:color="rgb(0,0,255)" /><sodipodi:guide
       position="72,20"
       orientation="0,1"
       id="guide883"
       inkscape:locked="false"
       inkscape:label=""
       inkscape:color="rgb(0,0,255)" /><sodipodi:guide
       position="16,72"
       orientation="1,0"
       id="guide885"
       inkscape:locked="false"
       inkscape:label=""
       inkscape:color="rgb(0,0,255)" /><sodipodi:guide
       position="136,72"
       orientation="1,0"
       id="guide887"
       inkscape:locked="false"
       inkscape:label=""
       inkscape:color="rgb(0,0,255)" /><sodipodi:guide
       position="72,8"
       orientation="0,1"
       id="guide897"
       inkscape:locked="false"
       inkscape:label=""
       inkscape:color="rgb(0,0,255)" /><sodipodi:guide
       position="72,32"
       orientation="0,1"
       id="guide899"
       inkscape:locked="false"
       inkscape:label=""
       inkscape:color="rgb(0,0,255)" /><sodipodi:guide
       position="264,264"
       orientation="-0.70710678,0.70710678"
       id="guide950"
       inkscape:locked="false"
       inkscape:label=""
       inkscape:color="rgb(0,0,255)" /><sodipodi:guide
       position="72,72"
       orientation="0.70710678,0.70710678"
       id="guide952"
       inkscape:locked="false"
       inkscape:label=""
       inkscape:color="rgb(0,0,255)" /></sodipodi:namedview><metadata
     id="metadata4"><rdf:RDF><cc:Work
         rdf:about=""><dc:format>image/svg+xml</dc:format><dc:type
           rdf:resource="http://purl.org/dc/dcmitype/StillImage" /><dc:creator><cc:Agent><dc:title>GNOME Design Team</dc:title></cc:Agent></dc:creator><dc:source /><cc:license
           rdf:resource="http://creativecommons.org/licenses/by-sa/4.0/" /><dc:title>Adwaita Icon Template</dc:title><dc:subject><rdf:Bag /></dc:subject><dc:date /><dc:rights><cc:Agent><dc:title /></cc:Agent></dc:rights><dc:publisher><cc:Agent><dc:title /></cc:Agent></dc:publisher><dc:identifier /><dc:relation /><dc:language /><dc:coverage /><dc:description /><dc:contributor><cc:Agent><dc:title /></cc:Agent></dc:contributor></cc:Work><cc:License
         rdf:about="http://creativecommons.org/licenses/by-sa/4.0/"><cc:permits
           rdf:resource="http://creativecommons.org/ns#Reproduction" /><cc:permits
           rdf:resource="http://creativecommons.org/ns#Distribution" /><cc:requires
           rdf:resource="http://creativecommons.org/ns#Notice" /><cc:requires
           rdf:resource="http://creativecommons.org/ns#Attribution" /><cc:permits
           rdf:resource="http://creativecommons.org/ns#DerivativeWorks" /><cc:requires
           rdf:resource="http://creativecommons.org/ns#ShareAlike" /></cc:License></rdf:RDF></metadata><g
     id="layer1"
     inkscape:label="App Icon"
     inkscape:groupmode="layer"
     style="display:inline"
     transform="translate(8,-156)"><g
       inkscape:groupmode="layer"
       id="layer4"
       inkscape:label="template"
       style="display:inline"
       sodipodi:insensitive="true"><rect
         inkscape:label="0"
         y="172"
         x="9.2651362e-08"
         height="128"
         width="128"
         id="hicolor"
         style="display:inline;overflow:visible;visibility:visible;fill:#f0f0f0;fill-opacity:0;fill-rule:nonzero;stroke:none;stroke-width:0.5;marker:none;enable-background:accumulate" /><rect
         style="display:inline;overflow:visible;visibility:visible;fill:#f0f0f0;fill-opacity:0;fill-rule:nonzero;stroke:none;stroke-width:0.5;marker:none;enable-background:accumulate"
         id="symbolic"
         width="16"
         height="16"
         x="160"
         y="172"
         inkscape:label="0" /></g><g
       inkscape:groupmode="layer"
       id="layer2"
       inkscape:label="baseplate"
       style="display:inline"
       sodipodi:insensitive="true"><g
         style="display:inline;fill:#000000;enable-background:new"
         transform="matrix(7.9911709,0,0,8.0036407,-167.7909,-4846.0776)"
         id="g12027"
         inkscape:export-xdpi="12"
         inkscape:export-ydpi="12" /><rect
         style="display:inline;overflow:visible;visibility:visible;fill:#f0f0f0;fill-opacity:1;fill-rule:nonzero;stroke:none;stroke-width:0.5;marker:none;enable-background:accumulate"
         id="128"
         width="128"
         height="128"
         x="9.2651362e-08"
         y="172"
         inkscape:label="0" /><g
         id="g883"
         style="fill:none;fill-opacity:0.25098;stroke:#a579b3;stroke-opacity:1"
         transform="translate(-24,24)" /><g
         id="g900"
         style="fill:none;fill-opacity:0.25098;stroke:#a579b3;stroke-opacity:1"
         transform="translate(-24,24)" /><rect
         inkscape:label=""
         y="172"
         x="160"
         height="16"
         width="16"
         id="16"
         style="display:inline;overflow:visible;visibility:visible;fill:#f0f0f0;fill-opacity:1;fill-rule:nonzero;stroke:none;stroke-width:0.5;marker:none;enable-background:accumulate" /><text
         xml:space="preserve"
         style="font-style:normal;font-variant:normal;font-weight:bold;font-stretch:normal;font-size:4px;line-height:125%;font-family:Cantarell;-inkscape-font-specification:'Cantarell, Bold';text-align:start;writing-mode:lr-tb;text-anchor:start;display:inline;fill:#000000;fill-opacity:1;stroke:none;stroke-width:0.332649;enable-background:new"
         x="0"
         y="167"
         id="text863"
         inkscape:label="icon-name"><tspan
           style="font-size:4px;stroke-width:0.332649"
           sodipodi:role="line"
           id="tspan861"
           x="0"
           y="167">Hicolor</tspan></text><text
         inkscape:label="icon-name"
         id="text867"
         y="167"
         x="160"
         style="font-style:normal;font-variant:normal;font-weight:bold;font-stretch:normal;font-size:4px;line-height:125%;font-family:Cantarell;-inkscape-font-specification:'Cantarell, Bold';text-align:start;writing-mode:lr-tb;text-anchor:start;display:inline;fill:#000000;fill-opacity:1;stroke:none;stroke-width:0.332649;enable-background:new"
         xml:space="preserve"><tspan
           y="167"
           x="160"
           id="tspan865"
           sodipodi:role="line"
           style="font-size:4px;stroke-width:0.332649">Symbolic</tspan></text></g><g
       inkscape:groupmode="layer"
       id="layer9"
       inkscape:label="icons"
       style="display:inline"><rect
         ry="8"
         rx="8"
         y="212"
         x="7.9999933"
         height="76"
         width="112.00001"
         id="rect2858"
         style="display:inline;vector-effect:none;fill:url(#linearGradient2864);fill-opacity:1;stroke:none;stroke-width:0.25;stroke-linecap:butt;stroke-linejoin:miter;stroke-miterlimit:4;stroke-dasharray:none;stroke-dashoffset:0;stroke-opacity:1;marker:none;marker-start:none;marker-mid:none;marker-end:none;paint-order:normal;enable-background:new" /><rect
         style="display:inline;vector-effect:none;fill:#9a9996;fill-opacity:1;stroke:none;stroke-width:0.25;stroke-linecap:butt;stroke-linejoin:miter;stroke-miterlimit:4;stroke-dasharray:none;stroke-dashoffset:0;stroke-opacity:1;marker:none;marker-start:none;marker-mid:none;marker-end:none;paint-order:normal;enable-background:new"
         id="rect2860"
         width="112.00001"
         height="84"
         x="7.9999933"
         y="200"
         rx="8"
         ry="8" /><rect
         style="fill:#241f31;stroke-width:0;stroke-linecap:round;stroke-linejoin:round"
         id="rect3540"
         width="96"
         height="68"
         x="16"
         y="208"
         rx="4"
         ry="4" /><rect
         style="fill:#3d3846;stroke-width:0;stroke-linecap:round;stroke-linejoin:round"
         id="rect4122"
         width="96"
         height="4"
         x="16"
         y="208"
         clip-path="url(#clipPath3980)" /><rect
         ry="8"
         rx="8"
         y="212"
         x="20.000031"
         height="60"
         width="87.999878"
         id="rect4655"
         style="display:inline;vector-effect:none;fill:url(#linearGradient4661);fill-opacity:1;stroke:none;stroke-width:0.25;stroke-linecap:butt;stroke-linejoin:miter;stroke-miterlimit:4;stroke-dasharray:none;stroke-dashoffset:0;stroke-opacity:1;marker:none;marker-start:none;marker-mid:none;marker-end:none;paint-order:normal;enable-background:new" /><rect
         style="display:inline;vector-effect:none;fill:url(#linearGradient6805);fill-opacity:1;stroke:none;stroke-width:0.25;stroke-linecap:butt;stroke-linejoin:miter;stroke-miterlimit:4;stroke-dasharray:none;stroke-dashoffset:0;stroke-opacity:1;marker:none;marker-start:none;marker-mid:none;marker-end:none;paint-order:normal;enable-background:new"
         id="rect4657"
         width="88"
         height="60"
         x="20"
         y="204"
         rx="8"
         ry="8" /><path
         d="m 65.937504,217.99987 c -0.664062,0.0234 -1.28125,0.375 -1.632812,0.9375 l -10,16 c -0.210938,0.34374 -0.304688,0.71094 -0.304688,1.0625 v 2 h 6 v 10 c 0,2.00782 2.632812,2.75782 3.695312,1.0625 l 10,-16 c 0.210938,-0.34376 0.304688,-0.71094 0.304688,-1.0625 v -2 h -6 v -10 c 0,-1.125 -0.929688,-2.03126 -2.0625,-2 z m 0,0"
         fill="#222222"
         id="path10260"
         style="fill:#77767b;stroke-width:2" /><path
         id="path10844"
         style="fill:#3d3846;stroke-width:2"
         d="m 65.9375,218 c -0.664061,0.0234 -1.281251,0.375 -1.632812,0.9375 l -10,16 C 54.09375,235.28124 54,235.64844 54,236 v 2 c 0,-0.35156 0.09375,-0.71876 0.304688,-1.0625 l 10,-16 C 64.656249,220.375 65.273439,220.0234 65.9375,220 67.070311,219.96874 68,220.875 68,222 v -2 c 0,-1.125 -0.929689,-2.03126 -2.0625,-2 z M 68,230 v 2 h 6 v -2 z" /><g
         id="surface322534"
         transform="translate(160.00391,172.00391)" /><path
         id="rect444"
         style="display:inline;vector-effect:none;fill:#f6f5f4;fill-opacity:1;stroke:none;stroke-width:0.25;stroke-linecap:butt;stroke-linejoin:miter;stroke-miterlimit:4;stroke-dasharray:none;stroke-dashoffset:0;stroke-opacity:1;marker:none;marker-start:none;marker-mid:none;marker-end:none;paint-order:normal;enable-background:new;opacity:0.4"
         d="M 28 204 C 23.568006 204 20 207.568 20 212 L 20 214 C 20 209.568 23.568006 206 28 206 L 100 206 C 104.43199 206 108 209.568 108 214 L 108 212 C 108 207.568 104.43199 204 100 204 L 28 204 z " /><g
         fill="#222222"
         id="g4904"
         transform="matrix(-4,0,0,-4,101.70747,305.11525)"
         style="opacity:0.2;fill:#000000"><path
           d="m 35.383907,16.794449 c -0.101562,0.0039 -0.199219,0.02344 -0.292969,0.05469 -0.0625,0.02344 -0.125,0.05469 -0.179687,0.08594 -0.03125,0.01953 -0.05859,0.03906 -0.08203,0.05859 -0.08203,0.05859 -0.152344,0.132812 -0.210938,0.210937 -0.08203,0.109375 -0.136718,0.234375 -0.164062,0.363281 -0.0078,0.03125 -0.01563,0.06641 -0.01953,0.09766 -0.0039,0.03906 -0.0078,0.07422 -0.0078,0.113281 V 26.16164 L 31.87611,24.884297 c -0.464844,-0.234375 -1.03125,-0.07422 -1.300781,0.367187 -0.273438,0.441406 -0.164063,1.019532 0.253906,1.328125 l 3.976562,2.980469 0.01953,0.01953 c 0.01172,0.0078 0.01953,0.01172 0.03125,0.01953 0.01562,0.01172 0.03125,0.01953 0.04687,0.03125 0.01172,0.0078 0.02344,0.01172 0.03516,0.01953 0.01563,0.0078 0.03125,0.01563 0.04297,0.02344 0.01953,0.0078 0.03906,0.01563 0.05469,0.02344 0.01563,0.0078 0.02734,0.01172 0.03906,0.01563 0.01953,0.0078 0.04297,0.01563 0.0625,0.02344 0.0078,0.0039 0.01953,0.0039 0.03125,0.0078 0.01562,0.0039 0.03125,0.0078 0.05078,0.01172 0.01563,0.0039 0.03516,0.0078 0.05469,0.01172 0.01172,0 0.01953,0.0039 0.02734,0.0039 0.02734,0.0039 0.05469,0.0039 0.08203,0.0078 h 0.04297 5 c 0,0 0.457031,0.01563 0.949219,-0.230469 0.488281,-0.246073 1.050781,-0.93748 1.050781,-1.769511 v -4 c 0,-0.460938 -0.3125,-0.859375 -0.757812,-0.96875 l -4,-1 c -0.07813,-0.02344 -0.160157,-0.03125 -0.242188,-0.03125 h -1 v -4 c 0,-0.101562 -0.01953,-0.199219 -0.05078,-0.292969 -0.02734,-0.09766 -0.07422,-0.1875 -0.132813,-0.269531 -0.01953,-0.02734 -0.03906,-0.05469 -0.0625,-0.07813 -0.0625,-0.07422 -0.140625,-0.140625 -0.226562,-0.195313 -0.02734,-0.01562 -0.05469,-0.03125 -0.08594,-0.04687 -0.03125,-0.01563 -0.05859,-0.02734 -0.09375,-0.03906 -0.03125,-0.01172 -0.0625,-0.02344 -0.09375,-0.03125 -0.03125,-0.0078 -0.06641,-0.01563 -0.09766,-0.02344 -0.06641,-0.0078 -0.132812,-0.01172 -0.199219,-0.0078 z m 0,0"
           id="path4902"
           style="fill:#000000" /></g><g
         fill="#222222"
         id="g4757"
         transform="matrix(-4,0,0,-4,101.70747,301.11525)"
         style="fill:#deddda"><path
           d="m 35.383907,16.794449 c -0.101562,0.0039 -0.199219,0.02344 -0.292969,0.05469 -0.0625,0.02344 -0.125,0.05469 -0.179687,0.08594 -0.03125,0.01953 -0.05859,0.03906 -0.08203,0.05859 -0.08203,0.05859 -0.152344,0.132812 -0.210938,0.210937 -0.08203,0.109375 -0.136718,0.234375 -0.164062,0.363281 -0.0078,0.03125 -0.01563,0.06641 -0.01953,0.09766 -0.0039,0.03906 -0.0078,0.07422 -0.0078,0.113281 V 26.16164 L 31.87611,24.884297 c -0.464844,-0.234375 -1.03125,-0.07422 -1.300781,0.367187 -0.273438,0.441406 -0.164063,1.019532 0.253906,1.328125 l 3.976562,2.980469 0.01953,0.01953 c 0.01172,0.0078 0.01953,0.01172 0.03125,0.01953 0.01562,0.01172 0.03125,0.01953 0.04687,0.03125 0.01172,0.0078 0.02344,0.01172 0.03516,0.01953 0.01563,0.0078 0.03125,0.01563 0.04297,0.02344 0.01953,0.0078 0.03906,0.01563 0.05469,0.02344 0.01563,0.0078 0.02734,0.01172 0.03906,0.01563 0.01953,0.0078 0.04297,0.01563 0.0625,0.02344 0.0078,0.0039 0.01953,0.0039 0.03125,0.0078 0.01562,0.0039 0.03125,0.0078 0.05078,0.01172 0.01563,0.0039 0.03516,0.0078 0.05469,0.01172 0.01172,0 0.01953,0.0039 0.02734,0.0039 0.02734,0.0039 0.05469,0.0039 0.08203,0.0078 h 0.04297 5 c 0,0 0.457031,0.01563 0.949219,-0.230469 0.488281,-0.246073 1.050781,-0.93748 1.050781,-1.769511 v -4 c 0,-0.460938 -0.3125,-0.859375 -0.757812,-0.96875 l -4,-1 c -0.07813,-0.02344 -0.160157,-0.03125 -0.242188,-0.03125 h -1 v -4 c 0,-0.101562 -0.01953,-0.199219 -0.05078,-0.292969 -0.02734,-0.09766 -0.07422,-0.1875 -0.132813,-0.269531 -0.01953,-0.02734 -0.03906,-0.05469 -0.0625,-0.07813 -0.0625,-0.07422 -0.140625,-0.140625 -0.226562,-0.195313 -0.02734,-0.01562 -0.05469,-0.03125 -0.08594,-0.04687 -0.03125,-0.01563 -0.05859,-0.02734 -0.09375,-0.03906 -0.03125,-0.01172 -0.0625,-0.02344 -0.09375,-0.03125 -0.03125,-0.0078 -0.06641,-0.01563 -0.09766,-0.02344 -0.06641,-0.0078 -0.132812,-0.01172 -0.199219,-0.0078 z m 0,0"
           id="path4755"
           style="fill:#deddda" /></g><g
         fill="#222222"
         id="g4168"
         transform="matrix(-4,0,0,-4,101.70747,299.11525)"
         style="fill:#f6f5f4"><path
           d="m 35.383907,16.794449 c -0.101562,0.0039 -0.199219,0.02344 -0.292969,0.05469 -0.0625,0.02344 -0.125,0.05469 -0.179687,0.08594 -0.03125,0.01953 -0.05859,0.03906 -0.08203,0.05859 -0.08203,0.05859 -0.152344,0.132812 -0.210938,0.210937 -0.08203,0.109375 -0.136718,0.234375 -0.164062,0.363281 -0.0078,0.03125 -0.01563,0.06641 -0.01953,0.09766 -0.0039,0.03906 -0.0078,0.07422 -0.0078,0.113281 V 26.16164 L 31.87611,24.884297 c -0.464844,-0.234375 -1.03125,-0.07422 -1.300781,0.367187 -0.273438,0.441406 -0.164063,1.019532 0.253906,1.328125 l 3.976562,2.980469 0.01953,0.01953 c 0.01172,0.0078 0.01953,0.01172 0.03125,0.01953 0.01562,0.01172 0.03125,0.01953 0.04687,0.03125 0.01172,0.0078 0.02344,0.01172 0.03516,0.01953 0.01563,0.0078 0.03125,0.01563 0.04297,0.02344 0.01953,0.0078 0.03906,0.01563 0.05469,0.02344 0.01563,0.0078 0.02734,0.01172 0.03906,0.01563 0.01953,0.0078 0.04297,0.01563 0.0625,0.02344 0.0078,0.0039 0.01953,0.0039 0.03125,0.0078 0.01562,0.0039 0.03125,0.0078 0.05078,0.01172 0.01563,0.0039 0.03516,0.0078 0.05469,0.01172 0.01172,0 0.01953,0.0039 0.02734,0.0039 0.02734,0.0039 0.05469,0.0039 0.08203,0.0078 h 0.04297 5 c 0,0 0.457031,0.01563 0.949219,-0.230469 0.488281,-0.246073 1.050781,-0.93748 1.050781,-1.769511 v -4 c 0,-0.460938 -0.3125,-0.859375 -0.757812,-0.96875 l -4,-1 c -0.07813,-0.02344 -0.160157,-0.03125 -0.242188,-0.03125 h -1 v -4 c 0,-0.101562 -0.01953,-0.199219 -0.05078,-0.292969 -0.02734,-0.09766 -0.07422,-0.1875 -0.132813,-0.269531 -0.01953,-0.02734 -0.03906,-0.05469 -0.0625,-0.07813 -0.0625,-0.07422 -0.140625,-0.140625 -0.226562,-0.195313 -0.02734,-0.01562 -0.05469,-0.03125 -0.08594,-0.04687 -0.03125,-0.01563 -0.05859,-0.02734 -0.09375,-0.03906 -0.03125,-0.01172 -0.0625,-0.02344 -0.09375,-0.03125 -0.03125,-0.0078 -0.06641,-0.01563 -0.09766,-0.02344 -0.06641,-0.0078 -0.132812,-0.01172 -0.199219,-0.0078 z m 0,0"
           id="path4164"
           style="fill:#f6f5f4" /></g><path
         id="path5051"
         style="fill:#deddda;stroke-width:4"
         d="m -60,180 c 0,0 -1.828125,-0.0625 -3.796875,0.92188 C -65.749997,181.90617 -68,184.67187 -68,188 v 2 c 0,-3.32813 2.250003,-6.09383 4.203125,-7.07812 C -61.828125,181.93751 -60,182 -60,182 h 20 0.171875 c 0.10936,0.0156 0.218765,0.0156 0.328125,0.0312 0.03124,0 0.06249,0.0156 0.109375,0.0156 0.07812,0.0157 0.15623,0.0313 0.21875,0.0469 0.07812,0.0157 0.140645,0.0313 0.203125,0.0469 0.04688,0.0156 0.0938,0.0157 0.125,0.0313 0.07812,0.0313 0.17188,0.0626 0.25,0.0937 0.04688,0.0156 0.09373,0.0313 0.15625,0.0625 0.06252,0.0313 0.14063,0.0626 0.21875,0.0938 0.04688,0.0313 0.109355,0.0626 0.171875,0.0937 0.04688,0.0312 0.09374,0.0469 0.140625,0.0781 0.06248,0.0469 0.12502,0.0781 0.1875,0.125 0.04688,0.0312 0.07812,0.0469 0.125,0.0781 l 0.07813,0.0781 15.90625,11.92188 c 0.759417,0.56069 1.248476,1.34788 1.470703,2.20117 0.396784,-1.53675 -0.131864,-3.21268 -1.470703,-4.20117 l -15.90625,-11.92188 -0.07813,-0.0781 c -0.04688,-0.0312 -0.07812,-0.0469 -0.125,-0.0781 -0.06248,-0.0469 -0.12502,-0.0781 -0.1875,-0.125 -0.04688,-0.0312 -0.09374,-0.0469 -0.140625,-0.0781 -0.06252,-0.0312 -0.124995,-0.0625 -0.171875,-0.0937 -0.07812,-0.0312 -0.15623,-0.0625 -0.21875,-0.0938 -0.06252,-0.0312 -0.10937,-0.0469 -0.15625,-0.0625 -0.07812,-0.0312 -0.17188,-0.0625 -0.25,-0.0937 -0.0312,-0.0156 -0.07812,-0.0157 -0.125,-0.0313 -0.06248,-0.0156 -0.125005,-0.0312 -0.203125,-0.0469 -0.06252,-0.0156 -0.14063,-0.0312 -0.21875,-0.0469 -0.04688,0 -0.07813,-0.0156 -0.109375,-0.0156 -0.10936,-0.0156 -0.218765,-0.0156 -0.328125,-0.0312 H -40 Z" /><g
         id="g4131"><path
           id="path2012"
           style="fill:#241f31"
           d="m 162.5,174 c -1.36719,0 -2.5,1.13281 -2.5,2.5 v 7 c 0,1.36719 1.13281,2.5 2.5,2.5 h 7.5 v -2.23633 l 2.10547,-4.21094 L 172.38281,179 H 175 v 3 h 1 v -5.5 c 0,-1.36719 -1.13281,-2.5 -2.5,-2.5 z m 0,2 h 1 c 0.27734,0 0.5,0.22266 0.5,0.5 v 1 c 0,0.27734 -0.22266,0.5 -0.5,0.5 h -1 c -0.27734,0 -0.5,-0.22266 -0.5,-0.5 v -1 c 0,-0.24219 0.17187,-0.44531 0.39844,-0.48828 0.0312,-0.008 0.0664,-0.0117 0.10156,-0.0117 z m 3,0 h 1 c 0.27734,0 0.5,0.22266 0.5,0.5 v 1 c 0,0.27734 -0.22266,0.5 -0.5,0.5 h -1 c -0.27734,0 -0.5,-0.22266 -0.5,-0.5 v -1 c 0,-0.27734 0.22266,-0.5 0.5,-0.5 z m 3,0 h 1 c 0.27734,0 0.5,0.22266 0.5,0.5 v 1 c 0,0.27734 -0.22266,0.5 -0.5,0.5 h -1 c -0.27734,0 -0.5,-0.22266 -0.5,-0.5 v -1 c 0,-0.27734 0.22266,-0.5 0.5,-0.5 z m 3,0 h 1 c 0.27734,0 0.5,0.22266 0.5,0.5 v 1 c 0,0.27734 -0.22266,0.5 -0.5,0.5 h -1 c -0.27734,0 -0.5,-0.22266 -0.5,-0.5 v -1 c 0,-0.27734 0.22266,-0.5 0.5,-0.5 z m -8,3 h 1 c 0.27734,0 0.5,0.22266 0.5,0.5 v 1 c 0,0.27734 -0.22266,0.5 -0.5,0.5 h -1 c -0.27734,0 -0.5,-0.22266 -0.5,-0.5 v -1 c 0,-0.27734 0.22266,-0.5 0.5,-0.5 z m 3,0 h 1 c 0.27734,0 0.5,0.22266 0.5,0.5 v 1 c 0,0.27734 -0.22266,0.5 -0.5,0.5 h -1 c -0.27734,0 -0.5,-0.22266 -0.5,-0.5 v -1 c 0,-0.27734 0.22266,-0.5 0.5,-0.5 z m 3,0 h 1 c 0.27734,0 0.5,0.22266 0.5,0.5 v 1 c 0,0.27734 -0.22266,0.5 -0.5,0.5 h -1 c -0.27734,0 -0.5,-0.22266 -0.5,-0.5 v -1 c 0,-0.27734 0.22266,-0.5 0.5,-0.5 z m -7,3 h 1 c 0.27734,0 0.5,0.22266 0.5,0.5 v 1 c 0,0.27734 -0.22266,0.5 -0.5,0.5 h -1 c -0.27734,0 -0.5,-0.22266 -0.5,-0.5 v -1 c 0,-0.27734 0.22266,-0.5 0.5,-0.5 z m 3,0 h 3 c 0.27734,0 0.5,0.22266 0.5,0.5 v 1 c 0,0.27734 -0.22266,0.5 -0.5,0.5 h -3 c -0.27734,0 -0.5,-0.22266 -0.5,-0.5 v -1 c 0,-0.27734 0.22266,-0.5 0.5,-0.5 z"
           sodipodi:nodetypes="sssscccccccssssssssssscsssssssssssssssssssssssssssssssssssssssssssssssssssssssssssssssssssssssss" /><path
           id="rect1195-3"
           style="display:inline;fill:#241f31;stroke-width:2.44949;stroke-linecap:round;stroke-linejoin:round;enable-background:new"
           d="m 173,180 -2,4 v 1 h 2 v 3 h 1 l 2,-4 v -1 h -2 v -3 z" /></g></g><g
       inkscape:groupmode="layer"
       id="layer3"
       inkscape:label="grid"
       style="display:inline"
       sodipodi:insensitive="true"><circle
         cx="64.000031"
         cy="236"
         r="59.504131"
         id="circle2892"
         style="display:inline;opacity:0.1;vector-effect:none;fill:none;fill-opacity:1;stroke:#000000;stroke-width:0.99000001;stroke-linecap:butt;stroke-linejoin:miter;stroke-miterlimit:4;stroke-dasharray:0.99000001, 0.99000001;stroke-dashoffset:0;stroke-opacity:1;marker:none;marker-start:none;marker-mid:none;marker-end:none;paint-order:normal;enable-background:new" /><rect
         ry="7.9292889"
         rx="8.701004"
         y="180.49496"
         x="20.495007"
         height="111.01005"
         width="87.009987"
         id="rect2894"
         style="display:inline;opacity:0.1;vector-effect:none;fill:none;fill-opacity:1;stroke:#000000;stroke-width:0.99000001;stroke-linecap:butt;stroke-linejoin:miter;stroke-miterlimit:4;stroke-dasharray:0.99000001, 0.99000001;stroke-dashoffset:0;stroke-opacity:1;marker:none;marker-start:none;marker-mid:none;marker-end:none;paint-order:normal;enable-background:new" /><rect
         ry="7.9238095"
         rx="7.9238095"
         y="184.49524"
         x="12.495266"
         height="103.00952"
         width="103.00952"
         id="rect2896"
         style="display:inline;opacity:0.1;vector-effect:none;fill:none;fill-opacity:1;stroke:#000000;stroke-width:0.99000001;stroke-linecap:butt;stroke-linejoin:miter;stroke-miterlimit:4;stroke-dasharray:0.99000001, 0.99000001;stroke-dashoffset:0;stroke-opacity:1;marker:none;marker-start:none;marker-mid:none;marker-end:none;paint-order:normal;enable-background:new" /><rect
         ry="8.701005"
         rx="7.9292889"
         y="200.49496"
         x="8.4950066"
         height="87.010048"
         width="111.01004"
         id="rect2898"
         style="display:inline;opacity:0.1;vector-effect:none;fill:none;fill-opacity:1;stroke:#000000;stroke-width:0.99000001;stroke-linecap:butt;stroke-linejoin:miter;stroke-miterlimit:4;stroke-dasharray:0.99000001, 0.99000001;stroke-dashoffset:0;stroke-opacity:1;marker:none;marker-start:none;marker-mid:none;marker-end:none;paint-order:normal;enable-background:new" /><path
         inkscape:connector-curvature="0"
         id="path2900"
         d="M 2.6203015e-5,288.99999 H 128.00003"
         style="display:inline;fill:none;stroke:#62a0ea;stroke-width:2;stroke-linecap:butt;stroke-linejoin:miter;stroke-miterlimit:4;stroke-dasharray:none;stroke-opacity:1;enable-background:new" /></g></g></svg>
