<?xml version="1.0" encoding="UTF-8" standalone="no"?>
<svg
   width="16px"
   height="16px"
   viewBox="0 0 16 16"
   version="1.1"
   id="svg13"
   sodipodi:docname="io.github.realmazharhussain.GdmSettings-symbolic.svg"
   inkscape:version="1.2.1 (9c6d41e410, 2022-07-14)"
   xmlns:inkscape="http://www.inkscape.org/namespaces/inkscape"
   xmlns:sodipodi="http://sodipodi.sourceforge.net/DTD/sodipodi-0.dtd"
   xmlns="http://www.w3.org/2000/svg"
   xmlns:svg="http://www.w3.org/2000/svg">
  <defs
     id="defs17">
    <mask
       maskUnits="userSpaceOnUse"
       id="mask8997">
      <g
         id="g9003"
         transform="translate(168,16.135593)">
        <g
           filter="url(#a)"
           id="g9001"
           transform="translate(-168,-16.135593)">
          <rect
             fill-opacity="0.05"
             height="16"
             width="16"
             id="rect8999"
             x="0"
             y="0" />
        </g>
      </g>
    </mask>
  </defs>
  <sodipodi:namedview
     id="namedview15"
     pagecolor="#ffffff"
     bordercolor="#000000"
     borderopacity="0.25"
     inkscape:showpageshadow="2"
     inkscape:pageopacity="0.0"
     inkscape:pagecheckerboard="0"
     inkscape:deskcolor="#d1d1d1"
     showgrid="false"
     inkscape:zoom="11.837606"
     inkscape:cx="4.4772568"
     inkscape:cy="5.5754518"
     inkscape:window-width="1280"
     inkscape:window-height="731"
     inkscape:window-x="0"
     inkscape:window-y="0"
     inkscape:window-maximized="1"
     inkscape:current-layer="svg13">
    <inkscape:grid
       type="xygrid"
       id="grid5770" />
  </sodipodi:namedview>
  <filter
     id="a"
     height="1"
     width="1"
     x="0"
     y="0">
    <feColorMatrix
       in="SourceGraphic"
       type="matrix"
       values="0 0 0 0 1 0 0 0 0 1 0 0 0 0 1 0 0 0 1 0"
       id="feColorMatrix452" />
  </filter>
  <radialGradient
     id="c"
     cx="63.999996"
     cy="194.190475"
     gradientTransform="matrix(4.297522,-7.3e-7,2.8e-7,1.510489,-203.04141,-185.01493)"
     gradientUnits="userSpaceOnUse"
     r="44">
    <stop
       offset="0"
       stop-color="#ffffff"
       id="stop460" />
    <stop
       offset="1"
       stop-color="#ffffff"
       stop-opacity="0.094118"
       id="stop462" />
  </radialGradient>
  <path
     id="path472"
     style="fill:#241f31"
     d="M 2.1875 1 C 0.98047263 1 0 2.0156286 0 3.21875 L 0 12.78125 C 0 13.984372 0.98047263 15 2.1875 15 L 7 15 A 1 1 0 0 0 8 14 A 1 1 0 0 0 7 13 L 2.1875 13 C 2.0664063 13 2 12.917969 2 12.78125 L 2 3.21875 C 2 3.0820313 2.0664063 3 2.1875 3 L 13.8125 3 C 13.933594 3 14 3.0820313 14 3.21875 L 14 6 A 1 1 0 0 0 15 7 A 1 1 0 0 0 16 6 L 16 3.21875 C 16 2.0156286 15.019528 1 13.8125 1 L 2.1875 1 z M 8 4.5 C 7.1718766 4.5 6.5 5.1718756 6.5 6 C 6.5 6.8281244 7.1718766 7.5 8 7.5 C 8.8281234 7.5 9.5 6.8281244 9.5 6 C 9.5 5.1718756 8.8281234 4.5 8 4.5 z M 7.25 8 C 6.0039084 8 5 9.0039069 5 10.25 L 5 11 C 5 11.499998 5.5 11.5 5.5 11.5 L 7.984375 11.5 A 4.5 4.5 0 0 1 9.5058594 8.1308594 C 9.2697589 8.0471125 9.0154434 8 8.75 8 L 7.25 8 z M 11.984375 8 L 11.984375 9.0507812 C 11.800781 9.0898412 11.621094 9.1484416 11.449219 9.2265625 L 10.832031 8.375 L 10.023438 8.9609375 L 10.644531 9.8164062 C 10.515625 9.9531251 10.40625 10.105469 10.3125 10.269531 L 9.3125 9.9453125 L 9 10.894531 L 10 11.21875 C 9.9922 11.3125 9.984375 11.40625 9.984375 11.5 C 9.984375 11.59375 9.99217 11.6875 10 11.78125 L 9 12.105469 L 9.3125 13.054688 L 10.3125 12.730469 C 10.40625 12.894531 10.515625 13.046875 10.644531 13.183594 L 10.023438 14.039062 L 10.832031 14.625 L 11.449219 13.773438 C 11.621093 13.851557 11.796875 13.910156 11.980469 13.949219 L 11.984375 15 L 12.984375 15 L 12.984375 13.949219 C 13.167968 13.910159 13.347656 13.851558 13.519531 13.773438 L 14.136719 14.625 L 14.945312 14.039062 L 14.328125 13.183594 C 14.453125 13.046875 14.5625 12.894531 14.65625 12.730469 L 15.660156 13.054688 L 15.96875 12.105469 L 14.96875 11.78125 C 14.97655 11.6875 14.984375 11.59375 14.984375 11.5 C 14.984375 11.40625 14.97658 11.3125 14.96875 11.21875 L 15.96875 10.894531 L 15.660156 9.9453125 L 14.65625 10.269531 C 14.5625 10.105469 14.453125 9.9531251 14.328125 9.8164062 L 14.945312 8.9609375 L 14.136719 8.375 L 13.519531 9.2265625 C 13.347656 9.1484426 13.171875 9.0898442 12.988281 9.0507812 L 12.984375 8 L 11.984375 8 z M 12.484375 10 C 13.320311 10 13.984375 10.664063 13.984375 11.5 C 13.984375 12.335937 13.320311 13 12.484375 13 C 11.648437 13 10.984375 12.335937 10.984375 11.5 C 10.984375 10.664063 11.648437 10 12.484375 10 z " />
</svg>
