<svg id="visual" viewBox="0 0 1024 1024" width="1024" height="1024" xmlns="http://www.w3.org/2000/svg" xmlns:xlink="http://www.w3.org/1999/xlink" version="1.1"><path d="M0 216L14.2 214.3C28.3 212.7 56.7 209.3 85.2 195.7C113.7 182 142.3 158 170.8 168.2C199.3 178.3 227.7 222.7 256 221C284.3 219.3 312.7 171.7 341.2 159.8C369.7 148 398.3 172 426.8 172C455.3 172 483.7 148 512 163.3C540.3 178.7 568.7 233.3 597.2 255.5C625.7 277.7 654.3 267.3 682.8 253.7C711.3 240 739.7 223 768 197.3C796.3 171.7 824.7 137.3 853.2 118.5C881.7 99.7 910.3 96.3 938.8 103.2C967.3 110 995.7 127 1009.8 135.5L1024 144L1024 0L1009.8 0C995.7 0 967.3 0 938.8 0C910.3 0 881.7 0 853.2 0C824.7 0 796.3 0 768 0C739.7 0 711.3 0 682.8 0C654.3 0 625.7 0 597.2 0C568.7 0 540.3 0 512 0C483.7 0 455.3 0 426.8 0C398.3 0 369.7 0 341.2 0C312.7 0 284.3 0 256 0C227.7 0 199.3 0 170.8 0C142.3 0 113.7 0 85.2 0C56.7 0 28.3 0 14.2 0L0 0Z" fill="#b177c4"></path><path d="M0 288L14.2 286.2C28.3 284.3 56.7 280.7 85.2 267C113.7 253.3 142.3 229.7 170.8 233.2C199.3 236.7 227.7 267.3 256 262.2C284.3 257 312.7 216 341.2 209.2C369.7 202.3 398.3 229.7 426.8 229.7C455.3 229.7 483.7 202.3 512 221.2C540.3 240 568.7 305 597.2 323.8C625.7 342.7 654.3 315.3 682.8 293.2C711.3 271 739.7 254 768 233.5C796.3 213 824.7 189 853.2 177C881.7 165 910.3 165 938.8 166.7C967.3 168.3 995.7 171.7 1009.8 173.3L1024 175L1024 142L1009.8 133.5C995.7 125 967.3 108 938.8 101.2C910.3 94.3 881.7 97.7 853.2 116.5C824.7 135.3 796.3 169.7 768 195.3C739.7 221 711.3 238 682.8 251.7C654.3 265.3 625.7 275.7 597.2 253.5C568.7 231.3 540.3 176.7 512 161.3C483.7 146 455.3 170 426.8 170C398.3 170 369.7 146 341.2 157.8C312.7 169.7 284.3 217.3 256 219C227.7 220.7 199.3 176.3 170.8 166.2C142.3 156 113.7 180 85.2 193.7C56.7 207.3 28.3 210.7 14.2 212.3L0 214Z" fill="#ab6dc0"></path><path d="M0 452L14.2 448.5C28.3 445 56.7 438 85.2 431.2C113.7 424.3 142.3 417.7 170.8 412.5C199.3 407.3 227.7 403.7 256 401.8C284.3 400 312.7 400 341.2 405.2C369.7 410.3 398.3 420.7 426.8 437.8C455.3 455 483.7 479 512 501.2C540.3 523.3 568.7 543.7 597.2 553.8C625.7 564 654.3 564 682.8 558.8C711.3 553.7 739.7 543.3 768 529.7C796.3 516 824.7 499 853.2 488.8C881.7 478.7 910.3 475.3 938.8 463.5C967.3 451.7 995.7 431.3 1009.8 421.2L1024 411L1024 173L1009.8 171.3C995.7 169.7 967.3 166.3 938.8 164.7C910.3 163 881.7 163 853.2 175C824.7 187 796.3 211 768 231.5C739.7 252 711.3 269 682.8 291.2C654.3 313.3 625.7 340.7 597.2 321.8C568.7 303 540.3 238 512 219.2C483.7 200.3 455.3 227.7 426.8 227.7C398.3 227.7 369.7 200.3 341.2 207.2C312.7 214 284.3 255 256 260.2C227.7 265.3 199.3 234.7 170.8 231.2C142.3 227.7 113.7 251.3 85.2 265C56.7 278.7 28.3 282.3 14.2 284.2L0 286Z" fill="#a664bb"></path><path d="M0 493L14.2 486.2C28.3 479.3 56.7 465.7 85.2 460.5C113.7 455.3 142.3 458.7 170.8 458.7C199.3 458.7 227.7 455.3 256 451.8C284.3 448.3 312.7 444.7 341.2 448C369.7 451.3 398.3 461.7 426.8 478.8C455.3 496 483.7 520 512 538.8C540.3 557.7 568.7 571.3 597.2 581.5C625.7 591.7 654.3 598.3 682.8 596.5C711.3 594.7 739.7 584.3 768 572.3C796.3 560.3 824.7 546.7 853.2 533.2C881.7 519.7 910.3 506.3 938.8 489.3C967.3 472.3 995.7 451.7 1009.8 441.3L1024 431L1024 409L1009.8 419.2C995.7 429.3 967.3 449.7 938.8 461.5C910.3 473.3 881.7 476.7 853.2 486.8C824.7 497 796.3 514 768 527.7C739.7 541.3 711.3 551.7 682.8 556.8C654.3 562 625.7 562 597.2 551.8C568.7 541.7 540.3 521.3 512 499.2C483.7 477 455.3 453 426.8 435.8C398.3 418.7 369.7 408.3 341.2 403.2C312.7 398 284.3 398 256 399.8C227.7 401.7 199.3 405.3 170.8 410.5C142.3 415.7 113.7 422.3 85.2 429.2C56.7 436 28.3 443 14.2 446.5L0 450Z" fill="#a05ab7"></path><path d="M0 605L14.2 586.3C28.3 567.7 56.7 530.3 85.2 527C113.7 523.7 142.3 554.3 170.8 567.8C199.3 581.3 227.7 577.7 256 577.7C284.3 577.7 312.7 581.3 341.2 578C369.7 574.7 398.3 564.3 426.8 564.3C455.3 564.3 483.7 574.7 512 605.3C540.3 636 568.7 687 597.2 698.8C625.7 710.7 654.3 683.3 682.8 668C711.3 652.7 739.7 649.3 768 637.5C796.3 625.7 824.7 605.3 853.2 586.5C881.7 567.7 910.3 550.3 938.8 546.8C967.3 543.3 995.7 553.7 1009.8 558.8L1024 564L1024 429L1009.8 439.3C995.7 449.7 967.3 470.3 938.8 487.3C910.3 504.3 881.7 517.7 853.2 531.2C824.7 544.7 796.3 558.3 768 570.3C739.7 582.3 711.3 592.7 682.8 594.5C654.3 596.3 625.7 589.7 597.2 579.5C568.7 569.3 540.3 555.7 512 536.8C483.7 518 455.3 494 426.8 476.8C398.3 459.7 369.7 449.3 341.2 446C312.7 442.7 284.3 446.3 256 449.8C227.7 453.3 199.3 456.7 170.8 456.7C142.3 456.7 113.7 453.3 85.2 458.5C56.7 463.7 28.3 477.3 14.2 484.2L0 491Z" fill="#9a50b3"></path><path d="M0 718L14.2 711.2C28.3 704.3 56.7 690.7 85.2 694C113.7 697.3 142.3 717.7 170.8 714.2C199.3 710.7 227.7 683.3 256 680C284.3 676.7 312.7 697.3 341.2 700.8C369.7 704.3 398.3 690.7 426.8 682.2C455.3 673.7 483.7 670.3 512 694.2C540.3 718 568.7 769 597.2 784.3C625.7 799.7 654.3 779.3 682.8 762.3C711.3 745.3 739.7 731.7 768 730C796.3 728.3 824.7 738.7 853.2 725C881.7 711.3 910.3 673.7 938.8 658.2C967.3 642.7 995.7 649.3 1009.8 652.7L1024 656L1024 562L1009.8 556.8C995.7 551.7 967.3 541.3 938.8 544.8C910.3 548.3 881.7 565.7 853.2 584.5C824.7 603.3 796.3 623.7 768 635.5C739.7 647.3 711.3 650.7 682.8 666C654.3 681.3 625.7 708.7 597.2 696.8C568.7 685 540.3 634 512 603.3C483.7 572.7 455.3 562.3 426.8 562.3C398.3 562.3 369.7 572.7 341.2 576C312.7 579.3 284.3 575.7 256 575.7C227.7 575.7 199.3 579.3 170.8 565.8C142.3 552.3 113.7 521.7 85.2 525C56.7 528.3 28.3 565.7 14.2 584.3L0 603Z" fill="#9446ae"></path><path d="M0 820L14.2 806.3C28.3 792.7 56.7 765.3 85.2 758.5C113.7 751.7 142.3 765.3 170.8 760.3C199.3 755.3 227.7 731.7 256 735.2C284.3 738.7 312.7 769.3 341.2 781.2C369.7 793 398.3 786 426.8 777.5C455.3 769 483.7 759 512 774.3C540.3 789.7 568.7 830.3 597.2 842.2C625.7 854 654.3 837 682.8 830.2C711.3 823.3 739.7 826.7 768 826.7C796.3 826.7 824.7 823.3 853.2 806.3C881.7 789.3 910.3 758.7 938.8 751.8C967.3 745 995.7 762 1009.8 770.5L1024 779L1024 654L1009.8 650.7C995.7 647.3 967.3 640.7 938.8 656.2C910.3 671.7 881.7 709.3 853.2 723C824.7 736.7 796.3 726.3 768 728C739.7 729.7 711.3 743.3 682.8 760.3C654.3 777.3 625.7 797.7 597.2 782.3C568.7 767 540.3 716 512 692.2C483.7 668.3 455.3 671.7 426.8 680.2C398.3 688.7 369.7 702.3 341.2 698.8C312.7 695.3 284.3 674.7 256 678C227.7 681.3 199.3 708.7 170.8 712.2C142.3 715.7 113.7 695.3 85.2 692C56.7 688.7 28.3 702.3 14.2 709.2L0 716Z" fill="#8d3fa8"></path><path d="M0 851L14.2 837.3C28.3 823.7 56.7 796.3 85.2 794.7C113.7 793 142.3 817 170.8 817C199.3 817 227.7 793 256 793C284.3 793 312.7 817 341.2 822.2C369.7 827.3 398.3 813.7 426.8 805C455.3 796.3 483.7 792.7 512 808C540.3 823.3 568.7 857.7 597.2 868C625.7 878.3 654.3 864.7 682.8 861.2C711.3 857.7 739.7 864.3 768 862.7C796.3 861 824.7 851 853.2 837.3C881.7 823.7 910.3 806.3 938.8 806.3C967.3 806.3 995.7 823.7 1009.8 832.3L1024 841L1024 777L1009.8 768.5C995.7 760 967.3 743 938.8 749.8C910.3 756.7 881.7 787.3 853.2 804.3C824.7 821.3 796.3 824.7 768 824.7C739.7 824.7 711.3 821.3 682.8 828.2C654.3 835 625.7 852 597.2 840.2C568.7 828.3 540.3 787.7 512 772.3C483.7 757 455.3 767 426.8 775.5C398.3 784 369.7 791 341.2 779.2C312.7 767.3 284.3 736.7 256 733.2C227.7 729.7 199.3 753.3 170.8 758.3C142.3 763.3 113.7 749.7 85.2 756.5C56.7 763.3 28.3 790.7 14.2 804.3L0 818Z" fill="#863c9f"></path><path d="M0 912L14.2 900.2C28.3 888.3 56.7 864.7 85.2 859.7C113.7 854.7 142.3 868.3 170.8 870C199.3 871.7 227.7 861.3 256 869.8C284.3 878.3 312.7 905.7 341.2 907.3C369.7 909 398.3 885 426.8 874.7C455.3 864.3 483.7 867.7 512 878C540.3 888.3 568.7 905.7 597.2 907.5C625.7 909.3 654.3 895.7 682.8 892.2C711.3 888.7 739.7 895.3 768 902.2C796.3 909 824.7 916 853.2 905.8C881.7 895.7 910.3 868.3 938.8 866.5C967.3 864.7 995.7 888.3 1009.8 900.2L1024 912L1024 839L1009.8 830.3C995.7 821.7 967.3 804.3 938.8 804.3C910.3 804.3 881.7 821.7 853.2 835.3C824.7 849 796.3 859 768 860.7C739.7 862.3 711.3 855.7 682.8 859.2C654.3 862.7 625.7 876.3 597.2 866C568.7 855.7 540.3 821.3 512 806C483.7 790.7 455.3 794.3 426.8 803C398.3 811.7 369.7 825.3 341.2 820.2C312.7 815 284.3 791 256 791C227.7 791 199.3 815 170.8 815C142.3 815 113.7 791 85.2 792.7C56.7 794.3 28.3 821.7 14.2 835.3L0 849Z" fill="#7f3997"></path><path d="M0 943L14.2 939.7C28.3 936.3 56.7 929.7 85.2 929.7C113.7 929.7 142.3 936.3 170.8 938C199.3 939.7 227.7 936.3 256 939.8C284.3 943.3 312.7 953.7 341.2 953.7C369.7 953.7 398.3 943.3 426.8 945C455.3 946.7 483.7 960.3 512 965.5C540.3 970.7 568.7 967.3 597.2 965.7C625.7 964 654.3 964 682.8 964C711.3 964 739.7 964 768 962.2C796.3 960.3 824.7 956.7 853.2 949.8C881.7 943 910.3 933 938.8 936.5C967.3 940 995.7 957 1009.8 965.5L1024 974L1024 910L1009.8 898.2C995.7 886.3 967.3 862.7 938.8 864.5C910.3 866.3 881.7 893.7 853.2 903.8C824.7 914 796.3 907 768 900.2C739.7 893.3 711.3 886.7 682.8 890.2C654.3 893.7 625.7 907.3 597.2 905.5C568.7 903.7 540.3 886.3 512 876C483.7 865.7 455.3 862.3 426.8 872.7C398.3 883 369.7 907 341.2 905.3C312.7 903.7 284.3 876.3 256 867.8C227.7 859.3 199.3 869.7 170.8 868C142.3 866.3 113.7 852.7 85.2 857.7C56.7 862.7 28.3 886.3 14.2 898.2L0 910Z" fill="#78368e"></path><path d="M0 994L14.2 992.3C28.3 990.7 56.7 987.3 85.2 989.2C113.7 991 142.3 998 170.8 998C199.3 998 227.7 991 256 989.2C284.3 987.3 312.7 990.7 341.2 987.3C369.7 984 398.3 974 426.8 975.8C455.3 977.7 483.7 991.3 512 998.2C540.3 1005 568.7 1005 597.2 1005C625.7 1005 654.3 1005 682.8 1005C711.3 1005 739.7 1005 768 1001.5C796.3 998 824.7 991 853.2 989.2C881.7 987.3 910.3 990.7 938.8 994.2C967.3 997.7 995.7 1001.3 1009.8 1003.2L1024 1005L1024 972L1009.8 963.5C995.7 955 967.3 938 938.8 934.5C910.3 931 881.7 941 853.2 947.8C824.7 954.7 796.3 958.3 768 960.2C739.7 962 711.3 962 682.8 962C654.3 962 625.7 962 597.2 963.7C568.7 965.3 540.3 968.7 512 963.5C483.7 958.3 455.3 944.7 426.8 943C398.3 941.3 369.7 951.7 341.2 951.7C312.7 951.7 284.3 941.3 256 937.8C227.7 934.3 199.3 937.7 170.8 936C142.3 934.3 113.7 927.7 85.2 927.7C56.7 927.7 28.3 934.3 14.2 937.7L0 941Z" fill="#713386"></path><path d="M0 1025L14.2 1025C28.3 1025 56.7 1025 85.2 1025C113.7 1025 142.3 1025 170.8 1025C199.3 1025 227.7 1025 256 1025C284.3 1025 312.7 1025 341.2 1025C369.7 1025 398.3 1025 426.8 1025C455.3 1025 483.7 1025 512 1025C540.3 1025 568.7 1025 597.2 1025C625.7 1025 654.3 1025 682.8 1025C711.3 1025 739.7 1025 768 1025C796.3 1025 824.7 1025 853.2 1025C881.7 1025 910.3 1025 938.8 1025C967.3 1025 995.7 1025 1009.8 1025L1024 1025L1024 1003L1009.8 1001.2C995.7 999.3 967.3 995.7 938.8 992.2C910.3 988.7 881.7 985.3 853.2 987.2C824.7 989 796.3 996 768 999.5C739.7 1003 711.3 1003 682.8 1003C654.3 1003 625.7 1003 597.2 1003C568.7 1003 540.3 1003 512 996.2C483.7 989.3 455.3 975.7 426.8 973.8C398.3 972 369.7 982 341.2 985.3C312.7 988.7 284.3 985.3 256 987.2C227.7 989 199.3 996 170.8 996C142.3 996 113.7 989 85.2 987.2C56.7 985.3 28.3 988.7 14.2 990.3L0 992Z" fill="#6a307e"></path></svg>