<svg width="218" height="64" viewBox="0 0 218 64" xmlns="http://www.w3.org/2000/svg"><g fill-rule="nonzero" fill="none"><path d="M70.032 32.25c0-9.189 7.048-15.39 16.371-15.39 7.807 0 11.732 4.55 13.517 8.655l-7.762 3.613c-.759-2.32-3.078-4.327-5.755-4.327-4.327 0-7.226 3.3-7.226 7.45 0 4.148 2.9 7.45 7.226 7.45 2.677 0 4.996-2.008 5.755-4.328l7.762 3.569c-1.74 3.97-5.71 8.698-13.517 8.698-9.323 0-16.37-6.245-16.37-15.39zm53.171-.044c0-4.015-2.32-7.004-7.137-7.004h-4.327v14.052h4.282c4.506 0 7.182-3.301 7.182-7.048zm-20.475 14.9V17.35h13.293c9.368 0 16.327 5.353 16.327 14.855 0 9.501-6.959 14.9-16.282 14.9h-13.338zm52.814 0L144.57 32.026v15.078h-9.011V17.351h9.278l10.35 14.097V17.35h9.01v29.754h-8.654zm16.414 0l9.413-21.904h-13.962v-7.85h24.31v6.245l-9.902 23.508h-9.859zm25.757 0l9.413-21.904h-13.962v-7.85h24.31v6.245l-9.902 23.508h-9.859zM27.145 0C12.153 0 0 12.228 0 27.31c0 15.084 27.145 36.415 27.145 36.415s27.146-21.33 27.146-36.414C54.29 12.228 42.137 0 27.145 0" fill="#04151F"/><path d="M27.145 9.753c-9.139 0-16.547 7.453-16.547 16.648S18.006 43.05 27.145 43.05c9.14 0 16.548-7.454 16.548-16.649S36.284 9.753 27.145 9.753" fill="#FFE115"/><path d="M27.144 18.89c-4.122 0-7.464 3.364-7.464 7.511 0 4.148 3.342 7.51 7.464 7.51 4.123 0 7.466-3.362 7.466-7.51 0-4.147-3.343-7.51-7.466-7.51" fill="#04151F"/></g></svg>
