<?xml version="1.0" encoding="UTF-8" standalone="no"?>
<svg height="16px" viewBox="0 0 16 16" width="16px" xmlns="http://www.w3.org/2000/svg" sodipodi:docname="org.gnome.Todo-symbolic.svg" inkscape:version="1.2.1 (9c6d41e410, 2022-07-14)" xmlns:inkscape="http://www.inkscape.org/namespaces/inkscape" xmlns:sodipodi="http://sodipodi.sourceforge.net/DTD/sodipodi-0.dtd" xmlns:svg="http://www.w3.org/2000/svg">
    <sodipodi:namedview pagecolor="#ffffff" bordercolor="#000000" borderopacity="0.25" inkscape:showpageshadow="2" inkscape:pageopacity="0.0" inkscape:pagecheckerboard="0" inkscape:deskcolor="#d1d1d1" showgrid="false" inkscape:zoom="31.5" inkscape:cx="8" inkscape:cy="8" inkscape:window-width="1280" inkscape:window-height="731" inkscape:window-x="0" inkscape:window-y="0" inkscape:window-maximized="1" inkscape:current-layer="svg3377">
        <inkscape:grid/>
    </sodipodi:namedview>
    <path d="m 6 0 v 3 h 4 v -3 z m -1 1 c -1.6446984 0 -3 1.3553016 -3 3 v 8 c 0 1.644698 1.3553016 3 3 3 h 6 c 1.644698 0 3 -1.355302 3 -3 v -8 c 0 -1.6446984 -1.355302 -3 -3 -3 v 2 c 0.571299 0 1 0.4287006 1 1 v 0.5859375 l -4 4 l -1.2929688 -1.2929687 a 1 1 0 0 0 -1.4140624 0 a 1 1 0 0 0 0 1.4140624 l 2 1.9999998 a 1.0001 1.0001 0 0 0 1.4140624 0 l 3.2929688 -3.2929685 v 4.5859375 c 0 0.571299 -0.428701 1 -1 1 h -6 c -0.5712994 0 -1 -0.428701 -1 -1 v -8 c 0 -0.5712994 0.4287006 -1 1 -1 z"/>
</svg>
