<?xml version="1.0" encoding="UTF-8"?>
<svg height="128px" viewBox="0 0 128 128" width="128px" xmlns="http://www.w3.org/2000/svg" xmlns:xlink="http://www.w3.org/1999/xlink">
    <linearGradient id="a" gradientUnits="userSpaceOnUse" x1="20" x2="108.000002" y1="32" y2="104">
        <stop offset="0" stop-color="#62a0ea"/>
        <stop offset="0.5" stop-color="#9141ac"/>
        <stop offset="1" stop-color="#ed333b"/>
    </linearGradient>
    <clipPath id="b">
        <rect height="128" width="128"/>
    </clipPath>
    <clipPath id="c">
        <rect height="128" width="128"/>
    </clipPath>
    <filter id="d" height="100%" width="100%" x="0%" y="0%">
        <feColorMatrix in="SourceGraphic" type="matrix" values="0 0 0 0 1 0 0 0 0 1 0 0 0 0 1 0 0 0 1 0"/>
    </filter>
    <mask id="e">
        <g clip-path="url(#c)" filter="url(#d)">
            <g clip-path="url(#b)">
                <path d="m 28 16 h 72 c 4.417969 0 8 3.582031 8 8 v 88 c 0 4.417969 -3.582031 8 -8 8 h -72 c -4.417969 0 -8 -3.582031 -8 -8 v -88 c 0 -4.417969 3.582031 -8 8 -8 z m 0 0" fill="url(#a)"/>
                <path d="m 32 78 h 64 c 2.210938 0 4 1.789062 4 4 v 22 c 0 2.210938 -1.789062 4 -4 4 h -64 c -2.210938 0 -4 -1.789062 -4 -4 v -22 c 0 -2.210938 1.789062 -4 4 -4 z m 0 0" fill="#deddda"/>
                <path d="m 32 24 h 64 c 2.210938 0 4 1.789062 4 4 v 70 c 0 2.210938 -1.789062 4 -4 4 h -64 c -2.210938 0 -4 -1.789062 -4 -4 v -70 c 0 -2.210938 1.789062 -4 4 -4 z m 0 0" fill="#ffffff"/>
                <path d="m 44 12 c -2.214844 0 -4 1.785156 -4 4 v 14 h 48 v -14 c 0 -2.214844 -1.804688 -4.3125 -4 -4 h -14 l -6 7 l -6 -7 z m 0 0" fill="#c0bfbc"/>
                <path d="m 70 184 c 0 3.3125 -2.6875 6 -6 6 s -6 -2.6875 -6 -6 s 2.6875 -6 6 -6 s 6 2.6875 6 6 z m 0 0" fill="none" stroke="#c0bfbc" stroke-linejoin="round" stroke-width="4" transform="matrix(1 0 0 1 0 -172)"/>
                <path d="m 40 28 h 48 v 4 h -48 z m 0 0" fill="#9a9996"/>
                <path d="m 40 257 l 5 5 l 9 -9" fill="none" stroke="#77767b" stroke-linecap="round" stroke-linejoin="round" stroke-width="4" transform="matrix(1 0 0 1 0 -172)"/>
                <path d="m 40 237 l 5 5 l 9 -9" fill="none" stroke="#77767b" stroke-linecap="round" stroke-linejoin="round" stroke-width="4" transform="matrix(1 0 0 1 0 -172)"/>
                <path d="m 40 217 l 5 5 l 9 -9" fill="none" stroke="#77767b" stroke-linecap="round" stroke-linejoin="round" stroke-width="4" transform="matrix(1 0 0 1 0 -172)"/>
                <path d="m 64 84 h 18 v 4 h -18 z m 0 0" fill="#c0bfbc"/>
                <path d="m 64 64 h 26 v 4 h -26 z m 0 0" fill="#c0bfbc"/>
                <path d="m 64 44 h 22 v 4 h -22 z m 0 0" fill="#c0bfbc"/>
                <path d="m 20 108 v 4 c 0 4.433594 3.566406 8 8 8 h 72 c 4.433594 0 8 -3.566406 8 -8 v -4 c 0 4.433594 -3.566406 8 -8 8 h -72 c -4.433594 0 -8 -3.566406 -8 -8 z m 0 0" fill-opacity="0.2"/>
            </g>
        </g>
    </mask>
    <mask id="f">
        <g filter="url(#d)">
            <rect fill-opacity="0.8" height="128" width="128"/>
        </g>
    </mask>
    <linearGradient id="g" gradientTransform="matrix(0 0.37 -0.98462 0 295.38501 -30.360001)" gradientUnits="userSpaceOnUse" x1="300" x2="428" y1="235" y2="235">
        <stop offset="0" stop-color="#f9f06b"/>
        <stop offset="1" stop-color="#f5c211"/>
    </linearGradient>
    <clipPath id="h">
        <rect height="128" width="128"/>
    </clipPath>
    <clipPath id="i">
        <rect height="128" width="128"/>
    </clipPath>
    <path d="m 28 16 h 72 c 4.417969 0 8 3.582031 8 8 v 88 c 0 4.417969 -3.582031 8 -8 8 h -72 c -4.417969 0 -8 -3.582031 -8 -8 v -88 c 0 -4.417969 3.582031 -8 8 -8 z m 0 0" fill="url(#a)"/>
    <path d="m 32 78 h 64 c 2.210938 0 4 1.789062 4 4 v 22 c 0 2.210938 -1.789062 4 -4 4 h -64 c -2.210938 0 -4 -1.789062 -4 -4 v -22 c 0 -2.210938 1.789062 -4 4 -4 z m 0 0" fill="#deddda"/>
    <path d="m 32 24 h 64 c 2.210938 0 4 1.789062 4 4 v 70 c 0 2.210938 -1.789062 4 -4 4 h -64 c -2.210938 0 -4 -1.789062 -4 -4 v -70 c 0 -2.210938 1.789062 -4 4 -4 z m 0 0" fill="#ffffff"/>
    <path d="m 44 12 c -2.214844 0 -4 1.785156 -4 4 v 14 h 48 v -14 c 0 -2.214844 -1.804688 -4.3125 -4 -4 h -14 l -6 7 l -6 -7 z m 0 0" fill="#c0bfbc"/>
    <path d="m 70 12 c 0 3.3125 -2.6875 6 -6 6 s -6 -2.6875 -6 -6 s 2.6875 -6 6 -6 s 6 2.6875 6 6 z m 0 0" fill="none" stroke="#c0bfbc" stroke-linejoin="round" stroke-width="4"/>
    <path d="m 40 28 h 48 v 4 h -48 z m 0 0" fill="#9a9996"/>
    <path d="m 40 85 l 5 5 l 9 -9" fill="none" stroke="#77767b" stroke-linecap="round" stroke-linejoin="round" stroke-width="4"/>
    <path d="m 40 65 l 5 5 l 9 -9" fill="none" stroke="#77767b" stroke-linecap="round" stroke-linejoin="round" stroke-width="4"/>
    <path d="m 40 45 l 5 5 l 9 -9" fill="none" stroke="#77767b" stroke-linecap="round" stroke-linejoin="round" stroke-width="4"/>
    <g fill="#c0bfbc">
        <path d="m 64 84 h 18 v 4 h -18 z m 0 0"/>
        <path d="m 64 64 h 26 v 4 h -26 z m 0 0"/>
        <path d="m 64 44 h 22 v 4 h -22 z m 0 0"/>
    </g>
    <path d="m 20 108 v 4 c 0 4.433594 3.566406 8 8 8 h 72 c 4.433594 0 8 -3.566406 8 -8 v -4 c 0 4.433594 -3.566406 8 -8 8 h -72 c -4.433594 0 -8 -3.566406 -8 -8 z m 0 0" fill-opacity="0.2"/>
    <g clip-path="url(#i)" mask="url(#e)">
        <g clip-path="url(#h)" mask="url(#f)">
            <path d="m 128 80.640625 v 47.359375 h -128 v -47.359375 z m 0 0" fill="url(#g)"/>
            <path d="m 13.308594 80.640625 l 47.355468 47.359375 h 21.214844 l -47.359375 -47.359375 z m 42.421875 0 l 47.363281 47.359375 h 21.214844 l -47.363282 -47.359375 z m 42.429687 0 l 29.839844 29.839844 v -21.210938 l -8.628906 -8.628906 z m -98.160156 7.90625 v 21.214844 l 18.238281 18.238281 h 21.214844 z m 0 0"/>
        </g>
    </g>
</svg>
